<?xml version="1.0" encoding="UTF-8" standalone="no"?>
<!DOCTYPE svg PUBLIC "-//W3C//DTD SVG 1.1//EN"
 "http://www.w3.org/Graphics/SVG/1.1/DTD/svg11.dtd">
<!-- Generated by graphviz version 2.26.3 (20100126.1600)
 -->
<!-- Title: controllers_diagram Pages: 1 -->
<svg width="1296pt" height="1903pt"
 viewBox="0.00 0.00 1296.00 1902.98" xmlns="http://www.w3.org/2000/svg" xmlns:xlink="http://www.w3.org/1999/xlink">
<g id="graph1" class="graph" transform="scale(1 1) rotate(0) translate(4 1898.98)">
<title>controllers_diagram</title>
<polygon fill="white" stroke="white" points="-4,5 -4,-1898.98 1293,-1898.98 1293,5 -4,5"/>
<!-- _diagram_info -->
<g id="node1" class="node"><title>_diagram_info</title>
<text text-anchor="start" x="1079" y="-491.3" font-family="Times,serif" font-size="13.00">Controllers diagram</text>
<text text-anchor="start" x="1079" y="-477.3" font-family="Times,serif" font-size="13.00">Date: Aug 01 2013 &#45; 11:03</text>
<text text-anchor="start" x="1079" y="-463.3" font-family="Times,serif" font-size="13.00">Migration version: 20130731123144</text>
<text text-anchor="start" x="1079" y="-449.3" font-family="Times,serif" font-size="13.00">Generated by RailRoady 1.1.0</text>
<text text-anchor="start" x="1079" y="-435.3" font-family="Times,serif" font-size="13.00">http://railroady.prestonlee.com</text>
</g>
<!-- AboutUsController -->
<g id="node2" class="node"><title>AboutUsController</title>
<polyline fill="none" stroke="black" points="133.535,-1181.69 237.535,-1181.69 "/>
<path fill="none" stroke="black" d="M237.535,-1181.69C243.535,-1181.69 249.535,-1187.69 249.535,-1193.69"/>
<polyline fill="none" stroke="black" points="249.535,-1193.69 249.535,-1322.69 "/>
<path fill="none" stroke="black" d="M249.535,-1322.69C249.535,-1328.69 243.535,-1334.69 237.535,-1334.69"/>
<polyline fill="none" stroke="black" points="237.535,-1334.69 133.535,-1334.69 "/>
<path fill="none" stroke="black" d="M133.535,-1334.69C127.535,-1334.69 121.535,-1328.69 121.535,-1322.69"/>
<polyline fill="none" stroke="black" points="121.535,-1322.69 121.535,-1193.69 "/>
<path fill="none" stroke="black" d="M121.535,-1193.69C121.535,-1187.69 127.535,-1181.69 133.535,-1181.69"/>
<text text-anchor="middle" x="185.535" y="-1318.09" font-family="Times,serif" font-size="14.00">AboutUsController</text>
<polyline fill="none" stroke="black" points="121.535,-1311.69 249.535,-1311.69 "/>
<text text-anchor="start" x="129.535" y="-1295.09" font-family="Times,serif" font-size="14.00">how_it_works</text>
<text text-anchor="start" x="129.535" y="-1280.09" font-family="Times,serif" font-size="14.00">index</text>
<text text-anchor="start" x="129.535" y="-1265.09" font-family="Times,serif" font-size="14.00">meet_the_team</text>
<text text-anchor="start" x="129.535" y="-1250.09" font-family="Times,serif" font-size="14.00">our_philosophy</text>
<text text-anchor="start" x="129.535" y="-1235.09" font-family="Times,serif" font-size="14.00">what_we_do</text>
<polyline fill="none" stroke="black" points="121.535,-1228.69 249.535,-1228.69 "/>
<polyline fill="none" stroke="black" points="121.535,-1204.69 249.535,-1204.69 "/>
<text text-anchor="start" x="129.535" y="-1188.09" font-family="Times,serif" font-size="14.00">_layout</text>
</g>
<!-- AdminController -->
<g id="node3" class="node"><title>AdminController</title>
<polyline fill="none" stroke="black" points="689.225,-1155.28 881.225,-1155.28 "/>
<path fill="none" stroke="black" d="M881.225,-1155.28C887.225,-1155.28 893.225,-1161.28 893.225,-1167.28"/>
<polyline fill="none" stroke="black" points="893.225,-1167.28 893.225,-1386.28 "/>
<path fill="none" stroke="black" d="M893.225,-1386.28C893.225,-1392.28 887.225,-1398.28 881.225,-1398.28"/>
<polyline fill="none" stroke="black" points="881.225,-1398.28 689.225,-1398.28 "/>
<path fill="none" stroke="black" d="M689.225,-1398.28C683.225,-1398.28 677.225,-1392.28 677.225,-1386.28"/>
<polyline fill="none" stroke="black" points="677.225,-1386.28 677.225,-1167.28 "/>
<path fill="none" stroke="black" d="M677.225,-1167.28C677.225,-1161.28 683.225,-1155.28 689.225,-1155.28"/>
<text text-anchor="middle" x="785.225" y="-1381.68" font-family="Times,serif" font-size="14.00">AdminController</text>
<polyline fill="none" stroke="black" points="677.225,-1375.28 893.225,-1375.28 "/>
<text text-anchor="start" x="685.225" y="-1358.68" font-family="Times,serif" font-size="14.00">_one_time_conditions_valid_154?</text>
<text text-anchor="start" x="685.225" y="-1343.68" font-family="Times,serif" font-size="14.00">adverts</text>
<text text-anchor="start" x="685.225" y="-1328.68" font-family="Times,serif" font-size="14.00">clients</text>
<text text-anchor="start" x="685.225" y="-1313.68" font-family="Times,serif" font-size="14.00">dashboard</text>
<text text-anchor="start" x="685.225" y="-1298.68" font-family="Times,serif" font-size="14.00">employer_profiles</text>
<text text-anchor="start" x="685.225" y="-1283.68" font-family="Times,serif" font-size="14.00">jobs</text>
<text text-anchor="start" x="685.225" y="-1268.68" font-family="Times,serif" font-size="14.00">login</text>
<text text-anchor="start" x="685.225" y="-1253.68" font-family="Times,serif" font-size="14.00">members</text>
<text text-anchor="start" x="685.225" y="-1238.68" font-family="Times,serif" font-size="14.00">mentors</text>
<text text-anchor="start" x="685.225" y="-1223.68" font-family="Times,serif" font-size="14.00">projects</text>
<text text-anchor="start" x="685.225" y="-1208.68" font-family="Times,serif" font-size="14.00">team</text>
<polyline fill="none" stroke="black" points="677.225,-1202.28 893.225,-1202.28 "/>
<polyline fill="none" stroke="black" points="677.225,-1178.28 893.225,-1178.28 "/>
<text text-anchor="start" x="685.225" y="-1161.68" font-family="Times,serif" font-size="14.00">_layout</text>
</g>
<!-- AdvertsController -->
<g id="node4" class="node"><title>AdvertsController</title>
<polyline fill="none" stroke="black" points="139.498,-1.5 237.498,-1.5 "/>
<path fill="none" stroke="black" d="M237.498,-1.5C243.498,-1.5 249.498,-7.5 249.498,-13.5"/>
<polyline fill="none" stroke="black" points="249.498,-13.5 249.498,-172.5 "/>
<path fill="none" stroke="black" d="M249.498,-172.5C249.498,-178.5 243.498,-184.5 237.498,-184.5"/>
<polyline fill="none" stroke="black" points="237.498,-184.5 139.498,-184.5 "/>
<path fill="none" stroke="black" d="M139.498,-184.5C133.498,-184.5 127.498,-178.5 127.498,-172.5"/>
<polyline fill="none" stroke="black" points="127.498,-172.5 127.498,-13.5 "/>
<path fill="none" stroke="black" d="M127.498,-13.5C127.498,-7.5 133.498,-1.5 139.498,-1.5"/>
<text text-anchor="middle" x="188.498" y="-167.9" font-family="Times,serif" font-size="14.00">AdvertsController</text>
<polyline fill="none" stroke="black" points="127.498,-161.5 249.498,-161.5 "/>
<text text-anchor="start" x="135.498" y="-144.9" font-family="Times,serif" font-size="14.00">create</text>
<text text-anchor="start" x="135.498" y="-129.9" font-family="Times,serif" font-size="14.00">destroy</text>
<text text-anchor="start" x="135.498" y="-114.9" font-family="Times,serif" font-size="14.00">edit</text>
<text text-anchor="start" x="135.498" y="-99.9" font-family="Times,serif" font-size="14.00">index</text>
<text text-anchor="start" x="135.498" y="-84.9" font-family="Times,serif" font-size="14.00">new</text>
<text text-anchor="start" x="135.498" y="-69.9" font-family="Times,serif" font-size="14.00">show</text>
<text text-anchor="start" x="135.498" y="-54.9" font-family="Times,serif" font-size="14.00">update</text>
<polyline fill="none" stroke="black" points="127.498,-48.5 249.498,-48.5 "/>
<polyline fill="none" stroke="black" points="127.498,-24.5 249.498,-24.5 "/>
<text text-anchor="start" x="135.498" y="-7.9" font-family="Times,serif" font-size="14.00">_layout</text>
</g>
<!-- ApplicationController -->
<g id="node5" class="node"><title>ApplicationController</title>
<polyline fill="none" stroke="black" points="394.671,-838.788 614.671,-838.788 "/>
<path fill="none" stroke="black" d="M614.671,-838.788C620.671,-838.788 626.671,-844.788 626.671,-850.788"/>
<polyline fill="none" stroke="black" points="626.671,-850.788 626.671,-934.788 "/>
<path fill="none" stroke="black" d="M626.671,-934.788C626.671,-940.788 620.671,-946.788 614.671,-946.788"/>
<polyline fill="none" stroke="black" points="614.671,-946.788 394.671,-946.788 "/>
<path fill="none" stroke="black" d="M394.671,-946.788C388.671,-946.788 382.671,-940.788 382.671,-934.788"/>
<polyline fill="none" stroke="black" points="382.671,-934.788 382.671,-850.788 "/>
<path fill="none" stroke="black" d="M382.671,-850.788C382.671,-844.788 388.671,-838.788 394.671,-838.788"/>
<text text-anchor="middle" x="504.671" y="-930.188" font-family="Times,serif" font-size="14.00">ApplicationController</text>
<polyline fill="none" stroke="black" points="382.671,-923.788 626.671,-923.788 "/>
<text text-anchor="start" x="390.671" y="-907.188" font-family="Times,serif" font-size="14.00">_one_time_conditions_valid_152?</text>
<text text-anchor="start" x="390.671" y="-892.188" font-family="Times,serif" font-size="14.00">can_member_make_application_checks</text>
<polyline fill="none" stroke="black" points="382.671,-885.788 626.671,-885.788 "/>
<polyline fill="none" stroke="black" points="382.671,-861.788 626.671,-861.788 "/>
<text text-anchor="start" x="390.671" y="-845.188" font-family="Times,serif" font-size="14.00">_layout</text>
</g>
<!-- ApplicationController&#45;&gt;AboutUsController -->
<g id="edge2" class="edge"><title>ApplicationController&#45;&gt;AboutUsController</title>
<path fill="none" stroke="black" d="M457.238,-947.098C402.195,-1010.12 311.158,-1114.35 249.797,-1184.61"/>
</g>
<!-- ApplicationController&#45;&gt;AdminController -->
<g id="edge4" class="edge"><title>ApplicationController&#45;&gt;AdminController</title>
<path fill="none" stroke="black" d="M544.272,-946.991C583.62,-1000.85 645.303,-1085.27 696.407,-1155.22"/>
</g>
<!-- ApplicationController&#45;&gt;AdvertsController -->
<g id="edge6" class="edge"><title>ApplicationController&#45;&gt;AdvertsController</title>
<path fill="none" stroke="black" d="M499.995,-838.699C488.078,-723.16 449.136,-446.533 337.028,-246.652 314.886,-207.174 280.115,-170.427 249.781,-142.774"/>
</g>
<!-- ClientsController -->
<g id="node6" class="node"><title>ClientsController</title>
<polyline fill="none" stroke="black" points="724.409,-1485.48 915.409,-1485.48 "/>
<path fill="none" stroke="black" d="M915.409,-1485.48C921.409,-1485.48 927.409,-1491.48 927.409,-1497.48"/>
<polyline fill="none" stroke="black" points="927.409,-1497.48 927.409,-1881.48 "/>
<path fill="none" stroke="black" d="M927.409,-1881.48C927.409,-1887.48 921.409,-1893.48 915.409,-1893.48"/>
<polyline fill="none" stroke="black" points="915.409,-1893.48 724.409,-1893.48 "/>
<path fill="none" stroke="black" d="M724.409,-1893.48C718.409,-1893.48 712.409,-1887.48 712.409,-1881.48"/>
<polyline fill="none" stroke="black" points="712.409,-1881.48 712.409,-1497.48 "/>
<path fill="none" stroke="black" d="M712.409,-1497.48C712.409,-1491.48 718.409,-1485.48 724.409,-1485.48"/>
<text text-anchor="middle" x="819.909" y="-1876.88" font-family="Times,serif" font-size="14.00">ClientsController</text>
<polyline fill="none" stroke="black" points="712.409,-1870.48 927.409,-1870.48 "/>
<text text-anchor="start" x="720.409" y="-1853.88" font-family="Times,serif" font-size="14.00">_one_time_conditions_valid_156?</text>
<text text-anchor="start" x="720.409" y="-1838.88" font-family="Times,serif" font-size="14.00">add_job</text>
<text text-anchor="start" x="720.409" y="-1823.88" font-family="Times,serif" font-size="14.00">clean_select_multiple_params</text>
<text text-anchor="start" x="720.409" y="-1808.88" font-family="Times,serif" font-size="14.00">create_mentor</text>
<text text-anchor="start" x="720.409" y="-1793.88" font-family="Times,serif" font-size="14.00">create_project</text>
<text text-anchor="start" x="720.409" y="-1778.88" font-family="Times,serif" font-size="14.00">dashboard</text>
<text text-anchor="start" x="720.409" y="-1763.88" font-family="Times,serif" font-size="14.00">edit_job</text>
<text text-anchor="start" x="720.409" y="-1748.88" font-family="Times,serif" font-size="14.00">edit_mentor</text>
<text text-anchor="start" x="720.409" y="-1733.88" font-family="Times,serif" font-size="14.00">edit_project</text>
<text text-anchor="start" x="720.409" y="-1718.88" font-family="Times,serif" font-size="14.00">getMentorApplications</text>
<text text-anchor="start" x="720.409" y="-1703.88" font-family="Times,serif" font-size="14.00">getProjectApplications</text>
<text text-anchor="start" x="720.409" y="-1688.88" font-family="Times,serif" font-size="14.00">list_jobs</text>
<text text-anchor="start" x="720.409" y="-1673.88" font-family="Times,serif" font-size="14.00">list_mentors</text>
<text text-anchor="start" x="720.409" y="-1658.88" font-family="Times,serif" font-size="14.00">list_projects</text>
<text text-anchor="start" x="720.409" y="-1643.88" font-family="Times,serif" font-size="14.00">new_mentor</text>
<text text-anchor="start" x="720.409" y="-1628.88" font-family="Times,serif" font-size="14.00">new_project</text>
<text text-anchor="start" x="720.409" y="-1613.88" font-family="Times,serif" font-size="14.00">profile</text>
<text text-anchor="start" x="720.409" y="-1598.88" font-family="Times,serif" font-size="14.00">profile_update</text>
<text text-anchor="start" x="720.409" y="-1583.88" font-family="Times,serif" font-size="14.00">settings</text>
<text text-anchor="start" x="720.409" y="-1568.88" font-family="Times,serif" font-size="14.00">update_client</text>
<text text-anchor="start" x="720.409" y="-1553.88" font-family="Times,serif" font-size="14.00">update_mentor</text>
<text text-anchor="start" x="720.409" y="-1538.88" font-family="Times,serif" font-size="14.00">update_project</text>
<polyline fill="none" stroke="black" points="712.409,-1532.48 927.409,-1532.48 "/>
<polyline fill="none" stroke="black" points="712.409,-1508.48 927.409,-1508.48 "/>
<text text-anchor="start" x="720.409" y="-1491.88" font-family="Times,serif" font-size="14.00">_layout</text>
</g>
<!-- ApplicationController&#45;&gt;ClientsController -->
<g id="edge8" class="edge"><title>ApplicationController&#45;&gt;ClientsController</title>
<path fill="none" stroke="black" d="M519.805,-946.835C546.748,-1040.81 606.577,-1239.76 674.025,-1401.48 685.622,-1429.29 698.779,-1458.11 712.332,-1486.3"/>
</g>
<!-- EmployerProfilesController -->
<g id="node7" class="node"><title>EmployerProfilesController</title>
<polyline fill="none" stroke="black" points="123.376,-1594.55 279.376,-1594.55 "/>
<path fill="none" stroke="black" d="M279.376,-1594.55C285.376,-1594.55 291.376,-1600.55 291.376,-1606.55"/>
<polyline fill="none" stroke="black" points="291.376,-1606.55 291.376,-1765.55 "/>
<path fill="none" stroke="black" d="M291.376,-1765.55C291.376,-1771.55 285.376,-1777.55 279.376,-1777.55"/>
<polyline fill="none" stroke="black" points="279.376,-1777.55 123.376,-1777.55 "/>
<path fill="none" stroke="black" d="M123.376,-1777.55C117.376,-1777.55 111.376,-1771.55 111.376,-1765.55"/>
<polyline fill="none" stroke="black" points="111.376,-1765.55 111.376,-1606.55 "/>
<path fill="none" stroke="black" d="M111.376,-1606.55C111.376,-1600.55 117.376,-1594.55 123.376,-1594.55"/>
<text text-anchor="middle" x="201.376" y="-1760.95" font-family="Times,serif" font-size="14.00">EmployerProfilesController</text>
<polyline fill="none" stroke="black" points="111.376,-1754.55 291.376,-1754.55 "/>
<text text-anchor="start" x="119.376" y="-1737.95" font-family="Times,serif" font-size="14.00">create</text>
<text text-anchor="start" x="119.376" y="-1722.95" font-family="Times,serif" font-size="14.00">destroy</text>
<text text-anchor="start" x="119.376" y="-1707.95" font-family="Times,serif" font-size="14.00">edit</text>
<text text-anchor="start" x="119.376" y="-1692.95" font-family="Times,serif" font-size="14.00">index</text>
<text text-anchor="start" x="119.376" y="-1677.95" font-family="Times,serif" font-size="14.00">new</text>
<text text-anchor="start" x="119.376" y="-1662.95" font-family="Times,serif" font-size="14.00">show</text>
<text text-anchor="start" x="119.376" y="-1647.95" font-family="Times,serif" font-size="14.00">update</text>
<polyline fill="none" stroke="black" points="111.376,-1641.55 291.376,-1641.55 "/>
<polyline fill="none" stroke="black" points="111.376,-1617.55 291.376,-1617.55 "/>
<text text-anchor="start" x="119.376" y="-1600.95" font-family="Times,serif" font-size="14.00">_layout</text>
</g>
<!-- ApplicationController&#45;&gt;EmployerProfilesController -->
<g id="edge10" class="edge"><title>ApplicationController&#45;&gt;EmployerProfilesController</title>
<path fill="none" stroke="black" d="M483.943,-947C432.782,-1080.81 300.045,-1427.98 236.406,-1594.43"/>
</g>
<!-- MembersController -->
<g id="node8" class="node"><title>MembersController</title>
<polyline fill="none" stroke="black" points="130.828,-249.852 321.828,-249.852 "/>
<path fill="none" stroke="black" d="M321.828,-249.852C327.828,-249.852 333.828,-255.852 333.828,-261.852"/>
<polyline fill="none" stroke="black" points="333.828,-261.852 333.828,-750.852 "/>
<path fill="none" stroke="black" d="M333.828,-750.852C333.828,-756.852 327.828,-762.852 321.828,-762.852"/>
<polyline fill="none" stroke="black" points="321.828,-762.852 130.828,-762.852 "/>
<path fill="none" stroke="black" d="M130.828,-762.852C124.828,-762.852 118.828,-756.852 118.828,-750.852"/>
<polyline fill="none" stroke="black" points="118.828,-750.852 118.828,-261.852 "/>
<path fill="none" stroke="black" d="M118.828,-261.852C118.828,-255.852 124.828,-249.852 130.828,-249.852"/>
<text text-anchor="middle" x="226.328" y="-746.252" font-family="Times,serif" font-size="14.00">MembersController</text>
<polyline fill="none" stroke="black" points="118.828,-739.852 333.828,-739.852 "/>
<text text-anchor="start" x="126.828" y="-723.252" font-family="Times,serif" font-size="14.00">_one_time_conditions_valid_165?</text>
<text text-anchor="start" x="126.828" y="-708.252" font-family="Times,serif" font-size="14.00">_one_time_conditions_valid_167?</text>
<text text-anchor="start" x="126.828" y="-693.252" font-family="Times,serif" font-size="14.00">applications</text>
<text text-anchor="start" x="126.828" y="-678.252" font-family="Times,serif" font-size="14.00">checkEmail</text>
<text text-anchor="start" x="126.828" y="-663.252" font-family="Times,serif" font-size="14.00">clean_select_multiple_params</text>
<text text-anchor="start" x="126.828" y="-648.252" font-family="Times,serif" font-size="14.00">create_mentor</text>
<text text-anchor="start" x="126.828" y="-633.252" font-family="Times,serif" font-size="14.00">create_project</text>
<text text-anchor="start" x="126.828" y="-618.252" font-family="Times,serif" font-size="14.00">dashboard</text>
<text text-anchor="start" x="126.828" y="-603.252" font-family="Times,serif" font-size="14.00">destroy</text>
<text text-anchor="start" x="126.828" y="-588.252" font-family="Times,serif" font-size="14.00">destroy_mentor</text>
<text text-anchor="start" x="126.828" y="-573.252" font-family="Times,serif" font-size="14.00">edit_mentor</text>
<text text-anchor="start" x="126.828" y="-558.252" font-family="Times,serif" font-size="14.00">edit_project</text>
<text text-anchor="start" x="126.828" y="-543.252" font-family="Times,serif" font-size="14.00">getMemberJobApplications</text>
<text text-anchor="start" x="126.828" y="-528.252" font-family="Times,serif" font-size="14.00">getMemberMentorApplications</text>
<text text-anchor="start" x="126.828" y="-513.252" font-family="Times,serif" font-size="14.00">getMemberProjectApplications</text>
<text text-anchor="start" x="126.828" y="-498.252" font-family="Times,serif" font-size="14.00">getMentorId</text>
<text text-anchor="start" x="126.828" y="-483.252" font-family="Times,serif" font-size="14.00">list_internal_mentors</text>
<text text-anchor="start" x="126.828" y="-468.252" font-family="Times,serif" font-size="14.00">list_internal_projects</text>
<text text-anchor="start" x="126.828" y="-453.252" font-family="Times,serif" font-size="14.00">list_projects</text>
<text text-anchor="start" x="126.828" y="-438.252" font-family="Times,serif" font-size="14.00">new_mentor</text>
<text text-anchor="start" x="126.828" y="-423.252" font-family="Times,serif" font-size="14.00">new_project</text>
<text text-anchor="start" x="126.828" y="-408.252" font-family="Times,serif" font-size="14.00">profile</text>
<text text-anchor="start" x="126.828" y="-393.252" font-family="Times,serif" font-size="14.00">search_mentor</text>
<text text-anchor="start" x="126.828" y="-378.252" font-family="Times,serif" font-size="14.00">search_project</text>
<text text-anchor="start" x="126.828" y="-363.252" font-family="Times,serif" font-size="14.00">setVars</text>
<text text-anchor="start" x="126.828" y="-348.252" font-family="Times,serif" font-size="14.00">settings</text>
<text text-anchor="start" x="126.828" y="-333.252" font-family="Times,serif" font-size="14.00">update</text>
<text text-anchor="start" x="126.828" y="-318.252" font-family="Times,serif" font-size="14.00">update_mentor</text>
<text text-anchor="start" x="126.828" y="-303.252" font-family="Times,serif" font-size="14.00">update_project</text>
<polyline fill="none" stroke="black" points="118.828,-296.852 333.828,-296.852 "/>
<polyline fill="none" stroke="black" points="118.828,-272.852 333.828,-272.852 "/>
<text text-anchor="start" x="126.828" y="-256.252" font-family="Times,serif" font-size="14.00">_layout</text>
</g>
<!-- ApplicationController&#45;&gt;MembersController -->
<g id="edge12" class="edge"><title>ApplicationController&#45;&gt;MembersController</title>
<path fill="none" stroke="black" d="M465.675,-838.649C431.563,-791.289 380.368,-720.213 334.07,-655.936"/>
</g>
<!-- MentorsController -->
<g id="node9" class="node"><title>MentorsController</title>
<polyline fill="none" stroke="black" points="886.437,-808.682 986.437,-808.682 "/>
<path fill="none" stroke="black" d="M986.437,-808.682C992.437,-808.682 998.437,-814.682 998.437,-820.682"/>
<polyline fill="none" stroke="black" points="998.437,-820.682 998.437,-1009.68 "/>
<path fill="none" stroke="black" d="M998.437,-1009.68C998.437,-1015.68 992.437,-1021.68 986.437,-1021.68"/>
<polyline fill="none" stroke="black" points="986.437,-1021.68 886.437,-1021.68 "/>
<path fill="none" stroke="black" d="M886.437,-1021.68C880.437,-1021.68 874.437,-1015.68 874.437,-1009.68"/>
<polyline fill="none" stroke="black" points="874.437,-1009.68 874.437,-820.682 "/>
<path fill="none" stroke="black" d="M874.437,-820.682C874.437,-814.682 880.437,-808.682 886.437,-808.682"/>
<text text-anchor="middle" x="936.437" y="-1005.08" font-family="Times,serif" font-size="14.00">MentorsController</text>
<polyline fill="none" stroke="black" points="874.437,-998.682 998.437,-998.682 "/>
<text text-anchor="start" x="882.437" y="-982.082" font-family="Times,serif" font-size="14.00">apply</text>
<text text-anchor="start" x="882.437" y="-967.082" font-family="Times,serif" font-size="14.00">create</text>
<text text-anchor="start" x="882.437" y="-952.082" font-family="Times,serif" font-size="14.00">destroy</text>
<text text-anchor="start" x="882.437" y="-937.082" font-family="Times,serif" font-size="14.00">edit</text>
<text text-anchor="start" x="882.437" y="-922.082" font-family="Times,serif" font-size="14.00">index</text>
<text text-anchor="start" x="882.437" y="-907.082" font-family="Times,serif" font-size="14.00">new</text>
<text text-anchor="start" x="882.437" y="-892.082" font-family="Times,serif" font-size="14.00">search</text>
<text text-anchor="start" x="882.437" y="-877.082" font-family="Times,serif" font-size="14.00">show</text>
<text text-anchor="start" x="882.437" y="-862.082" font-family="Times,serif" font-size="14.00">update</text>
<polyline fill="none" stroke="black" points="874.437,-855.682 998.437,-855.682 "/>
<polyline fill="none" stroke="black" points="874.437,-831.682 998.437,-831.682 "/>
<text text-anchor="start" x="882.437" y="-815.082" font-family="Times,serif" font-size="14.00">_layout</text>
</g>
<!-- ApplicationController&#45;&gt;MentorsController -->
<g id="edge14" class="edge"><title>ApplicationController&#45;&gt;MentorsController</title>
<path fill="none" stroke="black" d="M626.954,-899.131C707.617,-903.314 809.899,-908.619 874.279,-911.958"/>
</g>
<!-- PagesController -->
<g id="node10" class="node"><title>PagesController</title>
<polyline fill="none" stroke="black" points="13,-775.3 132,-775.3 "/>
<path fill="none" stroke="black" d="M132,-775.3C138,-775.3 144,-781.3 144,-787.3"/>
<polyline fill="none" stroke="black" points="144,-787.3 144,-946.3 "/>
<path fill="none" stroke="black" d="M144,-946.3C144,-952.3 138,-958.3 132,-958.3"/>
<polyline fill="none" stroke="black" points="132,-958.3 13,-958.3 "/>
<path fill="none" stroke="black" d="M13,-958.3C7,-958.3 1,-952.3 1,-946.3"/>
<polyline fill="none" stroke="black" points="1,-946.3 1,-787.3 "/>
<path fill="none" stroke="black" d="M1,-787.3C1,-781.3 7,-775.3 13,-775.3"/>
<text text-anchor="middle" x="72.5" y="-941.7" font-family="Times,serif" font-size="14.00">PagesController</text>
<polyline fill="none" stroke="black" points="1,-935.3 144,-935.3 "/>
<text text-anchor="start" x="9" y="-918.7" font-family="Times,serif" font-size="14.00">confirmation</text>
<text text-anchor="start" x="9" y="-903.7" font-family="Times,serif" font-size="14.00">contact_us</text>
<text text-anchor="start" x="9" y="-888.7" font-family="Times,serif" font-size="14.00">home</text>
<text text-anchor="start" x="9" y="-873.7" font-family="Times,serif" font-size="14.00">our_policy</text>
<text text-anchor="start" x="9" y="-858.7" font-family="Times,serif" font-size="14.00">register</text>
<text text-anchor="start" x="9" y="-843.7" font-family="Times,serif" font-size="14.00">terms_and_conditions</text>
<text text-anchor="start" x="9" y="-828.7" font-family="Times,serif" font-size="14.00">terms_of_use</text>
<polyline fill="none" stroke="black" points="1,-822.3 144,-822.3 "/>
<polyline fill="none" stroke="black" points="1,-798.3 144,-798.3 "/>
<text text-anchor="start" x="9" y="-781.7" font-family="Times,serif" font-size="14.00">_layout</text>
</g>
<!-- ApplicationController&#45;&gt;PagesController -->
<g id="edge16" class="edge"><title>ApplicationController&#45;&gt;PagesController</title>
<path fill="none" stroke="black" d="M382.561,-885.445C305.558,-880.815 208.781,-874.995 144.015,-871.1"/>
</g>
<!-- ProjectsController -->
<g id="node11" class="node"><title>ProjectsController</title>
<polyline fill="none" stroke="black" points="774.246,-418.276 873.246,-418.276 "/>
<path fill="none" stroke="black" d="M873.246,-418.276C879.246,-418.276 885.246,-424.276 885.246,-430.276"/>
<polyline fill="none" stroke="black" points="885.246,-430.276 885.246,-619.276 "/>
<path fill="none" stroke="black" d="M885.246,-619.276C885.246,-625.276 879.246,-631.276 873.246,-631.276"/>
<polyline fill="none" stroke="black" points="873.246,-631.276 774.246,-631.276 "/>
<path fill="none" stroke="black" d="M774.246,-631.276C768.246,-631.276 762.246,-625.276 762.246,-619.276"/>
<polyline fill="none" stroke="black" points="762.246,-619.276 762.246,-430.276 "/>
<path fill="none" stroke="black" d="M762.246,-430.276C762.246,-424.276 768.246,-418.276 774.246,-418.276"/>
<text text-anchor="middle" x="823.746" y="-614.676" font-family="Times,serif" font-size="14.00">ProjectsController</text>
<polyline fill="none" stroke="black" points="762.246,-608.276 885.246,-608.276 "/>
<text text-anchor="start" x="770.246" y="-591.676" font-family="Times,serif" font-size="14.00">apply</text>
<text text-anchor="start" x="770.246" y="-576.676" font-family="Times,serif" font-size="14.00">create</text>
<text text-anchor="start" x="770.246" y="-561.676" font-family="Times,serif" font-size="14.00">destroy</text>
<text text-anchor="start" x="770.246" y="-546.676" font-family="Times,serif" font-size="14.00">edit</text>
<text text-anchor="start" x="770.246" y="-531.676" font-family="Times,serif" font-size="14.00">index</text>
<text text-anchor="start" x="770.246" y="-516.676" font-family="Times,serif" font-size="14.00">new</text>
<text text-anchor="start" x="770.246" y="-501.676" font-family="Times,serif" font-size="14.00">search</text>
<text text-anchor="start" x="770.246" y="-486.676" font-family="Times,serif" font-size="14.00">show</text>
<text text-anchor="start" x="770.246" y="-471.676" font-family="Times,serif" font-size="14.00">update</text>
<polyline fill="none" stroke="black" points="762.246,-465.276 885.246,-465.276 "/>
<polyline fill="none" stroke="black" points="762.246,-441.276 885.246,-441.276 "/>
<text text-anchor="start" x="770.246" y="-424.676" font-family="Times,serif" font-size="14.00">_layout</text>
</g>
<!-- ApplicationController&#45;&gt;ProjectsController -->
<g id="edge18" class="edge"><title>ApplicationController&#45;&gt;ProjectsController</title>
<path fill="none" stroke="black" d="M551.751,-838.487C607.571,-774.106 700.76,-666.624 762.237,-595.719"/>
</g>
<!-- TeamsController -->
<g id="node12" class="node"><title>TeamsController</title>
<polyline fill="none" stroke="black" points="762.02,-4.47914 853.02,-4.47914 "/>
<path fill="none" stroke="black" d="M853.02,-4.47914C859.02,-4.47914 865.02,-10.4791 865.02,-16.4791"/>
<polyline fill="none" stroke="black" points="865.02,-16.4791 865.02,-175.479 "/>
<path fill="none" stroke="black" d="M865.02,-175.479C865.02,-181.479 859.02,-187.479 853.02,-187.479"/>
<polyline fill="none" stroke="black" points="853.02,-187.479 762.02,-187.479 "/>
<path fill="none" stroke="black" d="M762.02,-187.479C756.02,-187.479 750.02,-181.479 750.02,-175.479"/>
<polyline fill="none" stroke="black" points="750.02,-175.479 750.02,-16.4791 "/>
<path fill="none" stroke="black" d="M750.02,-16.4791C750.02,-10.4791 756.02,-4.47914 762.02,-4.47914"/>
<text text-anchor="middle" x="807.52" y="-170.879" font-family="Times,serif" font-size="14.00">TeamsController</text>
<polyline fill="none" stroke="black" points="750.02,-164.479 865.02,-164.479 "/>
<text text-anchor="start" x="758.02" y="-147.879" font-family="Times,serif" font-size="14.00">create</text>
<text text-anchor="start" x="758.02" y="-132.879" font-family="Times,serif" font-size="14.00">destroy</text>
<text text-anchor="start" x="758.02" y="-117.879" font-family="Times,serif" font-size="14.00">edit</text>
<text text-anchor="start" x="758.02" y="-102.879" font-family="Times,serif" font-size="14.00">index</text>
<text text-anchor="start" x="758.02" y="-87.8791" font-family="Times,serif" font-size="14.00">new</text>
<text text-anchor="start" x="758.02" y="-72.8791" font-family="Times,serif" font-size="14.00">show</text>
<text text-anchor="start" x="758.02" y="-57.8791" font-family="Times,serif" font-size="14.00">update</text>
<polyline fill="none" stroke="black" points="750.02,-51.4791 865.02,-51.4791 "/>
<polyline fill="none" stroke="black" points="750.02,-27.4791 865.02,-27.4791 "/>
<text text-anchor="start" x="758.02" y="-10.8791" font-family="Times,serif" font-size="14.00">_layout</text>
</g>
<!-- ApplicationController&#45;&gt;TeamsController -->
<g id="edge20" class="edge"><title>ApplicationController&#45;&gt;TeamsController</title>
<path fill="none" stroke="black" d="M525.249,-838.647C576.271,-704.404 709.068,-355.012 772.629,-187.781"/>
</g>
</g>
</svg>
