<?xml version="1.0" encoding="UTF-8" standalone="no"?>
<!DOCTYPE svg PUBLIC "-//W3C//DTD SVG 1.1//EN"
 "http://www.w3.org/Graphics/SVG/1.1/DTD/svg11.dtd">
<!-- Generated by graphviz version 2.26.3 (20100126.1600)
 -->
<!-- Title: controllers_diagram Pages: 1 -->
<svg width="1204pt" height="2066pt"
 viewBox="0.00 0.00 1204.00 2066.47" xmlns="http://www.w3.org/2000/svg" xmlns:xlink="http://www.w3.org/1999/xlink">
<g id="graph1" class="graph" transform="scale(1 1) rotate(0) translate(4 2062.47)">
<title>controllers_diagram</title>
<polygon fill="white" stroke="white" points="-4,5 -4,-2062.47 1201,-2062.47 1201,5 -4,5"/>
<!-- _diagram_info -->
<g id="node1" class="node"><title>_diagram_info</title>
<text text-anchor="start" x="9" y="-1576.3" font-family="Times,serif" font-size="13.00">Controllers diagram</text>
<text text-anchor="start" x="9" y="-1562.3" font-family="Times,serif" font-size="13.00">Date: Aug 21 2013 &#45; 00:35</text>
<text text-anchor="start" x="9" y="-1548.3" font-family="Times,serif" font-size="13.00">Migration version: 20130820233158</text>
<text text-anchor="start" x="9" y="-1534.3" font-family="Times,serif" font-size="13.00">Generated by RailRoady 1.1.0</text>
<text text-anchor="start" x="9" y="-1520.3" font-family="Times,serif" font-size="13.00">http://railroady.prestonlee.com</text>
</g>
<!-- AboutUsController -->
<g id="node2" class="node"><title>AboutUsController</title>
<polyline fill="none" stroke="black" points="84.4008,-1211.88 188.401,-1211.88 "/>
<path fill="none" stroke="black" d="M188.401,-1211.88C194.401,-1211.88 200.401,-1217.88 200.401,-1223.88"/>
<polyline fill="none" stroke="black" points="200.401,-1223.88 200.401,-1337.88 "/>
<path fill="none" stroke="black" d="M200.401,-1337.88C200.401,-1343.88 194.401,-1349.88 188.401,-1349.88"/>
<polyline fill="none" stroke="black" points="188.401,-1349.88 84.4008,-1349.88 "/>
<path fill="none" stroke="black" d="M84.4008,-1349.88C78.4008,-1349.88 72.4008,-1343.88 72.4008,-1337.88"/>
<polyline fill="none" stroke="black" points="72.4008,-1337.88 72.4008,-1223.88 "/>
<path fill="none" stroke="black" d="M72.4008,-1223.88C72.4008,-1217.88 78.4008,-1211.88 84.4008,-1211.88"/>
<text text-anchor="middle" x="136.401" y="-1333.28" font-family="Times,serif" font-size="14.00">AboutUsController</text>
<polyline fill="none" stroke="black" points="72.4008,-1326.88 200.401,-1326.88 "/>
<text text-anchor="start" x="80.4008" y="-1310.28" font-family="Times,serif" font-size="14.00">how_it_works</text>
<text text-anchor="start" x="80.4008" y="-1295.28" font-family="Times,serif" font-size="14.00">index</text>
<text text-anchor="start" x="80.4008" y="-1280.28" font-family="Times,serif" font-size="14.00">meet_the_team</text>
<text text-anchor="start" x="80.4008" y="-1265.28" font-family="Times,serif" font-size="14.00">our_philosophy</text>
<polyline fill="none" stroke="black" points="72.4008,-1258.88 200.401,-1258.88 "/>
<polyline fill="none" stroke="black" points="72.4008,-1234.88 200.401,-1234.88 "/>
<text text-anchor="start" x="80.4008" y="-1218.28" font-family="Times,serif" font-size="14.00">_layout</text>
</g>
<!-- AdminController -->
<g id="node3" class="node"><title>AdminController</title>
<polyline fill="none" stroke="black" points="642.249,-957.299 833.249,-957.299 "/>
<path fill="none" stroke="black" d="M833.249,-957.299C839.249,-957.299 845.249,-963.299 845.249,-969.299"/>
<polyline fill="none" stroke="black" points="845.249,-969.299 845.249,-1623.3 "/>
<path fill="none" stroke="black" d="M845.249,-1623.3C845.249,-1629.3 839.249,-1635.3 833.249,-1635.3"/>
<polyline fill="none" stroke="black" points="833.249,-1635.3 642.249,-1635.3 "/>
<path fill="none" stroke="black" d="M642.249,-1635.3C636.249,-1635.3 630.249,-1629.3 630.249,-1623.3"/>
<polyline fill="none" stroke="black" points="630.249,-1623.3 630.249,-969.299 "/>
<path fill="none" stroke="black" d="M630.249,-969.299C630.249,-963.299 636.249,-957.299 642.249,-957.299"/>
<text text-anchor="middle" x="737.749" y="-1618.7" font-family="Times,serif" font-size="14.00">AdminController</text>
<polyline fill="none" stroke="black" points="630.249,-1612.3 845.249,-1612.3 "/>
<text text-anchor="start" x="638.249" y="-1595.7" font-family="Times,serif" font-size="14.00">_one_time_conditions_valid_230?</text>
<text text-anchor="start" x="638.249" y="-1580.7" font-family="Times,serif" font-size="14.00">_one_time_conditions_valid_232?</text>
<text text-anchor="start" x="638.249" y="-1565.7" font-family="Times,serif" font-size="14.00">_one_time_conditions_valid_234?</text>
<text text-anchor="start" x="638.249" y="-1550.7" font-family="Times,serif" font-size="14.00">adverts</text>
<text text-anchor="start" x="638.249" y="-1535.7" font-family="Times,serif" font-size="14.00">clean_select_multiple_params</text>
<text text-anchor="start" x="638.249" y="-1520.7" font-family="Times,serif" font-size="14.00">create_employer_profile</text>
<text text-anchor="start" x="638.249" y="-1505.7" font-family="Times,serif" font-size="14.00">create_jobs</text>
<text text-anchor="start" x="638.249" y="-1490.7" font-family="Times,serif" font-size="14.00">create_mentor</text>
<text text-anchor="start" x="638.249" y="-1475.7" font-family="Times,serif" font-size="14.00">create_project</text>
<text text-anchor="start" x="638.249" y="-1460.7" font-family="Times,serif" font-size="14.00">dashboard</text>
<text text-anchor="start" x="638.249" y="-1445.7" font-family="Times,serif" font-size="14.00">destroy_client</text>
<text text-anchor="start" x="638.249" y="-1430.7" font-family="Times,serif" font-size="14.00">edit_client</text>
<text text-anchor="start" x="638.249" y="-1415.7" font-family="Times,serif" font-size="14.00">edit_employer_profile</text>
<text text-anchor="start" x="638.249" y="-1400.7" font-family="Times,serif" font-size="14.00">edit_jobs</text>
<text text-anchor="start" x="638.249" y="-1385.7" font-family="Times,serif" font-size="14.00">edit_member</text>
<text text-anchor="start" x="638.249" y="-1370.7" font-family="Times,serif" font-size="14.00">edit_mentor</text>
<text text-anchor="start" x="638.249" y="-1355.7" font-family="Times,serif" font-size="14.00">edit_project</text>
<text text-anchor="start" x="638.249" y="-1340.7" font-family="Times,serif" font-size="14.00">getMentorApplications</text>
<text text-anchor="start" x="638.249" y="-1325.7" font-family="Times,serif" font-size="14.00">getProjectApplications</text>
<text text-anchor="start" x="638.249" y="-1310.7" font-family="Times,serif" font-size="14.00">list_clients</text>
<text text-anchor="start" x="638.249" y="-1295.7" font-family="Times,serif" font-size="14.00">list_employer_profiles</text>
<text text-anchor="start" x="638.249" y="-1280.7" font-family="Times,serif" font-size="14.00">list_jobs</text>
<text text-anchor="start" x="638.249" y="-1265.7" font-family="Times,serif" font-size="14.00">list_members</text>
<text text-anchor="start" x="638.249" y="-1250.7" font-family="Times,serif" font-size="14.00">list_mentors</text>
<text text-anchor="start" x="638.249" y="-1235.7" font-family="Times,serif" font-size="14.00">list_projects</text>
<text text-anchor="start" x="638.249" y="-1220.7" font-family="Times,serif" font-size="14.00">login</text>
<text text-anchor="start" x="638.249" y="-1205.7" font-family="Times,serif" font-size="14.00">members</text>
<text text-anchor="start" x="638.249" y="-1190.7" font-family="Times,serif" font-size="14.00">new_employer_profile</text>
<text text-anchor="start" x="638.249" y="-1175.7" font-family="Times,serif" font-size="14.00">new_jobs</text>
<text text-anchor="start" x="638.249" y="-1160.7" font-family="Times,serif" font-size="14.00">new_mentor</text>
<text text-anchor="start" x="638.249" y="-1145.7" font-family="Times,serif" font-size="14.00">new_project</text>
<text text-anchor="start" x="638.249" y="-1130.7" font-family="Times,serif" font-size="14.00">setVars</text>
<text text-anchor="start" x="638.249" y="-1115.7" font-family="Times,serif" font-size="14.00">team</text>
<text text-anchor="start" x="638.249" y="-1100.7" font-family="Times,serif" font-size="14.00">update_client</text>
<text text-anchor="start" x="638.249" y="-1085.7" font-family="Times,serif" font-size="14.00">update_employer_profile</text>
<text text-anchor="start" x="638.249" y="-1070.7" font-family="Times,serif" font-size="14.00">update_jobs</text>
<text text-anchor="start" x="638.249" y="-1055.7" font-family="Times,serif" font-size="14.00">update_member</text>
<text text-anchor="start" x="638.249" y="-1040.7" font-family="Times,serif" font-size="14.00">update_mentor</text>
<text text-anchor="start" x="638.249" y="-1025.7" font-family="Times,serif" font-size="14.00">update_project</text>
<polyline fill="none" stroke="black" points="630.249,-1019.3 845.249,-1019.3 "/>
<polyline fill="none" stroke="black" points="630.249,-995.299 845.249,-995.299 "/>
<text text-anchor="start" x="638.249" y="-978.699" font-family="Times,serif" font-size="14.00">_layout</text>
<text text-anchor="start" x="638.249" y="-963.699" font-family="Times,serif" font-size="14.00">catch_not_found</text>
</g>
<!-- AdvertsController -->
<g id="node4" class="node"><title>AdvertsController</title>
<polyline fill="none" stroke="black" points="401.096,-392.685 499.096,-392.685 "/>
<path fill="none" stroke="black" d="M499.096,-392.685C505.096,-392.685 511.096,-398.685 511.096,-404.685"/>
<polyline fill="none" stroke="black" points="511.096,-404.685 511.096,-563.685 "/>
<path fill="none" stroke="black" d="M511.096,-563.685C511.096,-569.685 505.096,-575.685 499.096,-575.685"/>
<polyline fill="none" stroke="black" points="499.096,-575.685 401.096,-575.685 "/>
<path fill="none" stroke="black" d="M401.096,-575.685C395.096,-575.685 389.096,-569.685 389.096,-563.685"/>
<polyline fill="none" stroke="black" points="389.096,-563.685 389.096,-404.685 "/>
<path fill="none" stroke="black" d="M389.096,-404.685C389.096,-398.685 395.096,-392.685 401.096,-392.685"/>
<text text-anchor="middle" x="450.096" y="-559.085" font-family="Times,serif" font-size="14.00">AdvertsController</text>
<polyline fill="none" stroke="black" points="389.096,-552.685 511.096,-552.685 "/>
<text text-anchor="start" x="397.096" y="-536.085" font-family="Times,serif" font-size="14.00">create</text>
<text text-anchor="start" x="397.096" y="-521.085" font-family="Times,serif" font-size="14.00">destroy</text>
<text text-anchor="start" x="397.096" y="-506.085" font-family="Times,serif" font-size="14.00">edit</text>
<text text-anchor="start" x="397.096" y="-491.085" font-family="Times,serif" font-size="14.00">index</text>
<text text-anchor="start" x="397.096" y="-476.085" font-family="Times,serif" font-size="14.00">new</text>
<text text-anchor="start" x="397.096" y="-461.085" font-family="Times,serif" font-size="14.00">show</text>
<text text-anchor="start" x="397.096" y="-446.085" font-family="Times,serif" font-size="14.00">update</text>
<polyline fill="none" stroke="black" points="389.096,-439.685 511.096,-439.685 "/>
<polyline fill="none" stroke="black" points="389.096,-415.685 511.096,-415.685 "/>
<text text-anchor="start" x="397.096" y="-399.085" font-family="Times,serif" font-size="14.00">_layout</text>
</g>
<!-- ApplicationController -->
<g id="node5" class="node"><title>ApplicationController</title>
<polyline fill="none" stroke="black" points="345.006,-869.906 536.006,-869.906 "/>
<path fill="none" stroke="black" d="M536.006,-869.906C542.006,-869.906 548.006,-875.906 548.006,-881.906"/>
<polyline fill="none" stroke="black" points="548.006,-881.906 548.006,-995.906 "/>
<path fill="none" stroke="black" d="M548.006,-995.906C548.006,-1001.91 542.006,-1007.91 536.006,-1007.91"/>
<polyline fill="none" stroke="black" points="536.006,-1007.91 345.006,-1007.91 "/>
<path fill="none" stroke="black" d="M345.006,-1007.91C339.006,-1007.91 333.006,-1001.91 333.006,-995.906"/>
<polyline fill="none" stroke="black" points="333.006,-995.906 333.006,-881.906 "/>
<path fill="none" stroke="black" d="M333.006,-881.906C333.006,-875.906 339.006,-869.906 345.006,-869.906"/>
<text text-anchor="middle" x="440.506" y="-991.306" font-family="Times,serif" font-size="14.00">ApplicationController</text>
<polyline fill="none" stroke="black" points="333.006,-984.906 548.006,-984.906 "/>
<text text-anchor="start" x="341.006" y="-968.306" font-family="Times,serif" font-size="14.00">_one_time_conditions_valid_226?</text>
<text text-anchor="start" x="341.006" y="-953.306" font-family="Times,serif" font-size="14.00">mentor</text>
<text text-anchor="start" x="341.006" y="-938.306" font-family="Times,serif" font-size="14.00">project</text>
<text text-anchor="start" x="341.006" y="-923.306" font-family="Times,serif" font-size="14.00">require_login</text>
<polyline fill="none" stroke="black" points="333.006,-916.906 548.006,-916.906 "/>
<polyline fill="none" stroke="black" points="333.006,-892.906 548.006,-892.906 "/>
<text text-anchor="start" x="341.006" y="-876.306" font-family="Times,serif" font-size="14.00">_layout</text>
</g>
<!-- ApplicationController&#45;&gt;AboutUsController -->
<g id="edge2" class="edge"><title>ApplicationController&#45;&gt;AboutUsController</title>
<path fill="none" stroke="black" d="M378.965,-1008.11C326.205,-1067.44 250.584,-1152.48 197.849,-1211.78"/>
</g>
<!-- ApplicationController&#45;&gt;AdminController -->
<g id="edge4" class="edge"><title>ApplicationController&#45;&gt;AdminController</title>
<path fill="none" stroke="black" d="M498.17,-1008.24C535.565,-1053.2 585.444,-1113.17 630.006,-1166.75"/>
</g>
<!-- ApplicationController&#45;&gt;AdvertsController -->
<g id="edge6" class="edge"><title>ApplicationController&#45;&gt;AdvertsController</title>
<path fill="none" stroke="black" d="M441.962,-869.844C443.618,-791.333 446.328,-662.829 448.161,-575.948"/>
</g>
<!-- ClientsController -->
<g id="node6" class="node"><title>ClientsController</title>
<polyline fill="none" stroke="black" points="628.92,-1648.97 819.92,-1648.97 "/>
<path fill="none" stroke="black" d="M819.92,-1648.97C825.92,-1648.97 831.92,-1654.97 831.92,-1660.97"/>
<polyline fill="none" stroke="black" points="831.92,-1660.97 831.92,-2044.97 "/>
<path fill="none" stroke="black" d="M831.92,-2044.97C831.92,-2050.97 825.92,-2056.97 819.92,-2056.97"/>
<polyline fill="none" stroke="black" points="819.92,-2056.97 628.92,-2056.97 "/>
<path fill="none" stroke="black" d="M628.92,-2056.97C622.92,-2056.97 616.92,-2050.97 616.92,-2044.97"/>
<polyline fill="none" stroke="black" points="616.92,-2044.97 616.92,-1660.97 "/>
<path fill="none" stroke="black" d="M616.92,-1660.97C616.92,-1654.97 622.92,-1648.97 628.92,-1648.97"/>
<text text-anchor="middle" x="724.42" y="-2040.37" font-family="Times,serif" font-size="14.00">ClientsController</text>
<polyline fill="none" stroke="black" points="616.92,-2033.97 831.92,-2033.97 "/>
<text text-anchor="start" x="624.92" y="-2017.37" font-family="Times,serif" font-size="14.00">_one_time_conditions_valid_236?</text>
<text text-anchor="start" x="624.92" y="-2002.37" font-family="Times,serif" font-size="14.00">add_job</text>
<text text-anchor="start" x="624.92" y="-1987.37" font-family="Times,serif" font-size="14.00">clean_select_multiple_params</text>
<text text-anchor="start" x="624.92" y="-1972.37" font-family="Times,serif" font-size="14.00">create_mentor</text>
<text text-anchor="start" x="624.92" y="-1957.37" font-family="Times,serif" font-size="14.00">create_project</text>
<text text-anchor="start" x="624.92" y="-1942.37" font-family="Times,serif" font-size="14.00">dashboard</text>
<text text-anchor="start" x="624.92" y="-1927.37" font-family="Times,serif" font-size="14.00">edit_job</text>
<text text-anchor="start" x="624.92" y="-1912.37" font-family="Times,serif" font-size="14.00">edit_mentor</text>
<text text-anchor="start" x="624.92" y="-1897.37" font-family="Times,serif" font-size="14.00">edit_project</text>
<text text-anchor="start" x="624.92" y="-1882.37" font-family="Times,serif" font-size="14.00">getMentorApplications</text>
<text text-anchor="start" x="624.92" y="-1867.37" font-family="Times,serif" font-size="14.00">getProjectApplications</text>
<text text-anchor="start" x="624.92" y="-1852.37" font-family="Times,serif" font-size="14.00">list_jobs</text>
<text text-anchor="start" x="624.92" y="-1837.37" font-family="Times,serif" font-size="14.00">list_mentors</text>
<text text-anchor="start" x="624.92" y="-1822.37" font-family="Times,serif" font-size="14.00">list_projects</text>
<text text-anchor="start" x="624.92" y="-1807.37" font-family="Times,serif" font-size="14.00">new_mentor</text>
<text text-anchor="start" x="624.92" y="-1792.37" font-family="Times,serif" font-size="14.00">new_project</text>
<text text-anchor="start" x="624.92" y="-1777.37" font-family="Times,serif" font-size="14.00">profile</text>
<text text-anchor="start" x="624.92" y="-1762.37" font-family="Times,serif" font-size="14.00">profile_update</text>
<text text-anchor="start" x="624.92" y="-1747.37" font-family="Times,serif" font-size="14.00">settings</text>
<text text-anchor="start" x="624.92" y="-1732.37" font-family="Times,serif" font-size="14.00">update_client</text>
<text text-anchor="start" x="624.92" y="-1717.37" font-family="Times,serif" font-size="14.00">update_mentor</text>
<text text-anchor="start" x="624.92" y="-1702.37" font-family="Times,serif" font-size="14.00">update_project</text>
<polyline fill="none" stroke="black" points="616.92,-1695.97 831.92,-1695.97 "/>
<polyline fill="none" stroke="black" points="616.92,-1671.97 831.92,-1671.97 "/>
<text text-anchor="start" x="624.92" y="-1655.37" font-family="Times,serif" font-size="14.00">_layout</text>
</g>
<!-- ApplicationController&#45;&gt;ClientsController -->
<g id="edge8" class="edge"><title>ApplicationController&#45;&gt;ClientsController</title>
<path fill="none" stroke="black" d="M454.951,-1008.08C482.329,-1134.99 546.323,-1412.72 627.049,-1638.5 628.288,-1641.96 629.56,-1645.45 630.862,-1648.95"/>
</g>
<!-- EmployerProfilesController -->
<g id="node7" class="node"><title>EmployerProfilesController</title>
<polyline fill="none" stroke="black" points="63.1675,-1730.87 254.167,-1730.87 "/>
<path fill="none" stroke="black" d="M254.167,-1730.87C260.167,-1730.87 266.167,-1736.87 266.167,-1742.87"/>
<polyline fill="none" stroke="black" points="266.167,-1742.87 266.167,-1946.87 "/>
<path fill="none" stroke="black" d="M266.167,-1946.87C266.167,-1952.87 260.167,-1958.87 254.167,-1958.87"/>
<polyline fill="none" stroke="black" points="254.167,-1958.87 63.1675,-1958.87 "/>
<path fill="none" stroke="black" d="M63.1675,-1958.87C57.1675,-1958.87 51.1675,-1952.87 51.1675,-1946.87"/>
<polyline fill="none" stroke="black" points="51.1675,-1946.87 51.1675,-1742.87 "/>
<path fill="none" stroke="black" d="M51.1675,-1742.87C51.1675,-1736.87 57.1675,-1730.87 63.1675,-1730.87"/>
<text text-anchor="middle" x="158.667" y="-1942.27" font-family="Times,serif" font-size="14.00">EmployerProfilesController</text>
<polyline fill="none" stroke="black" points="51.1675,-1935.87 266.167,-1935.87 "/>
<text text-anchor="start" x="59.1675" y="-1919.27" font-family="Times,serif" font-size="14.00">_one_time_conditions_valid_279?</text>
<text text-anchor="start" x="59.1675" y="-1904.27" font-family="Times,serif" font-size="14.00">create</text>
<text text-anchor="start" x="59.1675" y="-1889.27" font-family="Times,serif" font-size="14.00">destroy</text>
<text text-anchor="start" x="59.1675" y="-1874.27" font-family="Times,serif" font-size="14.00">edit</text>
<text text-anchor="start" x="59.1675" y="-1859.27" font-family="Times,serif" font-size="14.00">index</text>
<text text-anchor="start" x="59.1675" y="-1844.27" font-family="Times,serif" font-size="14.00">new</text>
<text text-anchor="start" x="59.1675" y="-1829.27" font-family="Times,serif" font-size="14.00">search</text>
<text text-anchor="start" x="59.1675" y="-1814.27" font-family="Times,serif" font-size="14.00">setVars</text>
<text text-anchor="start" x="59.1675" y="-1799.27" font-family="Times,serif" font-size="14.00">show</text>
<text text-anchor="start" x="59.1675" y="-1784.27" font-family="Times,serif" font-size="14.00">update</text>
<polyline fill="none" stroke="black" points="51.1675,-1777.87 266.167,-1777.87 "/>
<polyline fill="none" stroke="black" points="51.1675,-1753.87 266.167,-1753.87 "/>
<text text-anchor="start" x="59.1675" y="-1737.27" font-family="Times,serif" font-size="14.00">_layout</text>
</g>
<!-- ApplicationController&#45;&gt;EmployerProfilesController -->
<g id="edge10" class="edge"><title>ApplicationController&#45;&gt;EmployerProfilesController</title>
<path fill="none" stroke="black" d="M418.975,-1008.12C370.72,-1163.23 253.511,-1539.99 194.241,-1730.52"/>
</g>
<!-- MentorsController -->
<g id="node9" class="node"><title>MentorsController</title>
<polyline fill="none" stroke="black" points="13,-628.618 113,-628.618 "/>
<path fill="none" stroke="black" d="M113,-628.618C119,-628.618 125,-634.618 125,-640.618"/>
<polyline fill="none" stroke="black" points="125,-640.618 125,-814.618 "/>
<path fill="none" stroke="black" d="M125,-814.618C125,-820.618 119,-826.618 113,-826.618"/>
<polyline fill="none" stroke="black" points="113,-826.618 13,-826.618 "/>
<path fill="none" stroke="black" d="M13,-826.618C7,-826.618 1,-820.618 1,-814.618"/>
<polyline fill="none" stroke="black" points="1,-814.618 1,-640.618 "/>
<path fill="none" stroke="black" d="M1,-640.618C1,-634.618 7,-628.618 13,-628.618"/>
<text text-anchor="middle" x="63" y="-810.018" font-family="Times,serif" font-size="14.00">MentorsController</text>
<polyline fill="none" stroke="black" points="1,-803.618 125,-803.618 "/>
<text text-anchor="start" x="9" y="-787.018" font-family="Times,serif" font-size="14.00">create</text>
<text text-anchor="start" x="9" y="-772.018" font-family="Times,serif" font-size="14.00">destroy</text>
<text text-anchor="start" x="9" y="-757.018" font-family="Times,serif" font-size="14.00">edit</text>
<text text-anchor="start" x="9" y="-742.018" font-family="Times,serif" font-size="14.00">index</text>
<text text-anchor="start" x="9" y="-727.018" font-family="Times,serif" font-size="14.00">new</text>
<text text-anchor="start" x="9" y="-712.018" font-family="Times,serif" font-size="14.00">search</text>
<text text-anchor="start" x="9" y="-697.018" font-family="Times,serif" font-size="14.00">show</text>
<text text-anchor="start" x="9" y="-682.018" font-family="Times,serif" font-size="14.00">update</text>
<polyline fill="none" stroke="black" points="1,-675.618 125,-675.618 "/>
<polyline fill="none" stroke="black" points="1,-651.618 125,-651.618 "/>
<text text-anchor="start" x="9" y="-635.018" font-family="Times,serif" font-size="14.00">_layout</text>
</g>
<!-- ApplicationController&#45;&gt;MentorsController -->
<g id="edge12" class="edge"><title>ApplicationController&#45;&gt;MentorsController</title>
<path fill="none" stroke="black" d="M332.833,-878.642C265.601,-841.013 181.425,-793.9 125.133,-762.394"/>
</g>
<!-- PagesController -->
<g id="node10" class="node"><title>PagesController</title>
<polyline fill="none" stroke="black" points="764.001,-633.088 883.001,-633.088 "/>
<path fill="none" stroke="black" d="M883.001,-633.088C889.001,-633.088 895.001,-639.088 895.001,-645.088"/>
<polyline fill="none" stroke="black" points="895.001,-645.088 895.001,-849.088 "/>
<path fill="none" stroke="black" d="M895.001,-849.088C895.001,-855.088 889.001,-861.088 883.001,-861.088"/>
<polyline fill="none" stroke="black" points="883.001,-861.088 764.001,-861.088 "/>
<path fill="none" stroke="black" d="M764.001,-861.088C758.001,-861.088 752.001,-855.088 752.001,-849.088"/>
<polyline fill="none" stroke="black" points="752.001,-849.088 752.001,-645.088 "/>
<path fill="none" stroke="black" d="M752.001,-645.088C752.001,-639.088 758.001,-633.088 764.001,-633.088"/>
<text text-anchor="middle" x="823.501" y="-844.488" font-family="Times,serif" font-size="14.00">PagesController</text>
<polyline fill="none" stroke="black" points="752.001,-838.088 895.001,-838.088 "/>
<text text-anchor="start" x="760.001" y="-821.488" font-family="Times,serif" font-size="14.00">add_a_project</text>
<text text-anchor="start" x="760.001" y="-806.488" font-family="Times,serif" font-size="14.00">become_a_mentor</text>
<text text-anchor="start" x="760.001" y="-791.488" font-family="Times,serif" font-size="14.00">confirmation</text>
<text text-anchor="start" x="760.001" y="-776.488" font-family="Times,serif" font-size="14.00">contact_us</text>
<text text-anchor="start" x="760.001" y="-761.488" font-family="Times,serif" font-size="14.00">home</text>
<text text-anchor="start" x="760.001" y="-746.488" font-family="Times,serif" font-size="14.00">privacy_policy</text>
<text text-anchor="start" x="760.001" y="-731.488" font-family="Times,serif" font-size="14.00">register</text>
<text text-anchor="start" x="760.001" y="-716.488" font-family="Times,serif" font-size="14.00">send_email</text>
<text text-anchor="start" x="760.001" y="-701.488" font-family="Times,serif" font-size="14.00">terms_and_conditions</text>
<text text-anchor="start" x="760.001" y="-686.488" font-family="Times,serif" font-size="14.00">terms_of_use</text>
<polyline fill="none" stroke="black" points="752.001,-680.088 895.001,-680.088 "/>
<polyline fill="none" stroke="black" points="752.001,-656.088 895.001,-656.088 "/>
<text text-anchor="start" x="760.001" y="-639.488" font-family="Times,serif" font-size="14.00">_layout</text>
</g>
<!-- ApplicationController&#45;&gt;PagesController -->
<g id="edge14" class="edge"><title>ApplicationController&#45;&gt;PagesController</title>
<path fill="none" stroke="black" d="M548.211,-884.964C613.369,-852.33 694.65,-811.622 751.948,-782.924"/>
</g>
<!-- ProjectsController -->
<g id="node11" class="node"><title>ProjectsController</title>
<polyline fill="none" stroke="black" points="92.5541,-1.5 191.554,-1.5 "/>
<path fill="none" stroke="black" d="M191.554,-1.5C197.554,-1.5 203.554,-7.5 203.554,-13.5"/>
<polyline fill="none" stroke="black" points="203.554,-13.5 203.554,-187.5 "/>
<path fill="none" stroke="black" d="M203.554,-187.5C203.554,-193.5 197.554,-199.5 191.554,-199.5"/>
<polyline fill="none" stroke="black" points="191.554,-199.5 92.5541,-199.5 "/>
<path fill="none" stroke="black" d="M92.5541,-199.5C86.5541,-199.5 80.5541,-193.5 80.5541,-187.5"/>
<polyline fill="none" stroke="black" points="80.5541,-187.5 80.5541,-13.5 "/>
<path fill="none" stroke="black" d="M80.5541,-13.5C80.5541,-7.5 86.5541,-1.5 92.5541,-1.5"/>
<text text-anchor="middle" x="142.054" y="-182.9" font-family="Times,serif" font-size="14.00">ProjectsController</text>
<polyline fill="none" stroke="black" points="80.5541,-176.5 203.554,-176.5 "/>
<text text-anchor="start" x="88.5541" y="-159.9" font-family="Times,serif" font-size="14.00">create</text>
<text text-anchor="start" x="88.5541" y="-144.9" font-family="Times,serif" font-size="14.00">destroy</text>
<text text-anchor="start" x="88.5541" y="-129.9" font-family="Times,serif" font-size="14.00">edit</text>
<text text-anchor="start" x="88.5541" y="-114.9" font-family="Times,serif" font-size="14.00">index</text>
<text text-anchor="start" x="88.5541" y="-99.9" font-family="Times,serif" font-size="14.00">new</text>
<text text-anchor="start" x="88.5541" y="-84.9" font-family="Times,serif" font-size="14.00">search</text>
<text text-anchor="start" x="88.5541" y="-69.9" font-family="Times,serif" font-size="14.00">show</text>
<text text-anchor="start" x="88.5541" y="-54.9" font-family="Times,serif" font-size="14.00">update</text>
<polyline fill="none" stroke="black" points="80.5541,-48.5 203.554,-48.5 "/>
<polyline fill="none" stroke="black" points="80.5541,-24.5 203.554,-24.5 "/>
<text text-anchor="start" x="88.5541" y="-7.9" font-family="Times,serif" font-size="14.00">_layout</text>
</g>
<!-- ApplicationController&#45;&gt;ProjectsController -->
<g id="edge16" class="edge"><title>ApplicationController&#45;&gt;ProjectsController</title>
<path fill="none" stroke="black" d="M415.828,-869.583C362.967,-721.087 238.644,-371.839 177.405,-199.808"/>
</g>
<!-- TeamsController -->
<g id="node12" class="node"><title>TeamsController</title>
<polyline fill="none" stroke="black" points="701.475,-12.4033 792.475,-12.4033 "/>
<path fill="none" stroke="black" d="M792.475,-12.4033C798.475,-12.4033 804.475,-18.4033 804.475,-24.4033"/>
<polyline fill="none" stroke="black" points="804.475,-24.4033 804.475,-183.403 "/>
<path fill="none" stroke="black" d="M804.475,-183.403C804.475,-189.403 798.475,-195.403 792.475,-195.403"/>
<polyline fill="none" stroke="black" points="792.475,-195.403 701.475,-195.403 "/>
<path fill="none" stroke="black" d="M701.475,-195.403C695.475,-195.403 689.475,-189.403 689.475,-183.403"/>
<polyline fill="none" stroke="black" points="689.475,-183.403 689.475,-24.4033 "/>
<path fill="none" stroke="black" d="M689.475,-24.4033C689.475,-18.4033 695.475,-12.4033 701.475,-12.4033"/>
<text text-anchor="middle" x="746.975" y="-178.803" font-family="Times,serif" font-size="14.00">TeamsController</text>
<polyline fill="none" stroke="black" points="689.475,-172.403 804.475,-172.403 "/>
<text text-anchor="start" x="697.475" y="-155.803" font-family="Times,serif" font-size="14.00">create</text>
<text text-anchor="start" x="697.475" y="-140.803" font-family="Times,serif" font-size="14.00">destroy</text>
<text text-anchor="start" x="697.475" y="-125.803" font-family="Times,serif" font-size="14.00">edit</text>
<text text-anchor="start" x="697.475" y="-110.803" font-family="Times,serif" font-size="14.00">index</text>
<text text-anchor="start" x="697.475" y="-95.8033" font-family="Times,serif" font-size="14.00">new</text>
<text text-anchor="start" x="697.475" y="-80.8033" font-family="Times,serif" font-size="14.00">show</text>
<text text-anchor="start" x="697.475" y="-65.8033" font-family="Times,serif" font-size="14.00">update</text>
<polyline fill="none" stroke="black" points="689.475,-59.4033 804.475,-59.4033 "/>
<polyline fill="none" stroke="black" points="689.475,-35.4033 804.475,-35.4033 "/>
<text text-anchor="start" x="697.475" y="-18.8033" font-family="Times,serif" font-size="14.00">_layout</text>
</g>
<!-- ApplicationController&#45;&gt;TeamsController -->
<g id="edge18" class="edge"><title>ApplicationController&#45;&gt;TeamsController</title>
<path fill="none" stroke="black" d="M465.846,-869.864C520.916,-719.822 651.516,-363.99 713.374,-195.452"/>
</g>
<!-- MembersController -->
<g id="node8" class="node"><title>MembersController</title>
<polyline fill="none" stroke="black" points="992,-980.5 1183,-980.5 "/>
<path fill="none" stroke="black" d="M1183,-980.5C1189,-980.5 1195,-986.5 1195,-992.5"/>
<polyline fill="none" stroke="black" points="1195,-992.5 1195,-1481.5 "/>
<path fill="none" stroke="black" d="M1195,-1481.5C1195,-1487.5 1189,-1493.5 1183,-1493.5"/>
<polyline fill="none" stroke="black" points="1183,-1493.5 992,-1493.5 "/>
<path fill="none" stroke="black" d="M992,-1493.5C986,-1493.5 980,-1487.5 980,-1481.5"/>
<polyline fill="none" stroke="black" points="980,-1481.5 980,-992.5 "/>
<path fill="none" stroke="black" d="M980,-992.5C980,-986.5 986,-980.5 992,-980.5"/>
<text text-anchor="middle" x="1087.5" y="-1476.9" font-family="Times,serif" font-size="14.00">MembersController</text>
<polyline fill="none" stroke="black" points="980,-1470.5 1195,-1470.5 "/>
<text text-anchor="start" x="988" y="-1453.9" font-family="Times,serif" font-size="14.00">_one_time_conditions_valid_291?</text>
<text text-anchor="start" x="988" y="-1438.9" font-family="Times,serif" font-size="14.00">_one_time_conditions_valid_295?</text>
<text text-anchor="start" x="988" y="-1423.9" font-family="Times,serif" font-size="14.00">applications</text>
<text text-anchor="start" x="988" y="-1408.9" font-family="Times,serif" font-size="14.00">checkEmail</text>
<text text-anchor="start" x="988" y="-1393.9" font-family="Times,serif" font-size="14.00">clean_select_multiple_params</text>
<text text-anchor="start" x="988" y="-1378.9" font-family="Times,serif" font-size="14.00">create_mentor</text>
<text text-anchor="start" x="988" y="-1363.9" font-family="Times,serif" font-size="14.00">create_project</text>
<text text-anchor="start" x="988" y="-1348.9" font-family="Times,serif" font-size="14.00">dashboard</text>
<text text-anchor="start" x="988" y="-1333.9" font-family="Times,serif" font-size="14.00">destroy</text>
<text text-anchor="start" x="988" y="-1318.9" font-family="Times,serif" font-size="14.00">destroy_mentor</text>
<text text-anchor="start" x="988" y="-1303.9" font-family="Times,serif" font-size="14.00">edit_mentor</text>
<text text-anchor="start" x="988" y="-1288.9" font-family="Times,serif" font-size="14.00">edit_project</text>
<text text-anchor="start" x="988" y="-1273.9" font-family="Times,serif" font-size="14.00">getMemberJobApplications</text>
<text text-anchor="start" x="988" y="-1258.9" font-family="Times,serif" font-size="14.00">getMemberMentorApplications</text>
<text text-anchor="start" x="988" y="-1243.9" font-family="Times,serif" font-size="14.00">getMemberProjectApplications</text>
<text text-anchor="start" x="988" y="-1228.9" font-family="Times,serif" font-size="14.00">getMentorId</text>
<text text-anchor="start" x="988" y="-1213.9" font-family="Times,serif" font-size="14.00">list_internal_mentors</text>
<text text-anchor="start" x="988" y="-1198.9" font-family="Times,serif" font-size="14.00">list_internal_projects</text>
<text text-anchor="start" x="988" y="-1183.9" font-family="Times,serif" font-size="14.00">list_projects</text>
<text text-anchor="start" x="988" y="-1168.9" font-family="Times,serif" font-size="14.00">new_mentor</text>
<text text-anchor="start" x="988" y="-1153.9" font-family="Times,serif" font-size="14.00">new_project</text>
<text text-anchor="start" x="988" y="-1138.9" font-family="Times,serif" font-size="14.00">profile</text>
<text text-anchor="start" x="988" y="-1123.9" font-family="Times,serif" font-size="14.00">search_mentor</text>
<text text-anchor="start" x="988" y="-1108.9" font-family="Times,serif" font-size="14.00">search_project</text>
<text text-anchor="start" x="988" y="-1093.9" font-family="Times,serif" font-size="14.00">setVars</text>
<text text-anchor="start" x="988" y="-1078.9" font-family="Times,serif" font-size="14.00">settings</text>
<text text-anchor="start" x="988" y="-1063.9" font-family="Times,serif" font-size="14.00">update</text>
<text text-anchor="start" x="988" y="-1048.9" font-family="Times,serif" font-size="14.00">update_mentor</text>
<text text-anchor="start" x="988" y="-1033.9" font-family="Times,serif" font-size="14.00">update_project</text>
<polyline fill="none" stroke="black" points="980,-1027.5 1195,-1027.5 "/>
<polyline fill="none" stroke="black" points="980,-1003.5 1195,-1003.5 "/>
<text text-anchor="start" x="988" y="-986.9" font-family="Times,serif" font-size="14.00">_layout</text>
</g>
</g>
</svg>
