<?xml version="1.0" encoding="UTF-8" standalone="no"?>
<!DOCTYPE svg PUBLIC "-//W3C//DTD SVG 1.1//EN"
 "http://www.w3.org/Graphics/SVG/1.1/DTD/svg11.dtd">
<!-- Generated by graphviz version 2.26.3 (20100126.1600)
 -->
<!-- Title: controllers_diagram Pages: 1 -->
<svg width="1260pt" height="1885pt"
 viewBox="0.00 0.00 1260.00 1885.32" xmlns="http://www.w3.org/2000/svg" xmlns:xlink="http://www.w3.org/1999/xlink">
<g id="graph1" class="graph" transform="scale(1 1) rotate(0) translate(4 1881.32)">
<title>controllers_diagram</title>
<polygon fill="white" stroke="white" points="-4,5 -4,-1881.32 1257,-1881.32 1257,5 -4,5"/>
<!-- _diagram_info -->
<g id="node1" class="node"><title>_diagram_info</title>
<text text-anchor="start" x="1009" y="-378.3" font-family="Times Roman,serif" font-size="13.00">Controllers diagram</text>
<text text-anchor="start" x="1009" y="-361.3" font-family="Times Roman,serif" font-size="13.00">Date: Jul 29 2013 &#45; 15:27</text>
<text text-anchor="start" x="1009" y="-344.3" font-family="Times Roman,serif" font-size="13.00">Migration version: 20130729142551</text>
<text text-anchor="start" x="1009" y="-327.3" font-family="Times Roman,serif" font-size="13.00">Generated by RailRoady 1.1.0</text>
<text text-anchor="start" x="1009" y="-310.3" font-family="Times Roman,serif" font-size="13.00">http://railroady.prestonlee.com</text>
</g>
<!-- ProjectsController -->
<g id="node2" class="node"><title>ProjectsController</title>
<polyline fill="none" stroke="black" points="25.5849,-1040.91 141.585,-1040.91 "/>
<path fill="none" stroke="black" d="M141.585,-1040.91C147.585,-1040.91 153.585,-1046.91 153.585,-1052.91"/>
<polyline fill="none" stroke="black" points="153.585,-1052.91 153.585,-1274.91 "/>
<path fill="none" stroke="black" d="M153.585,-1274.91C153.585,-1280.91 147.585,-1286.91 141.585,-1286.91"/>
<polyline fill="none" stroke="black" points="141.585,-1286.91 25.5849,-1286.91 "/>
<path fill="none" stroke="black" d="M25.5849,-1286.91C19.5849,-1286.91 13.5849,-1280.91 13.5849,-1274.91"/>
<polyline fill="none" stroke="black" points="13.5849,-1274.91 13.5849,-1052.91 "/>
<path fill="none" stroke="black" d="M13.5849,-1052.91C13.5849,-1046.91 19.5849,-1040.91 25.5849,-1040.91"/>
<text text-anchor="middle" x="83.5849" y="-1270.31" font-family="Times Roman,serif" font-size="14.00">ProjectsController</text>
<polyline fill="none" stroke="black" points="13.5849,-1260.91 153.585,-1260.91 "/>
<text text-anchor="start" x="21.5849" y="-1244.31" font-family="Times Roman,serif" font-size="14.00">apply</text>
<text text-anchor="start" x="21.5849" y="-1226.31" font-family="Times Roman,serif" font-size="14.00">create</text>
<text text-anchor="start" x="21.5849" y="-1208.31" font-family="Times Roman,serif" font-size="14.00">destroy</text>
<text text-anchor="start" x="21.5849" y="-1190.31" font-family="Times Roman,serif" font-size="14.00">edit</text>
<text text-anchor="start" x="21.5849" y="-1172.31" font-family="Times Roman,serif" font-size="14.00">index</text>
<text text-anchor="start" x="21.5849" y="-1154.31" font-family="Times Roman,serif" font-size="14.00">new</text>
<text text-anchor="start" x="21.5849" y="-1136.31" font-family="Times Roman,serif" font-size="14.00">search</text>
<text text-anchor="start" x="21.5849" y="-1118.31" font-family="Times Roman,serif" font-size="14.00">show</text>
<text text-anchor="start" x="21.5849" y="-1100.31" font-family="Times Roman,serif" font-size="14.00">update</text>
<polyline fill="none" stroke="black" points="13.5849,-1090.91 153.585,-1090.91 "/>
<polyline fill="none" stroke="black" points="13.5849,-1066.91 153.585,-1066.91 "/>
<text text-anchor="start" x="21.5849" y="-1050.31" font-family="Times Roman,serif" font-size="14.00">_layout</text>
</g>
<!-- TeamsController -->
<g id="node3" class="node"><title>TeamsController</title>
<polyline fill="none" stroke="black" points="702.71,-1060.63 806.71,-1060.63 "/>
<path fill="none" stroke="black" d="M806.71,-1060.63C812.71,-1060.63 818.71,-1066.63 818.71,-1072.63"/>
<polyline fill="none" stroke="black" points="818.71,-1072.63 818.71,-1258.63 "/>
<path fill="none" stroke="black" d="M818.71,-1258.63C818.71,-1264.63 812.71,-1270.63 806.71,-1270.63"/>
<polyline fill="none" stroke="black" points="806.71,-1270.63 702.71,-1270.63 "/>
<path fill="none" stroke="black" d="M702.71,-1270.63C696.71,-1270.63 690.71,-1264.63 690.71,-1258.63"/>
<polyline fill="none" stroke="black" points="690.71,-1258.63 690.71,-1072.63 "/>
<path fill="none" stroke="black" d="M690.71,-1072.63C690.71,-1066.63 696.71,-1060.63 702.71,-1060.63"/>
<text text-anchor="middle" x="754.71" y="-1254.03" font-family="Times Roman,serif" font-size="14.00">TeamsController</text>
<polyline fill="none" stroke="black" points="690.71,-1244.63 818.71,-1244.63 "/>
<text text-anchor="start" x="698.71" y="-1228.03" font-family="Times Roman,serif" font-size="14.00">create</text>
<text text-anchor="start" x="698.71" y="-1210.03" font-family="Times Roman,serif" font-size="14.00">destroy</text>
<text text-anchor="start" x="698.71" y="-1192.03" font-family="Times Roman,serif" font-size="14.00">edit</text>
<text text-anchor="start" x="698.71" y="-1174.03" font-family="Times Roman,serif" font-size="14.00">index</text>
<text text-anchor="start" x="698.71" y="-1156.03" font-family="Times Roman,serif" font-size="14.00">new</text>
<text text-anchor="start" x="698.71" y="-1138.03" font-family="Times Roman,serif" font-size="14.00">show</text>
<text text-anchor="start" x="698.71" y="-1120.03" font-family="Times Roman,serif" font-size="14.00">update</text>
<polyline fill="none" stroke="black" points="690.71,-1110.63 818.71,-1110.63 "/>
<polyline fill="none" stroke="black" points="690.71,-1086.63 818.71,-1086.63 "/>
<text text-anchor="start" x="698.71" y="-1070.03" font-family="Times Roman,serif" font-size="14.00">_layout</text>
</g>
<!-- PagesController -->
<g id="node4" class="node"><title>PagesController</title>
<polyline fill="none" stroke="black" points="348.447,-317.753 491.447,-317.753 "/>
<path fill="none" stroke="black" d="M491.447,-317.753C497.447,-317.753 503.447,-323.753 503.447,-329.753"/>
<polyline fill="none" stroke="black" points="503.447,-329.753 503.447,-515.753 "/>
<path fill="none" stroke="black" d="M503.447,-515.753C503.447,-521.753 497.447,-527.753 491.447,-527.753"/>
<polyline fill="none" stroke="black" points="491.447,-527.753 348.447,-527.753 "/>
<path fill="none" stroke="black" d="M348.447,-527.753C342.447,-527.753 336.447,-521.753 336.447,-515.753"/>
<polyline fill="none" stroke="black" points="336.447,-515.753 336.447,-329.753 "/>
<path fill="none" stroke="black" d="M336.447,-329.753C336.447,-323.753 342.447,-317.753 348.447,-317.753"/>
<text text-anchor="middle" x="419.947" y="-511.153" font-family="Times Roman,serif" font-size="14.00">PagesController</text>
<polyline fill="none" stroke="black" points="336.447,-501.753 503.447,-501.753 "/>
<text text-anchor="start" x="344.447" y="-485.153" font-family="Times Roman,serif" font-size="14.00">confirmation</text>
<text text-anchor="start" x="344.447" y="-467.153" font-family="Times Roman,serif" font-size="14.00">contact_us</text>
<text text-anchor="start" x="344.447" y="-449.153" font-family="Times Roman,serif" font-size="14.00">home</text>
<text text-anchor="start" x="344.447" y="-431.153" font-family="Times Roman,serif" font-size="14.00">our_policy</text>
<text text-anchor="start" x="344.447" y="-413.153" font-family="Times Roman,serif" font-size="14.00">register</text>
<text text-anchor="start" x="344.447" y="-395.153" font-family="Times Roman,serif" font-size="14.00">terms_and_conditions</text>
<text text-anchor="start" x="344.447" y="-377.153" font-family="Times Roman,serif" font-size="14.00">terms_of_use</text>
<polyline fill="none" stroke="black" points="336.447,-367.753 503.447,-367.753 "/>
<polyline fill="none" stroke="black" points="336.447,-343.753 503.447,-343.753 "/>
<text text-anchor="start" x="344.447" y="-327.153" font-family="Times Roman,serif" font-size="14.00">_layout</text>
</g>
<!-- AdvertsController -->
<g id="node5" class="node"><title>AdvertsController</title>
<polyline fill="none" stroke="black" points="361.177,-1259.73 476.177,-1259.73 "/>
<path fill="none" stroke="black" d="M476.177,-1259.73C482.177,-1259.73 488.177,-1265.73 488.177,-1271.73"/>
<polyline fill="none" stroke="black" points="488.177,-1271.73 488.177,-1457.73 "/>
<path fill="none" stroke="black" d="M488.177,-1457.73C488.177,-1463.73 482.177,-1469.73 476.177,-1469.73"/>
<polyline fill="none" stroke="black" points="476.177,-1469.73 361.177,-1469.73 "/>
<path fill="none" stroke="black" d="M361.177,-1469.73C355.177,-1469.73 349.177,-1463.73 349.177,-1457.73"/>
<polyline fill="none" stroke="black" points="349.177,-1457.73 349.177,-1271.73 "/>
<path fill="none" stroke="black" d="M349.177,-1271.73C349.177,-1265.73 355.177,-1259.73 361.177,-1259.73"/>
<text text-anchor="middle" x="418.677" y="-1453.13" font-family="Times Roman,serif" font-size="14.00">AdvertsController</text>
<polyline fill="none" stroke="black" points="349.177,-1443.73 488.177,-1443.73 "/>
<text text-anchor="start" x="357.177" y="-1427.13" font-family="Times Roman,serif" font-size="14.00">create</text>
<text text-anchor="start" x="357.177" y="-1409.13" font-family="Times Roman,serif" font-size="14.00">destroy</text>
<text text-anchor="start" x="357.177" y="-1391.13" font-family="Times Roman,serif" font-size="14.00">edit</text>
<text text-anchor="start" x="357.177" y="-1373.13" font-family="Times Roman,serif" font-size="14.00">index</text>
<text text-anchor="start" x="357.177" y="-1355.13" font-family="Times Roman,serif" font-size="14.00">new</text>
<text text-anchor="start" x="357.177" y="-1337.13" font-family="Times Roman,serif" font-size="14.00">show</text>
<text text-anchor="start" x="357.177" y="-1319.13" font-family="Times Roman,serif" font-size="14.00">update</text>
<polyline fill="none" stroke="black" points="349.177,-1309.73 488.177,-1309.73 "/>
<polyline fill="none" stroke="black" points="349.177,-1285.73 488.177,-1285.73 "/>
<text text-anchor="start" x="357.177" y="-1269.13" font-family="Times Roman,serif" font-size="14.00">_layout</text>
</g>
<!-- ClientsController -->
<g id="node6" class="node"><title>ClientsController</title>
<polyline fill="none" stroke="black" points="582.709,-1395.82 805.709,-1395.82 "/>
<path fill="none" stroke="black" d="M805.709,-1395.82C811.709,-1395.82 817.709,-1401.82 817.709,-1407.82"/>
<polyline fill="none" stroke="black" points="817.709,-1407.82 817.709,-1863.82 "/>
<path fill="none" stroke="black" d="M817.709,-1863.82C817.709,-1869.82 811.709,-1875.82 805.709,-1875.82"/>
<polyline fill="none" stroke="black" points="805.709,-1875.82 582.709,-1875.82 "/>
<path fill="none" stroke="black" d="M582.709,-1875.82C576.709,-1875.82 570.709,-1869.82 570.709,-1863.82"/>
<polyline fill="none" stroke="black" points="570.709,-1863.82 570.709,-1407.82 "/>
<path fill="none" stroke="black" d="M570.709,-1407.82C570.709,-1401.82 576.709,-1395.82 582.709,-1395.82"/>
<text text-anchor="middle" x="694.209" y="-1859.22" font-family="Times Roman,serif" font-size="14.00">ClientsController</text>
<polyline fill="none" stroke="black" points="570.709,-1849.82 817.709,-1849.82 "/>
<text text-anchor="start" x="578.709" y="-1833.22" font-family="Times Roman,serif" font-size="14.00">_one_time_conditions_valid_186?</text>
<text text-anchor="start" x="578.709" y="-1815.22" font-family="Times Roman,serif" font-size="14.00">add_job</text>
<text text-anchor="start" x="578.709" y="-1797.22" font-family="Times Roman,serif" font-size="14.00">clean_select_multiple_params</text>
<text text-anchor="start" x="578.709" y="-1779.22" font-family="Times Roman,serif" font-size="14.00">create_mentor</text>
<text text-anchor="start" x="578.709" y="-1761.22" font-family="Times Roman,serif" font-size="14.00">create_project</text>
<text text-anchor="start" x="578.709" y="-1743.22" font-family="Times Roman,serif" font-size="14.00">dashboard</text>
<text text-anchor="start" x="578.709" y="-1725.22" font-family="Times Roman,serif" font-size="14.00">edit_job</text>
<text text-anchor="start" x="578.709" y="-1707.22" font-family="Times Roman,serif" font-size="14.00">edit_mentor</text>
<text text-anchor="start" x="578.709" y="-1689.22" font-family="Times Roman,serif" font-size="14.00">edit_project</text>
<text text-anchor="start" x="578.709" y="-1671.22" font-family="Times Roman,serif" font-size="14.00">getMentorApplications</text>
<text text-anchor="start" x="578.709" y="-1653.22" font-family="Times Roman,serif" font-size="14.00">getProjectApplications</text>
<text text-anchor="start" x="578.709" y="-1635.22" font-family="Times Roman,serif" font-size="14.00">list_jobs</text>
<text text-anchor="start" x="578.709" y="-1617.22" font-family="Times Roman,serif" font-size="14.00">list_mentors</text>
<text text-anchor="start" x="578.709" y="-1599.22" font-family="Times Roman,serif" font-size="14.00">list_projects</text>
<text text-anchor="start" x="578.709" y="-1581.22" font-family="Times Roman,serif" font-size="14.00">new_mentor</text>
<text text-anchor="start" x="578.709" y="-1563.22" font-family="Times Roman,serif" font-size="14.00">new_project</text>
<text text-anchor="start" x="578.709" y="-1545.22" font-family="Times Roman,serif" font-size="14.00">profile</text>
<text text-anchor="start" x="578.709" y="-1527.22" font-family="Times Roman,serif" font-size="14.00">profile_update</text>
<text text-anchor="start" x="578.709" y="-1509.22" font-family="Times Roman,serif" font-size="14.00">settings</text>
<text text-anchor="start" x="578.709" y="-1491.22" font-family="Times Roman,serif" font-size="14.00">update_client</text>
<text text-anchor="start" x="578.709" y="-1473.22" font-family="Times Roman,serif" font-size="14.00">update_mentor</text>
<text text-anchor="start" x="578.709" y="-1455.22" font-family="Times Roman,serif" font-size="14.00">update_project</text>
<polyline fill="none" stroke="black" points="570.709,-1445.82 817.709,-1445.82 "/>
<polyline fill="none" stroke="black" points="570.709,-1421.82 817.709,-1421.82 "/>
<text text-anchor="start" x="578.709" y="-1405.22" font-family="Times Roman,serif" font-size="14.00">_layout</text>
</g>
<!-- AboutUsController -->
<g id="node7" class="node"><title>AboutUsController</title>
<polyline fill="none" stroke="black" points="83.7393,-1548.36 203.739,-1548.36 "/>
<path fill="none" stroke="black" d="M203.739,-1548.36C209.739,-1548.36 215.739,-1554.36 215.739,-1560.36"/>
<polyline fill="none" stroke="black" points="215.739,-1560.36 215.739,-1710.36 "/>
<path fill="none" stroke="black" d="M215.739,-1710.36C215.739,-1716.36 209.739,-1722.36 203.739,-1722.36"/>
<polyline fill="none" stroke="black" points="203.739,-1722.36 83.7393,-1722.36 "/>
<path fill="none" stroke="black" d="M83.7393,-1722.36C77.7393,-1722.36 71.7393,-1716.36 71.7393,-1710.36"/>
<polyline fill="none" stroke="black" points="71.7393,-1710.36 71.7393,-1560.36 "/>
<path fill="none" stroke="black" d="M71.7393,-1560.36C71.7393,-1554.36 77.7393,-1548.36 83.7393,-1548.36"/>
<text text-anchor="middle" x="143.739" y="-1705.76" font-family="Times Roman,serif" font-size="14.00">AboutUsController</text>
<polyline fill="none" stroke="black" points="71.7393,-1696.36 215.739,-1696.36 "/>
<text text-anchor="start" x="79.7393" y="-1679.76" font-family="Times Roman,serif" font-size="14.00">how_it_works</text>
<text text-anchor="start" x="79.7393" y="-1661.76" font-family="Times Roman,serif" font-size="14.00">index</text>
<text text-anchor="start" x="79.7393" y="-1643.76" font-family="Times Roman,serif" font-size="14.00">meet_the_team</text>
<text text-anchor="start" x="79.7393" y="-1625.76" font-family="Times Roman,serif" font-size="14.00">our_philosophy</text>
<text text-anchor="start" x="79.7393" y="-1607.76" font-family="Times Roman,serif" font-size="14.00">what_we_do</text>
<polyline fill="none" stroke="black" points="71.7393,-1598.36 215.739,-1598.36 "/>
<polyline fill="none" stroke="black" points="71.7393,-1574.36 215.739,-1574.36 "/>
<text text-anchor="start" x="79.7393" y="-1557.76" font-family="Times Roman,serif" font-size="14.00">_layout</text>
</g>
<!-- MentorsController -->
<g id="node8" class="node"><title>MentorsController</title>
<polyline fill="none" stroke="black" points="49.1878,-180.979 167.188,-180.979 "/>
<path fill="none" stroke="black" d="M167.188,-180.979C173.188,-180.979 179.188,-186.979 179.188,-192.979"/>
<polyline fill="none" stroke="black" points="179.188,-192.979 179.188,-414.979 "/>
<path fill="none" stroke="black" d="M179.188,-414.979C179.188,-420.979 173.188,-426.979 167.188,-426.979"/>
<polyline fill="none" stroke="black" points="167.188,-426.979 49.1878,-426.979 "/>
<path fill="none" stroke="black" d="M49.1878,-426.979C43.1878,-426.979 37.1878,-420.979 37.1878,-414.979"/>
<polyline fill="none" stroke="black" points="37.1878,-414.979 37.1878,-192.979 "/>
<path fill="none" stroke="black" d="M37.1878,-192.979C37.1878,-186.979 43.1878,-180.979 49.1878,-180.979"/>
<text text-anchor="middle" x="108.188" y="-410.379" font-family="Times Roman,serif" font-size="14.00">MentorsController</text>
<polyline fill="none" stroke="black" points="37.1878,-400.979 179.188,-400.979 "/>
<text text-anchor="start" x="45.1878" y="-384.379" font-family="Times Roman,serif" font-size="14.00">apply</text>
<text text-anchor="start" x="45.1878" y="-366.379" font-family="Times Roman,serif" font-size="14.00">create</text>
<text text-anchor="start" x="45.1878" y="-348.379" font-family="Times Roman,serif" font-size="14.00">destroy</text>
<text text-anchor="start" x="45.1878" y="-330.379" font-family="Times Roman,serif" font-size="14.00">edit</text>
<text text-anchor="start" x="45.1878" y="-312.379" font-family="Times Roman,serif" font-size="14.00">index</text>
<text text-anchor="start" x="45.1878" y="-294.379" font-family="Times Roman,serif" font-size="14.00">new</text>
<text text-anchor="start" x="45.1878" y="-276.379" font-family="Times Roman,serif" font-size="14.00">search</text>
<text text-anchor="start" x="45.1878" y="-258.379" font-family="Times Roman,serif" font-size="14.00">show</text>
<text text-anchor="start" x="45.1878" y="-240.379" font-family="Times Roman,serif" font-size="14.00">update</text>
<polyline fill="none" stroke="black" points="37.1878,-230.979 179.188,-230.979 "/>
<polyline fill="none" stroke="black" points="37.1878,-206.979 179.188,-206.979 "/>
<text text-anchor="start" x="45.1878" y="-190.379" font-family="Times Roman,serif" font-size="14.00">_layout</text>
</g>
<!-- EmployerProfilesController -->
<g id="node9" class="node"><title>EmployerProfilesController</title>
<polyline fill="none" stroke="black" points="626.508,-656.266 802.508,-656.266 "/>
<path fill="none" stroke="black" d="M802.508,-656.266C808.508,-656.266 814.508,-662.266 814.508,-668.266"/>
<polyline fill="none" stroke="black" points="814.508,-668.266 814.508,-854.266 "/>
<path fill="none" stroke="black" d="M814.508,-854.266C814.508,-860.266 808.508,-866.266 802.508,-866.266"/>
<polyline fill="none" stroke="black" points="802.508,-866.266 626.508,-866.266 "/>
<path fill="none" stroke="black" d="M626.508,-866.266C620.508,-866.266 614.508,-860.266 614.508,-854.266"/>
<polyline fill="none" stroke="black" points="614.508,-854.266 614.508,-668.266 "/>
<path fill="none" stroke="black" d="M614.508,-668.266C614.508,-662.266 620.508,-656.266 626.508,-656.266"/>
<text text-anchor="middle" x="714.508" y="-849.666" font-family="Times Roman,serif" font-size="14.00">EmployerProfilesController</text>
<polyline fill="none" stroke="black" points="614.508,-840.266 814.508,-840.266 "/>
<text text-anchor="start" x="622.508" y="-823.666" font-family="Times Roman,serif" font-size="14.00">create</text>
<text text-anchor="start" x="622.508" y="-805.666" font-family="Times Roman,serif" font-size="14.00">destroy</text>
<text text-anchor="start" x="622.508" y="-787.666" font-family="Times Roman,serif" font-size="14.00">edit</text>
<text text-anchor="start" x="622.508" y="-769.666" font-family="Times Roman,serif" font-size="14.00">index</text>
<text text-anchor="start" x="622.508" y="-751.666" font-family="Times Roman,serif" font-size="14.00">new</text>
<text text-anchor="start" x="622.508" y="-733.666" font-family="Times Roman,serif" font-size="14.00">show</text>
<text text-anchor="start" x="622.508" y="-715.666" font-family="Times Roman,serif" font-size="14.00">update</text>
<polyline fill="none" stroke="black" points="614.508,-706.266 814.508,-706.266 "/>
<polyline fill="none" stroke="black" points="614.508,-682.266 814.508,-682.266 "/>
<text text-anchor="start" x="622.508" y="-665.666" font-family="Times Roman,serif" font-size="14.00">_layout</text>
</g>
<!-- AdminController -->
<g id="node10" class="node"><title>AdminController</title>
<polyline fill="none" stroke="black" points="13,-618.818 236,-618.818 "/>
<path fill="none" stroke="black" d="M236,-618.818C242,-618.818 248,-624.818 248,-630.818"/>
<polyline fill="none" stroke="black" points="248,-630.818 248,-888.818 "/>
<path fill="none" stroke="black" d="M248,-888.818C248,-894.818 242,-900.818 236,-900.818"/>
<polyline fill="none" stroke="black" points="236,-900.818 13,-900.818 "/>
<path fill="none" stroke="black" d="M13,-900.818C7,-900.818 1,-894.818 1,-888.818"/>
<polyline fill="none" stroke="black" points="1,-888.818 1,-630.818 "/>
<path fill="none" stroke="black" d="M1,-630.818C1,-624.818 7,-618.818 13,-618.818"/>
<text text-anchor="middle" x="124.5" y="-884.218" font-family="Times Roman,serif" font-size="14.00">AdminController</text>
<polyline fill="none" stroke="black" points="1,-874.818 248,-874.818 "/>
<text text-anchor="start" x="9" y="-858.218" font-family="Times Roman,serif" font-size="14.00">_one_time_conditions_valid_269?</text>
<text text-anchor="start" x="9" y="-840.218" font-family="Times Roman,serif" font-size="14.00">adverts</text>
<text text-anchor="start" x="9" y="-822.218" font-family="Times Roman,serif" font-size="14.00">clients</text>
<text text-anchor="start" x="9" y="-804.218" font-family="Times Roman,serif" font-size="14.00">dashboard</text>
<text text-anchor="start" x="9" y="-786.218" font-family="Times Roman,serif" font-size="14.00">employer_profiles</text>
<text text-anchor="start" x="9" y="-768.218" font-family="Times Roman,serif" font-size="14.00">jobs</text>
<text text-anchor="start" x="9" y="-750.218" font-family="Times Roman,serif" font-size="14.00">login</text>
<text text-anchor="start" x="9" y="-732.218" font-family="Times Roman,serif" font-size="14.00">members</text>
<text text-anchor="start" x="9" y="-714.218" font-family="Times Roman,serif" font-size="14.00">mentors</text>
<text text-anchor="start" x="9" y="-696.218" font-family="Times Roman,serif" font-size="14.00">projects</text>
<text text-anchor="start" x="9" y="-678.218" font-family="Times Roman,serif" font-size="14.00">team</text>
<polyline fill="none" stroke="black" points="1,-668.818 248,-668.818 "/>
<polyline fill="none" stroke="black" points="1,-644.818 248,-644.818 "/>
<text text-anchor="start" x="9" y="-628.218" font-family="Times Roman,serif" font-size="14.00">_layout</text>
</g>
<!-- MembersController -->
<g id="node11" class="node"><title>MembersController</title>
<polyline fill="none" stroke="black" points="619.581,-1.5 842.581,-1.5 "/>
<path fill="none" stroke="black" d="M842.581,-1.5C848.581,-1.5 854.581,-7.5 854.581,-13.5"/>
<polyline fill="none" stroke="black" points="854.581,-13.5 854.581,-595.5 "/>
<path fill="none" stroke="black" d="M854.581,-595.5C854.581,-601.5 848.581,-607.5 842.581,-607.5"/>
<polyline fill="none" stroke="black" points="842.581,-607.5 619.581,-607.5 "/>
<path fill="none" stroke="black" d="M619.581,-607.5C613.581,-607.5 607.581,-601.5 607.581,-595.5"/>
<polyline fill="none" stroke="black" points="607.581,-595.5 607.581,-13.5 "/>
<path fill="none" stroke="black" d="M607.581,-13.5C607.581,-7.5 613.581,-1.5 619.581,-1.5"/>
<text text-anchor="middle" x="731.081" y="-590.9" font-family="Times Roman,serif" font-size="14.00">MembersController</text>
<polyline fill="none" stroke="black" points="607.581,-581.5 854.581,-581.5 "/>
<text text-anchor="start" x="615.581" y="-564.9" font-family="Times Roman,serif" font-size="14.00">_one_time_conditions_valid_271?</text>
<text text-anchor="start" x="615.581" y="-546.9" font-family="Times Roman,serif" font-size="14.00">_one_time_conditions_valid_273?</text>
<text text-anchor="start" x="615.581" y="-528.9" font-family="Times Roman,serif" font-size="14.00">applications</text>
<text text-anchor="start" x="615.581" y="-510.9" font-family="Times Roman,serif" font-size="14.00">checkEmail</text>
<text text-anchor="start" x="615.581" y="-492.9" font-family="Times Roman,serif" font-size="14.00">clean_select_multiple_params</text>
<text text-anchor="start" x="615.581" y="-474.9" font-family="Times Roman,serif" font-size="14.00">create_mentor</text>
<text text-anchor="start" x="615.581" y="-456.9" font-family="Times Roman,serif" font-size="14.00">create_project</text>
<text text-anchor="start" x="615.581" y="-438.9" font-family="Times Roman,serif" font-size="14.00">dashboard</text>
<text text-anchor="start" x="615.581" y="-420.9" font-family="Times Roman,serif" font-size="14.00">destroy</text>
<text text-anchor="start" x="615.581" y="-402.9" font-family="Times Roman,serif" font-size="14.00">destroy_mentor</text>
<text text-anchor="start" x="615.581" y="-384.9" font-family="Times Roman,serif" font-size="14.00">edit_mentor</text>
<text text-anchor="start" x="615.581" y="-366.9" font-family="Times Roman,serif" font-size="14.00">edit_project</text>
<text text-anchor="start" x="615.581" y="-348.9" font-family="Times Roman,serif" font-size="14.00">getMemberJobApplications</text>
<text text-anchor="start" x="615.581" y="-330.9" font-family="Times Roman,serif" font-size="14.00">getMemberMentorApplications</text>
<text text-anchor="start" x="615.581" y="-312.9" font-family="Times Roman,serif" font-size="14.00">getMemberProjectApplications</text>
<text text-anchor="start" x="615.581" y="-294.9" font-family="Times Roman,serif" font-size="14.00">getMentorId</text>
<text text-anchor="start" x="615.581" y="-276.9" font-family="Times Roman,serif" font-size="14.00">list_internal_mentors</text>
<text text-anchor="start" x="615.581" y="-258.9" font-family="Times Roman,serif" font-size="14.00">list_internal_projects</text>
<text text-anchor="start" x="615.581" y="-240.9" font-family="Times Roman,serif" font-size="14.00">list_projects</text>
<text text-anchor="start" x="615.581" y="-222.9" font-family="Times Roman,serif" font-size="14.00">new_mentor</text>
<text text-anchor="start" x="615.581" y="-204.9" font-family="Times Roman,serif" font-size="14.00">new_project</text>
<text text-anchor="start" x="615.581" y="-186.9" font-family="Times Roman,serif" font-size="14.00">profile</text>
<text text-anchor="start" x="615.581" y="-168.9" font-family="Times Roman,serif" font-size="14.00">search_mentor</text>
<text text-anchor="start" x="615.581" y="-150.9" font-family="Times Roman,serif" font-size="14.00">search_project</text>
<text text-anchor="start" x="615.581" y="-132.9" font-family="Times Roman,serif" font-size="14.00">setVars</text>
<text text-anchor="start" x="615.581" y="-114.9" font-family="Times Roman,serif" font-size="14.00">settings</text>
<text text-anchor="start" x="615.581" y="-96.9" font-family="Times Roman,serif" font-size="14.00">update</text>
<text text-anchor="start" x="615.581" y="-78.9" font-family="Times Roman,serif" font-size="14.00">update_mentor</text>
<text text-anchor="start" x="615.581" y="-60.9" font-family="Times Roman,serif" font-size="14.00">update_project</text>
<polyline fill="none" stroke="black" points="607.581,-51.5 854.581,-51.5 "/>
<polyline fill="none" stroke="black" points="607.581,-27.5 854.581,-27.5 "/>
<text text-anchor="start" x="615.581" y="-10.9" font-family="Times Roman,serif" font-size="14.00">_layout</text>
</g>
<!-- ApplicationController -->
<g id="node12" class="node"><title>ApplicationController</title>
<polyline fill="none" stroke="black" points="289.297,-925.524 549.297,-925.524 "/>
<path fill="none" stroke="black" d="M549.297,-925.524C555.297,-925.524 561.297,-931.524 561.297,-937.524"/>
<polyline fill="none" stroke="black" points="561.297,-937.524 561.297,-1033.52 "/>
<path fill="none" stroke="black" d="M561.297,-1033.52C561.297,-1039.52 555.297,-1045.52 549.297,-1045.52"/>
<polyline fill="none" stroke="black" points="549.297,-1045.52 289.297,-1045.52 "/>
<path fill="none" stroke="black" d="M289.297,-1045.52C283.297,-1045.52 277.297,-1039.52 277.297,-1033.52"/>
<polyline fill="none" stroke="black" points="277.297,-1033.52 277.297,-937.524 "/>
<path fill="none" stroke="black" d="M277.297,-937.524C277.297,-931.524 283.297,-925.524 289.297,-925.524"/>
<text text-anchor="middle" x="419.297" y="-1028.92" font-family="Times Roman,serif" font-size="14.00">ApplicationController</text>
<polyline fill="none" stroke="black" points="277.297,-1019.52 561.297,-1019.52 "/>
<text text-anchor="start" x="285.297" y="-1002.92" font-family="Times Roman,serif" font-size="14.00">_one_time_conditions_valid_116?</text>
<text text-anchor="start" x="285.297" y="-984.924" font-family="Times Roman,serif" font-size="14.00">can_member_make_application_checks</text>
<polyline fill="none" stroke="black" points="277.297,-975.524 561.297,-975.524 "/>
<polyline fill="none" stroke="black" points="277.297,-951.524 561.297,-951.524 "/>
<text text-anchor="start" x="285.297" y="-934.924" font-family="Times Roman,serif" font-size="14.00">_layout</text>
</g>
<!-- ApplicationController&#45;&gt;ProjectsController -->
<g id="edge2" class="edge"><title>ApplicationController&#45;&gt;ProjectsController</title>
<path fill="none" stroke="black" d="M306.108,-1045.67C255.665,-1072.47 197.827,-1103.21 153.762,-1126.62"/>
</g>
<!-- ApplicationController&#45;&gt;TeamsController -->
<g id="edge4" class="edge"><title>ApplicationController&#45;&gt;TeamsController</title>
<path fill="none" stroke="black" d="M531.451,-1045.75C584.394,-1074.18 645.665,-1107.08 690.611,-1131.21"/>
</g>
<!-- ApplicationController&#45;&gt;PagesController -->
<g id="edge6" class="edge"><title>ApplicationController&#45;&gt;PagesController</title>
<path fill="none" stroke="black" d="M419.367,-925.297C419.476,-830.449 419.69,-645.033 419.826,-527.873"/>
</g>
<!-- ApplicationController&#45;&gt;AdvertsController -->
<g id="edge8" class="edge"><title>ApplicationController&#45;&gt;AdvertsController</title>
<path fill="none" stroke="black" d="M419.199,-1045.61C419.105,-1102.94 418.962,-1190.52 418.849,-1259.44"/>
</g>
<!-- ApplicationController&#45;&gt;ClientsController -->
<g id="edge10" class="edge"><title>ApplicationController&#45;&gt;ClientsController</title>
<path fill="none" stroke="black" d="M444.668,-1045.54C478.231,-1124.93 539.381,-1269.58 592.745,-1395.81"/>
</g>
<!-- ApplicationController&#45;&gt;AboutUsController -->
<g id="edge12" class="edge"><title>ApplicationController&#45;&gt;AboutUsController</title>
<path fill="none" stroke="black" d="M393.744,-1045.78C344.745,-1161.34 237.412,-1414.46 180.638,-1548.35"/>
</g>
<!-- ApplicationController&#45;&gt;MentorsController -->
<g id="edge14" class="edge"><title>ApplicationController&#45;&gt;MentorsController</title>
<path fill="none" stroke="black" d="M391.997,-925.266C358.796,-852.028 301.014,-724.7 251.2,-615.618 222.824,-553.481 191.153,-484.434 164.841,-427.157"/>
</g>
<!-- ApplicationController&#45;&gt;EmployerProfilesController -->
<g id="edge16" class="edge"><title>ApplicationController&#45;&gt;EmployerProfilesController</title>
<path fill="none" stroke="black" d="M498.408,-925.427C534.018,-898.375 576.462,-866.133 614.269,-837.413"/>
</g>
<!-- ApplicationController&#45;&gt;AdminController -->
<g id="edge18" class="edge"><title>ApplicationController&#45;&gt;AdminController</title>
<path fill="none" stroke="black" d="M340.684,-925.335C312.285,-903.592 279.495,-878.487 248.172,-854.505"/>
</g>
<!-- ApplicationController&#45;&gt;MembersController -->
<g id="edge20" class="edge"><title>ApplicationController&#45;&gt;MembersController</title>
<path fill="none" stroke="black" d="M446.829,-925.386C482.88,-846.642 548.45,-703.417 607.536,-574.358"/>
</g>
</g>
</svg>
