<?xml version="1.0" encoding="UTF-8" standalone="no"?>
<!DOCTYPE svg PUBLIC "-//W3C//DTD SVG 1.1//EN"
 "http://www.w3.org/Graphics/SVG/1.1/DTD/svg11.dtd">
<!-- Generated by graphviz version 2.26.3 (20100126.1600)
 -->
<!-- Title: controllers_diagram Pages: 1 -->
<svg width="1120pt" height="1463pt"
 viewBox="0.00 0.00 1120.00 1462.54" xmlns="http://www.w3.org/2000/svg" xmlns:xlink="http://www.w3.org/1999/xlink">
<g id="graph1" class="graph" transform="scale(1 1) rotate(0) translate(4 1458.54)">
<title>controllers_diagram</title>
<polygon fill="white" stroke="white" points="-4,5 -4,-1458.54 1117,-1458.54 1117,5 -4,5"/>
<!-- _diagram_info -->
<g id="node1" class="node"><title>_diagram_info</title>
<text text-anchor="start" x="869" y="-852.3" font-family="Times Roman,serif" font-size="13.00">Controllers diagram</text>
<text text-anchor="start" x="869" y="-835.3" font-family="Times Roman,serif" font-size="13.00">Date: Jul 27 2013 &#45; 20:06</text>
<text text-anchor="start" x="869" y="-818.3" font-family="Times Roman,serif" font-size="13.00">Migration version: 20130727190413</text>
<text text-anchor="start" x="869" y="-801.3" font-family="Times Roman,serif" font-size="13.00">Generated by RailRoady 1.1.0</text>
<text text-anchor="start" x="869" y="-784.3" font-family="Times Roman,serif" font-size="13.00">http://railroady.prestonlee.com</text>
</g>
<!-- ProjectsController -->
<g id="node2" class="node"><title>ProjectsController</title>
<polyline fill="none" stroke="black" points="66.4224,-759.042 182.422,-759.042 "/>
<path fill="none" stroke="black" d="M182.422,-759.042C188.422,-759.042 194.422,-765.042 194.422,-771.042"/>
<polyline fill="none" stroke="black" points="194.422,-771.042 194.422,-993.042 "/>
<path fill="none" stroke="black" d="M194.422,-993.042C194.422,-999.042 188.422,-1005.04 182.422,-1005.04"/>
<polyline fill="none" stroke="black" points="182.422,-1005.04 66.4224,-1005.04 "/>
<path fill="none" stroke="black" d="M66.4224,-1005.04C60.4224,-1005.04 54.4224,-999.042 54.4224,-993.042"/>
<polyline fill="none" stroke="black" points="54.4224,-993.042 54.4224,-771.042 "/>
<path fill="none" stroke="black" d="M54.4224,-771.042C54.4224,-765.042 60.4224,-759.042 66.4224,-759.042"/>
<text text-anchor="middle" x="124.422" y="-988.442" font-family="Times Roman,serif" font-size="14.00">ProjectsController</text>
<polyline fill="none" stroke="black" points="54.4224,-979.042 194.422,-979.042 "/>
<text text-anchor="start" x="62.4224" y="-962.442" font-family="Times Roman,serif" font-size="14.00">apply</text>
<text text-anchor="start" x="62.4224" y="-944.442" font-family="Times Roman,serif" font-size="14.00">create</text>
<text text-anchor="start" x="62.4224" y="-926.442" font-family="Times Roman,serif" font-size="14.00">destroy</text>
<text text-anchor="start" x="62.4224" y="-908.442" font-family="Times Roman,serif" font-size="14.00">edit</text>
<text text-anchor="start" x="62.4224" y="-890.442" font-family="Times Roman,serif" font-size="14.00">index</text>
<text text-anchor="start" x="62.4224" y="-872.442" font-family="Times Roman,serif" font-size="14.00">new</text>
<text text-anchor="start" x="62.4224" y="-854.442" font-family="Times Roman,serif" font-size="14.00">search</text>
<text text-anchor="start" x="62.4224" y="-836.442" font-family="Times Roman,serif" font-size="14.00">show</text>
<text text-anchor="start" x="62.4224" y="-818.442" font-family="Times Roman,serif" font-size="14.00">update</text>
<polyline fill="none" stroke="black" points="54.4224,-809.042 194.422,-809.042 "/>
<polyline fill="none" stroke="black" points="54.4224,-785.042 194.422,-785.042 "/>
<text text-anchor="start" x="62.4224" y="-768.442" font-family="Times Roman,serif" font-size="14.00">_layout</text>
</g>
<!-- TeamsController -->
<g id="node3" class="node"><title>TeamsController</title>
<polyline fill="none" stroke="black" points="649.32,-777.786 753.32,-777.786 "/>
<path fill="none" stroke="black" d="M753.32,-777.786C759.32,-777.786 765.32,-783.786 765.32,-789.786"/>
<polyline fill="none" stroke="black" points="765.32,-789.786 765.32,-975.786 "/>
<path fill="none" stroke="black" d="M765.32,-975.786C765.32,-981.786 759.32,-987.786 753.32,-987.786"/>
<polyline fill="none" stroke="black" points="753.32,-987.786 649.32,-987.786 "/>
<path fill="none" stroke="black" d="M649.32,-987.786C643.32,-987.786 637.32,-981.786 637.32,-975.786"/>
<polyline fill="none" stroke="black" points="637.32,-975.786 637.32,-789.786 "/>
<path fill="none" stroke="black" d="M637.32,-789.786C637.32,-783.786 643.32,-777.786 649.32,-777.786"/>
<text text-anchor="middle" x="701.32" y="-971.186" font-family="Times Roman,serif" font-size="14.00">TeamsController</text>
<polyline fill="none" stroke="black" points="637.32,-961.786 765.32,-961.786 "/>
<text text-anchor="start" x="645.32" y="-945.186" font-family="Times Roman,serif" font-size="14.00">create</text>
<text text-anchor="start" x="645.32" y="-927.186" font-family="Times Roman,serif" font-size="14.00">destroy</text>
<text text-anchor="start" x="645.32" y="-909.186" font-family="Times Roman,serif" font-size="14.00">edit</text>
<text text-anchor="start" x="645.32" y="-891.186" font-family="Times Roman,serif" font-size="14.00">index</text>
<text text-anchor="start" x="645.32" y="-873.186" font-family="Times Roman,serif" font-size="14.00">new</text>
<text text-anchor="start" x="645.32" y="-855.186" font-family="Times Roman,serif" font-size="14.00">show</text>
<text text-anchor="start" x="645.32" y="-837.186" font-family="Times Roman,serif" font-size="14.00">update</text>
<polyline fill="none" stroke="black" points="637.32,-827.786 765.32,-827.786 "/>
<polyline fill="none" stroke="black" points="637.32,-803.786 765.32,-803.786 "/>
<text text-anchor="start" x="645.32" y="-787.186" font-family="Times Roman,serif" font-size="14.00">_layout</text>
</g>
<!-- PagesController -->
<g id="node4" class="node"><title>PagesController</title>
<polyline fill="none" stroke="black" points="341.712,-190.277 484.712,-190.277 "/>
<path fill="none" stroke="black" d="M484.712,-190.277C490.712,-190.277 496.712,-196.277 496.712,-202.277"/>
<polyline fill="none" stroke="black" points="496.712,-202.277 496.712,-388.277 "/>
<path fill="none" stroke="black" d="M496.712,-388.277C496.712,-394.277 490.712,-400.277 484.712,-400.277"/>
<polyline fill="none" stroke="black" points="484.712,-400.277 341.712,-400.277 "/>
<path fill="none" stroke="black" d="M341.712,-400.277C335.712,-400.277 329.712,-394.277 329.712,-388.277"/>
<polyline fill="none" stroke="black" points="329.712,-388.277 329.712,-202.277 "/>
<path fill="none" stroke="black" d="M329.712,-202.277C329.712,-196.277 335.712,-190.277 341.712,-190.277"/>
<text text-anchor="middle" x="413.212" y="-383.677" font-family="Times Roman,serif" font-size="14.00">PagesController</text>
<polyline fill="none" stroke="black" points="329.712,-374.277 496.712,-374.277 "/>
<text text-anchor="start" x="337.712" y="-357.677" font-family="Times Roman,serif" font-size="14.00">confirmation</text>
<text text-anchor="start" x="337.712" y="-339.677" font-family="Times Roman,serif" font-size="14.00">contact_us</text>
<text text-anchor="start" x="337.712" y="-321.677" font-family="Times Roman,serif" font-size="14.00">home</text>
<text text-anchor="start" x="337.712" y="-303.677" font-family="Times Roman,serif" font-size="14.00">our_policy</text>
<text text-anchor="start" x="337.712" y="-285.677" font-family="Times Roman,serif" font-size="14.00">register</text>
<text text-anchor="start" x="337.712" y="-267.677" font-family="Times Roman,serif" font-size="14.00">terms_and_conditions</text>
<text text-anchor="start" x="337.712" y="-249.677" font-family="Times Roman,serif" font-size="14.00">terms_of_use</text>
<polyline fill="none" stroke="black" points="329.712,-240.277 496.712,-240.277 "/>
<polyline fill="none" stroke="black" points="329.712,-216.277 496.712,-216.277 "/>
<text text-anchor="start" x="337.712" y="-199.677" font-family="Times Roman,serif" font-size="14.00">_layout</text>
</g>
<!-- AdvertsController -->
<g id="node5" class="node"><title>AdvertsController</title>
<polyline fill="none" stroke="black" points="355.21,-1044.54 470.21,-1044.54 "/>
<path fill="none" stroke="black" d="M470.21,-1044.54C476.21,-1044.54 482.21,-1050.54 482.21,-1056.54"/>
<polyline fill="none" stroke="black" points="482.21,-1056.54 482.21,-1242.54 "/>
<path fill="none" stroke="black" d="M482.21,-1242.54C482.21,-1248.54 476.21,-1254.54 470.21,-1254.54"/>
<polyline fill="none" stroke="black" points="470.21,-1254.54 355.21,-1254.54 "/>
<path fill="none" stroke="black" d="M355.21,-1254.54C349.21,-1254.54 343.21,-1248.54 343.21,-1242.54"/>
<polyline fill="none" stroke="black" points="343.21,-1242.54 343.21,-1056.54 "/>
<path fill="none" stroke="black" d="M343.21,-1056.54C343.21,-1050.54 349.21,-1044.54 355.21,-1044.54"/>
<text text-anchor="middle" x="412.71" y="-1237.94" font-family="Times Roman,serif" font-size="14.00">AdvertsController</text>
<polyline fill="none" stroke="black" points="343.21,-1228.54 482.21,-1228.54 "/>
<text text-anchor="start" x="351.21" y="-1211.94" font-family="Times Roman,serif" font-size="14.00">create</text>
<text text-anchor="start" x="351.21" y="-1193.94" font-family="Times Roman,serif" font-size="14.00">destroy</text>
<text text-anchor="start" x="351.21" y="-1175.94" font-family="Times Roman,serif" font-size="14.00">edit</text>
<text text-anchor="start" x="351.21" y="-1157.94" font-family="Times Roman,serif" font-size="14.00">index</text>
<text text-anchor="start" x="351.21" y="-1139.94" font-family="Times Roman,serif" font-size="14.00">new</text>
<text text-anchor="start" x="351.21" y="-1121.94" font-family="Times Roman,serif" font-size="14.00">show</text>
<text text-anchor="start" x="351.21" y="-1103.94" font-family="Times Roman,serif" font-size="14.00">update</text>
<polyline fill="none" stroke="black" points="343.21,-1094.54 482.21,-1094.54 "/>
<polyline fill="none" stroke="black" points="343.21,-1070.54 482.21,-1070.54 "/>
<text text-anchor="start" x="351.21" y="-1053.94" font-family="Times Roman,serif" font-size="14.00">_layout</text>
</g>
<!-- ClientsController -->
<g id="node6" class="node"><title>ClientsController</title>
<polyline fill="none" stroke="black" points="591.124,-1009.04 814.124,-1009.04 "/>
<path fill="none" stroke="black" d="M814.124,-1009.04C820.124,-1009.04 826.124,-1015.04 826.124,-1021.04"/>
<polyline fill="none" stroke="black" points="826.124,-1021.04 826.124,-1441.04 "/>
<path fill="none" stroke="black" d="M826.124,-1441.04C826.124,-1447.04 820.124,-1453.04 814.124,-1453.04"/>
<polyline fill="none" stroke="black" points="814.124,-1453.04 591.124,-1453.04 "/>
<path fill="none" stroke="black" d="M591.124,-1453.04C585.124,-1453.04 579.124,-1447.04 579.124,-1441.04"/>
<polyline fill="none" stroke="black" points="579.124,-1441.04 579.124,-1021.04 "/>
<path fill="none" stroke="black" d="M579.124,-1021.04C579.124,-1015.04 585.124,-1009.04 591.124,-1009.04"/>
<text text-anchor="middle" x="702.624" y="-1436.44" font-family="Times Roman,serif" font-size="14.00">ClientsController</text>
<polyline fill="none" stroke="black" points="579.124,-1427.04 826.124,-1427.04 "/>
<text text-anchor="start" x="587.124" y="-1410.44" font-family="Times Roman,serif" font-size="14.00">_one_time_conditions_valid_158?</text>
<text text-anchor="start" x="587.124" y="-1392.44" font-family="Times Roman,serif" font-size="14.00">add_job</text>
<text text-anchor="start" x="587.124" y="-1374.44" font-family="Times Roman,serif" font-size="14.00">clean_select_multiple_params</text>
<text text-anchor="start" x="587.124" y="-1356.44" font-family="Times Roman,serif" font-size="14.00">create_mentor</text>
<text text-anchor="start" x="587.124" y="-1338.44" font-family="Times Roman,serif" font-size="14.00">create_project</text>
<text text-anchor="start" x="587.124" y="-1320.44" font-family="Times Roman,serif" font-size="14.00">dashboard</text>
<text text-anchor="start" x="587.124" y="-1302.44" font-family="Times Roman,serif" font-size="14.00">edit_job</text>
<text text-anchor="start" x="587.124" y="-1284.44" font-family="Times Roman,serif" font-size="14.00">edit_mentor</text>
<text text-anchor="start" x="587.124" y="-1266.44" font-family="Times Roman,serif" font-size="14.00">edit_project</text>
<text text-anchor="start" x="587.124" y="-1248.44" font-family="Times Roman,serif" font-size="14.00">getMentorApplications</text>
<text text-anchor="start" x="587.124" y="-1230.44" font-family="Times Roman,serif" font-size="14.00">getProjectApplications</text>
<text text-anchor="start" x="587.124" y="-1212.44" font-family="Times Roman,serif" font-size="14.00">list_jobs</text>
<text text-anchor="start" x="587.124" y="-1194.44" font-family="Times Roman,serif" font-size="14.00">list_mentors</text>
<text text-anchor="start" x="587.124" y="-1176.44" font-family="Times Roman,serif" font-size="14.00">list_projects</text>
<text text-anchor="start" x="587.124" y="-1158.44" font-family="Times Roman,serif" font-size="14.00">new_mentor</text>
<text text-anchor="start" x="587.124" y="-1140.44" font-family="Times Roman,serif" font-size="14.00">new_project</text>
<text text-anchor="start" x="587.124" y="-1122.44" font-family="Times Roman,serif" font-size="14.00">profile</text>
<text text-anchor="start" x="587.124" y="-1104.44" font-family="Times Roman,serif" font-size="14.00">profile_update</text>
<text text-anchor="start" x="587.124" y="-1086.44" font-family="Times Roman,serif" font-size="14.00">update_mentor</text>
<text text-anchor="start" x="587.124" y="-1068.44" font-family="Times Roman,serif" font-size="14.00">update_project</text>
<polyline fill="none" stroke="black" points="579.124,-1059.04 826.124,-1059.04 "/>
<polyline fill="none" stroke="black" points="579.124,-1035.04 826.124,-1035.04 "/>
<text text-anchor="start" x="587.124" y="-1018.44" font-family="Times Roman,serif" font-size="14.00">_layout</text>
</g>
<!-- AboutUsController -->
<g id="node7" class="node"><title>AboutUsController</title>
<polyline fill="none" stroke="black" points="62.9972,-1143.75 182.997,-1143.75 "/>
<path fill="none" stroke="black" d="M182.997,-1143.75C188.997,-1143.75 194.997,-1149.75 194.997,-1155.75"/>
<polyline fill="none" stroke="black" points="194.997,-1155.75 194.997,-1305.75 "/>
<path fill="none" stroke="black" d="M194.997,-1305.75C194.997,-1311.75 188.997,-1317.75 182.997,-1317.75"/>
<polyline fill="none" stroke="black" points="182.997,-1317.75 62.9972,-1317.75 "/>
<path fill="none" stroke="black" d="M62.9972,-1317.75C56.9972,-1317.75 50.9972,-1311.75 50.9972,-1305.75"/>
<polyline fill="none" stroke="black" points="50.9972,-1305.75 50.9972,-1155.75 "/>
<path fill="none" stroke="black" d="M50.9972,-1155.75C50.9972,-1149.75 56.9972,-1143.75 62.9972,-1143.75"/>
<text text-anchor="middle" x="122.997" y="-1301.15" font-family="Times Roman,serif" font-size="14.00">AboutUsController</text>
<polyline fill="none" stroke="black" points="50.9972,-1291.75 194.997,-1291.75 "/>
<text text-anchor="start" x="58.9972" y="-1275.15" font-family="Times Roman,serif" font-size="14.00">how_it_works</text>
<text text-anchor="start" x="58.9972" y="-1257.15" font-family="Times Roman,serif" font-size="14.00">index</text>
<text text-anchor="start" x="58.9972" y="-1239.15" font-family="Times Roman,serif" font-size="14.00">meet_the_team</text>
<text text-anchor="start" x="58.9972" y="-1221.15" font-family="Times Roman,serif" font-size="14.00">our_philosophy</text>
<text text-anchor="start" x="58.9972" y="-1203.15" font-family="Times Roman,serif" font-size="14.00">what_we_do</text>
<polyline fill="none" stroke="black" points="50.9972,-1193.75 194.997,-1193.75 "/>
<polyline fill="none" stroke="black" points="50.9972,-1169.75 194.997,-1169.75 "/>
<text text-anchor="start" x="58.9972" y="-1153.15" font-family="Times Roman,serif" font-size="14.00">_layout</text>
</g>
<!-- MentorsController -->
<g id="node8" class="node"><title>MentorsController</title>
<polyline fill="none" stroke="black" points="64.1714,-91.2037 182.171,-91.2037 "/>
<path fill="none" stroke="black" d="M182.171,-91.2037C188.171,-91.2037 194.171,-97.2037 194.171,-103.204"/>
<polyline fill="none" stroke="black" points="194.171,-103.204 194.171,-325.204 "/>
<path fill="none" stroke="black" d="M194.171,-325.204C194.171,-331.204 188.171,-337.204 182.171,-337.204"/>
<polyline fill="none" stroke="black" points="182.171,-337.204 64.1714,-337.204 "/>
<path fill="none" stroke="black" d="M64.1714,-337.204C58.1714,-337.204 52.1714,-331.204 52.1714,-325.204"/>
<polyline fill="none" stroke="black" points="52.1714,-325.204 52.1714,-103.204 "/>
<path fill="none" stroke="black" d="M52.1714,-103.204C52.1714,-97.2037 58.1714,-91.2037 64.1714,-91.2037"/>
<text text-anchor="middle" x="123.171" y="-320.604" font-family="Times Roman,serif" font-size="14.00">MentorsController</text>
<polyline fill="none" stroke="black" points="52.1714,-311.204 194.171,-311.204 "/>
<text text-anchor="start" x="60.1714" y="-294.604" font-family="Times Roman,serif" font-size="14.00">apply</text>
<text text-anchor="start" x="60.1714" y="-276.604" font-family="Times Roman,serif" font-size="14.00">create</text>
<text text-anchor="start" x="60.1714" y="-258.604" font-family="Times Roman,serif" font-size="14.00">destroy</text>
<text text-anchor="start" x="60.1714" y="-240.604" font-family="Times Roman,serif" font-size="14.00">edit</text>
<text text-anchor="start" x="60.1714" y="-222.604" font-family="Times Roman,serif" font-size="14.00">index</text>
<text text-anchor="start" x="60.1714" y="-204.604" font-family="Times Roman,serif" font-size="14.00">new</text>
<text text-anchor="start" x="60.1714" y="-186.604" font-family="Times Roman,serif" font-size="14.00">search</text>
<text text-anchor="start" x="60.1714" y="-168.604" font-family="Times Roman,serif" font-size="14.00">show</text>
<text text-anchor="start" x="60.1714" y="-150.604" font-family="Times Roman,serif" font-size="14.00">update</text>
<polyline fill="none" stroke="black" points="52.1714,-141.204 194.171,-141.204 "/>
<polyline fill="none" stroke="black" points="52.1714,-117.204 194.171,-117.204 "/>
<text text-anchor="start" x="60.1714" y="-100.604" font-family="Times Roman,serif" font-size="14.00">_layout</text>
</g>
<!-- EmployerProfilesController -->
<g id="node9" class="node"><title>EmployerProfilesController</title>
<polyline fill="none" stroke="black" points="613.544,-457.92 789.544,-457.92 "/>
<path fill="none" stroke="black" d="M789.544,-457.92C795.544,-457.92 801.544,-463.92 801.544,-469.92"/>
<polyline fill="none" stroke="black" points="801.544,-469.92 801.544,-655.92 "/>
<path fill="none" stroke="black" d="M801.544,-655.92C801.544,-661.92 795.544,-667.92 789.544,-667.92"/>
<polyline fill="none" stroke="black" points="789.544,-667.92 613.544,-667.92 "/>
<path fill="none" stroke="black" d="M613.544,-667.92C607.544,-667.92 601.544,-661.92 601.544,-655.92"/>
<polyline fill="none" stroke="black" points="601.544,-655.92 601.544,-469.92 "/>
<path fill="none" stroke="black" d="M601.544,-469.92C601.544,-463.92 607.544,-457.92 613.544,-457.92"/>
<text text-anchor="middle" x="701.544" y="-651.32" font-family="Times Roman,serif" font-size="14.00">EmployerProfilesController</text>
<polyline fill="none" stroke="black" points="601.544,-641.92 801.544,-641.92 "/>
<text text-anchor="start" x="609.544" y="-625.32" font-family="Times Roman,serif" font-size="14.00">create</text>
<text text-anchor="start" x="609.544" y="-607.32" font-family="Times Roman,serif" font-size="14.00">destroy</text>
<text text-anchor="start" x="609.544" y="-589.32" font-family="Times Roman,serif" font-size="14.00">edit</text>
<text text-anchor="start" x="609.544" y="-571.32" font-family="Times Roman,serif" font-size="14.00">index</text>
<text text-anchor="start" x="609.544" y="-553.32" font-family="Times Roman,serif" font-size="14.00">new</text>
<text text-anchor="start" x="609.544" y="-535.32" font-family="Times Roman,serif" font-size="14.00">show</text>
<text text-anchor="start" x="609.544" y="-517.32" font-family="Times Roman,serif" font-size="14.00">update</text>
<polyline fill="none" stroke="black" points="601.544,-507.92 801.544,-507.92 "/>
<polyline fill="none" stroke="black" points="601.544,-483.92 801.544,-483.92 "/>
<text text-anchor="start" x="609.544" y="-467.32" font-family="Times Roman,serif" font-size="14.00">_layout</text>
</g>
<!-- AdminController -->
<g id="node10" class="node"><title>AdminController</title>
<polyline fill="none" stroke="black" points="13,-421.172 236,-421.172 "/>
<path fill="none" stroke="black" d="M236,-421.172C242,-421.172 248,-427.172 248,-433.172"/>
<polyline fill="none" stroke="black" points="248,-433.172 248,-691.172 "/>
<path fill="none" stroke="black" d="M248,-691.172C248,-697.172 242,-703.172 236,-703.172"/>
<polyline fill="none" stroke="black" points="236,-703.172 13,-703.172 "/>
<path fill="none" stroke="black" d="M13,-703.172C7,-703.172 1,-697.172 1,-691.172"/>
<polyline fill="none" stroke="black" points="1,-691.172 1,-433.172 "/>
<path fill="none" stroke="black" d="M1,-433.172C1,-427.172 7,-421.172 13,-421.172"/>
<text text-anchor="middle" x="124.5" y="-686.572" font-family="Times Roman,serif" font-size="14.00">AdminController</text>
<polyline fill="none" stroke="black" points="1,-677.172 248,-677.172 "/>
<text text-anchor="start" x="9" y="-660.572" font-family="Times Roman,serif" font-size="14.00">_one_time_conditions_valid_206?</text>
<text text-anchor="start" x="9" y="-642.572" font-family="Times Roman,serif" font-size="14.00">adverts</text>
<text text-anchor="start" x="9" y="-624.572" font-family="Times Roman,serif" font-size="14.00">clients</text>
<text text-anchor="start" x="9" y="-606.572" font-family="Times Roman,serif" font-size="14.00">dashboard</text>
<text text-anchor="start" x="9" y="-588.572" font-family="Times Roman,serif" font-size="14.00">employer_profiles</text>
<text text-anchor="start" x="9" y="-570.572" font-family="Times Roman,serif" font-size="14.00">jobs</text>
<text text-anchor="start" x="9" y="-552.572" font-family="Times Roman,serif" font-size="14.00">login</text>
<text text-anchor="start" x="9" y="-534.572" font-family="Times Roman,serif" font-size="14.00">members</text>
<text text-anchor="start" x="9" y="-516.572" font-family="Times Roman,serif" font-size="14.00">mentors</text>
<text text-anchor="start" x="9" y="-498.572" font-family="Times Roman,serif" font-size="14.00">projects</text>
<text text-anchor="start" x="9" y="-480.572" font-family="Times Roman,serif" font-size="14.00">team</text>
<polyline fill="none" stroke="black" points="1,-471.172 248,-471.172 "/>
<polyline fill="none" stroke="black" points="1,-447.172 248,-447.172 "/>
<text text-anchor="start" x="9" y="-430.572" font-family="Times Roman,serif" font-size="14.00">_layout</text>
</g>
<!-- MembersController -->
<g id="node11" class="node"><title>MembersController</title>
<polyline fill="none" stroke="black" points="591.51,-1.5 814.51,-1.5 "/>
<path fill="none" stroke="black" d="M814.51,-1.5C820.51,-1.5 826.51,-7.5 826.51,-13.5"/>
<polyline fill="none" stroke="black" points="826.51,-13.5 826.51,-415.5 "/>
<path fill="none" stroke="black" d="M826.51,-415.5C826.51,-421.5 820.51,-427.5 814.51,-427.5"/>
<polyline fill="none" stroke="black" points="814.51,-427.5 591.51,-427.5 "/>
<path fill="none" stroke="black" d="M591.51,-427.5C585.51,-427.5 579.51,-421.5 579.51,-415.5"/>
<polyline fill="none" stroke="black" points="579.51,-415.5 579.51,-13.5 "/>
<path fill="none" stroke="black" d="M579.51,-13.5C579.51,-7.5 585.51,-1.5 591.51,-1.5"/>
<text text-anchor="middle" x="703.01" y="-410.9" font-family="Times Roman,serif" font-size="14.00">MembersController</text>
<polyline fill="none" stroke="black" points="579.51,-401.5 826.51,-401.5 "/>
<text text-anchor="start" x="587.51" y="-384.9" font-family="Times Roman,serif" font-size="14.00">_one_time_conditions_valid_208?</text>
<text text-anchor="start" x="587.51" y="-366.9" font-family="Times Roman,serif" font-size="14.00">_one_time_conditions_valid_210?</text>
<text text-anchor="start" x="587.51" y="-348.9" font-family="Times Roman,serif" font-size="14.00">applications</text>
<text text-anchor="start" x="587.51" y="-330.9" font-family="Times Roman,serif" font-size="14.00">clean_select_multiple_params</text>
<text text-anchor="start" x="587.51" y="-312.9" font-family="Times Roman,serif" font-size="14.00">create_mentor</text>
<text text-anchor="start" x="587.51" y="-294.9" font-family="Times Roman,serif" font-size="14.00">dashboard</text>
<text text-anchor="start" x="587.51" y="-276.9" font-family="Times Roman,serif" font-size="14.00">destroy</text>
<text text-anchor="start" x="587.51" y="-258.9" font-family="Times Roman,serif" font-size="14.00">destroy_mentor</text>
<text text-anchor="start" x="587.51" y="-240.9" font-family="Times Roman,serif" font-size="14.00">edit_mentor</text>
<text text-anchor="start" x="587.51" y="-222.9" font-family="Times Roman,serif" font-size="14.00">getMemberJobApplications</text>
<text text-anchor="start" x="587.51" y="-204.9" font-family="Times Roman,serif" font-size="14.00">getMemberMentorApplications</text>
<text text-anchor="start" x="587.51" y="-186.9" font-family="Times Roman,serif" font-size="14.00">getMemberProjectApplications</text>
<text text-anchor="start" x="587.51" y="-168.9" font-family="Times Roman,serif" font-size="14.00">getMentorId</text>
<text text-anchor="start" x="587.51" y="-150.9" font-family="Times Roman,serif" font-size="14.00">new_mentor</text>
<text text-anchor="start" x="587.51" y="-132.9" font-family="Times Roman,serif" font-size="14.00">profile</text>
<text text-anchor="start" x="587.51" y="-114.9" font-family="Times Roman,serif" font-size="14.00">setVars</text>
<text text-anchor="start" x="587.51" y="-96.9" font-family="Times Roman,serif" font-size="14.00">settings</text>
<text text-anchor="start" x="587.51" y="-78.9" font-family="Times Roman,serif" font-size="14.00">update</text>
<text text-anchor="start" x="587.51" y="-60.9" font-family="Times Roman,serif" font-size="14.00">update_mentor</text>
<polyline fill="none" stroke="black" points="579.51,-51.5 826.51,-51.5 "/>
<polyline fill="none" stroke="black" points="579.51,-27.5 826.51,-27.5 "/>
<text text-anchor="start" x="587.51" y="-10.9" font-family="Times Roman,serif" font-size="14.00">_layout</text>
</g>
<!-- ApplicationController -->
<g id="node12" class="node"><title>ApplicationController</title>
<polyline fill="none" stroke="black" points="282.953,-662.273 542.953,-662.273 "/>
<path fill="none" stroke="black" d="M542.953,-662.273C548.953,-662.273 554.953,-668.273 554.953,-674.273"/>
<polyline fill="none" stroke="black" points="554.953,-674.273 554.953,-770.273 "/>
<path fill="none" stroke="black" d="M554.953,-770.273C554.953,-776.273 548.953,-782.273 542.953,-782.273"/>
<polyline fill="none" stroke="black" points="542.953,-782.273 282.953,-782.273 "/>
<path fill="none" stroke="black" d="M282.953,-782.273C276.953,-782.273 270.953,-776.273 270.953,-770.273"/>
<polyline fill="none" stroke="black" points="270.953,-770.273 270.953,-674.273 "/>
<path fill="none" stroke="black" d="M270.953,-674.273C270.953,-668.273 276.953,-662.273 282.953,-662.273"/>
<text text-anchor="middle" x="412.953" y="-765.673" font-family="Times Roman,serif" font-size="14.00">ApplicationController</text>
<polyline fill="none" stroke="black" points="270.953,-756.273 554.953,-756.273 "/>
<text text-anchor="start" x="278.953" y="-739.673" font-family="Times Roman,serif" font-size="14.00">_one_time_conditions_valid_116?</text>
<text text-anchor="start" x="278.953" y="-721.673" font-family="Times Roman,serif" font-size="14.00">can_member_make_application_checks</text>
<polyline fill="none" stroke="black" points="270.953,-712.273 554.953,-712.273 "/>
<polyline fill="none" stroke="black" points="270.953,-688.273 554.953,-688.273 "/>
<text text-anchor="start" x="278.953" y="-671.673" font-family="Times Roman,serif" font-size="14.00">_layout</text>
</g>
<!-- ApplicationController&#45;&gt;ProjectsController -->
<g id="edge2" class="edge"><title>ApplicationController&#45;&gt;ProjectsController</title>
<path fill="none" stroke="black" d="M304.283,-782.447C267.542,-802.792 227.515,-824.956 194.568,-843.2"/>
</g>
<!-- ApplicationController&#45;&gt;TeamsController -->
<g id="edge4" class="edge"><title>ApplicationController&#45;&gt;TeamsController</title>
<path fill="none" stroke="black" d="M521.151,-782.499C560.146,-804.204 602.892,-827.998 636.958,-846.961"/>
</g>
<!-- ApplicationController&#45;&gt;PagesController -->
<g id="edge6" class="edge"><title>ApplicationController&#45;&gt;PagesController</title>
<path fill="none" stroke="black" d="M412.989,-662C413.031,-594.184 413.098,-482.773 413.148,-400.516"/>
</g>
<!-- ApplicationController&#45;&gt;AdvertsController -->
<g id="edge8" class="edge"><title>ApplicationController&#45;&gt;AdvertsController</title>
<path fill="none" stroke="black" d="M412.919,-782.583C412.88,-850.443 412.817,-961.924 412.77,-1044.23"/>
</g>
<!-- ApplicationController&#45;&gt;ClientsController -->
<g id="edge10" class="edge"><title>ApplicationController&#45;&gt;ClientsController</title>
<path fill="none" stroke="black" d="M447.176,-782.382C479.851,-839.77 531.085,-929.757 579.119,-1014.12"/>
</g>
<!-- ApplicationController&#45;&gt;AboutUsController -->
<g id="edge12" class="edge"><title>ApplicationController&#45;&gt;AboutUsController</title>
<path fill="none" stroke="black" d="M378.696,-782.347C327.669,-871.828 231.422,-1040.61 172.67,-1143.64"/>
</g>
<!-- ApplicationController&#45;&gt;MentorsController -->
<g id="edge14" class="edge"><title>ApplicationController&#45;&gt;MentorsController</title>
<path fill="none" stroke="black" d="M382.598,-662.098C350.996,-600.202 299.461,-501.336 251.2,-417.972 233.355,-387.147 213.198,-354.256 194.247,-324.092"/>
</g>
<!-- ApplicationController&#45;&gt;EmployerProfilesController -->
<g id="edge16" class="edge"><title>ApplicationController&#45;&gt;EmployerProfilesController</title>
<path fill="none" stroke="black" d="M521.645,-662.255C547.849,-647.786 575.724,-632.394 601.51,-618.156"/>
</g>
<!-- ApplicationController&#45;&gt;AdminController -->
<g id="edge18" class="edge"><title>ApplicationController&#45;&gt;AdminController</title>
<path fill="none" stroke="black" d="M304.723,-662.201C286.339,-651.998 267.121,-641.331 248.371,-630.924"/>
</g>
<!-- ApplicationController&#45;&gt;MembersController -->
<g id="edge20" class="edge"><title>ApplicationController&#45;&gt;MembersController</title>
<path fill="none" stroke="black" d="M447.365,-662.03C480.529,-603.973 532.694,-512.655 581.277,-427.606"/>
</g>
</g>
</svg>
