<?xml version="1.0" encoding="UTF-8" standalone="no"?>
<!DOCTYPE svg PUBLIC "-//W3C//DTD SVG 1.1//EN"
 "http://www.w3.org/Graphics/SVG/1.1/DTD/svg11.dtd">
<!-- Generated by graphviz version 2.26.3 (20100126.1600)
 -->
<!-- Title: controllers_diagram Pages: 1 -->
<svg width="1244pt" height="1201pt"
 viewBox="0.00 0.00 1244.00 1200.60" xmlns="http://www.w3.org/2000/svg" xmlns:xlink="http://www.w3.org/1999/xlink">
<g id="graph1" class="graph" transform="scale(1 1) rotate(0) translate(4 1196.6)">
<title>controllers_diagram</title>
<polygon fill="white" stroke="white" points="-4,5 -4,-1196.6 1241,-1196.6 1241,5 -4,5"/>
<!-- _diagram_info -->
<g id="node1" class="node"><title>_diagram_info</title>
<text text-anchor="start" x="993" y="-488.3" font-family="Times Roman,serif" font-size="13.00">Controllers diagram</text>
<text text-anchor="start" x="993" y="-471.3" font-family="Times Roman,serif" font-size="13.00">Date: Jul 15 2013 &#45; 01:03</text>
<text text-anchor="start" x="993" y="-454.3" font-family="Times Roman,serif" font-size="13.00">Migration version: 20130627205026</text>
<text text-anchor="start" x="993" y="-437.3" font-family="Times Roman,serif" font-size="13.00">Generated by RailRoady 1.1.0</text>
<text text-anchor="start" x="993" y="-420.3" font-family="Times Roman,serif" font-size="13.00">http://railroady.prestonlee.com</text>
</g>
<!-- ProjectsController -->
<g id="node2" class="node"><title>ProjectsController</title>
<polyline fill="none" stroke="black" points="66.3777,-593.598 182.378,-593.598 "/>
<path fill="none" stroke="black" d="M182.378,-593.598C188.378,-593.598 194.378,-599.598 194.378,-605.598"/>
<polyline fill="none" stroke="black" points="194.378,-605.598 194.378,-827.598 "/>
<path fill="none" stroke="black" d="M194.378,-827.598C194.378,-833.598 188.378,-839.598 182.378,-839.598"/>
<polyline fill="none" stroke="black" points="182.378,-839.598 66.3777,-839.598 "/>
<path fill="none" stroke="black" d="M66.3777,-839.598C60.3777,-839.598 54.3777,-833.598 54.3777,-827.598"/>
<polyline fill="none" stroke="black" points="54.3777,-827.598 54.3777,-605.598 "/>
<path fill="none" stroke="black" d="M54.3777,-605.598C54.3777,-599.598 60.3777,-593.598 66.3777,-593.598"/>
<text text-anchor="middle" x="124.378" y="-822.998" font-family="Times Roman,serif" font-size="14.00">ProjectsController</text>
<polyline fill="none" stroke="black" points="54.3777,-813.598 194.378,-813.598 "/>
<text text-anchor="start" x="62.3777" y="-796.998" font-family="Times Roman,serif" font-size="14.00">apply</text>
<text text-anchor="start" x="62.3777" y="-778.998" font-family="Times Roman,serif" font-size="14.00">create</text>
<text text-anchor="start" x="62.3777" y="-760.998" font-family="Times Roman,serif" font-size="14.00">destroy</text>
<text text-anchor="start" x="62.3777" y="-742.998" font-family="Times Roman,serif" font-size="14.00">edit</text>
<text text-anchor="start" x="62.3777" y="-724.998" font-family="Times Roman,serif" font-size="14.00">index</text>
<text text-anchor="start" x="62.3777" y="-706.998" font-family="Times Roman,serif" font-size="14.00">new</text>
<text text-anchor="start" x="62.3777" y="-688.998" font-family="Times Roman,serif" font-size="14.00">search</text>
<text text-anchor="start" x="62.3777" y="-670.998" font-family="Times Roman,serif" font-size="14.00">show</text>
<text text-anchor="start" x="62.3777" y="-652.998" font-family="Times Roman,serif" font-size="14.00">update</text>
<polyline fill="none" stroke="black" points="54.3777,-643.598 194.378,-643.598 "/>
<polyline fill="none" stroke="black" points="54.3777,-619.598 194.378,-619.598 "/>
<text text-anchor="start" x="62.3777" y="-602.998" font-family="Times Roman,serif" font-size="14.00">_layout</text>
</g>
<!-- TeamsController -->
<g id="node3" class="node"><title>TeamsController</title>
<polyline fill="none" stroke="black" points="726.943,-612.14 830.943,-612.14 "/>
<path fill="none" stroke="black" d="M830.943,-612.14C836.943,-612.14 842.943,-618.14 842.943,-624.14"/>
<polyline fill="none" stroke="black" points="842.943,-624.14 842.943,-810.14 "/>
<path fill="none" stroke="black" d="M842.943,-810.14C842.943,-816.14 836.943,-822.14 830.943,-822.14"/>
<polyline fill="none" stroke="black" points="830.943,-822.14 726.943,-822.14 "/>
<path fill="none" stroke="black" d="M726.943,-822.14C720.943,-822.14 714.943,-816.14 714.943,-810.14"/>
<polyline fill="none" stroke="black" points="714.943,-810.14 714.943,-624.14 "/>
<path fill="none" stroke="black" d="M714.943,-624.14C714.943,-618.14 720.943,-612.14 726.943,-612.14"/>
<text text-anchor="middle" x="778.943" y="-805.54" font-family="Times Roman,serif" font-size="14.00">TeamsController</text>
<polyline fill="none" stroke="black" points="714.943,-796.14 842.943,-796.14 "/>
<text text-anchor="start" x="722.943" y="-779.54" font-family="Times Roman,serif" font-size="14.00">create</text>
<text text-anchor="start" x="722.943" y="-761.54" font-family="Times Roman,serif" font-size="14.00">destroy</text>
<text text-anchor="start" x="722.943" y="-743.54" font-family="Times Roman,serif" font-size="14.00">edit</text>
<text text-anchor="start" x="722.943" y="-725.54" font-family="Times Roman,serif" font-size="14.00">index</text>
<text text-anchor="start" x="722.943" y="-707.54" font-family="Times Roman,serif" font-size="14.00">new</text>
<text text-anchor="start" x="722.943" y="-689.54" font-family="Times Roman,serif" font-size="14.00">show</text>
<text text-anchor="start" x="722.943" y="-671.54" font-family="Times Roman,serif" font-size="14.00">update</text>
<polyline fill="none" stroke="black" points="714.943,-662.14 842.943,-662.14 "/>
<polyline fill="none" stroke="black" points="714.943,-638.14 842.943,-638.14 "/>
<text text-anchor="start" x="722.943" y="-621.54" font-family="Times Roman,serif" font-size="14.00">_layout</text>
</g>
<!-- PagesController -->
<g id="node4" class="node"><title>PagesController</title>
<polyline fill="none" stroke="black" points="380.415,-80.8919 523.415,-80.8919 "/>
<path fill="none" stroke="black" d="M523.415,-80.8919C529.415,-80.8919 535.415,-86.8919 535.415,-92.8919"/>
<polyline fill="none" stroke="black" points="535.415,-92.8919 535.415,-278.892 "/>
<path fill="none" stroke="black" d="M535.415,-278.892C535.415,-284.892 529.415,-290.892 523.415,-290.892"/>
<polyline fill="none" stroke="black" points="523.415,-290.892 380.415,-290.892 "/>
<path fill="none" stroke="black" d="M380.415,-290.892C374.415,-290.892 368.415,-284.892 368.415,-278.892"/>
<polyline fill="none" stroke="black" points="368.415,-278.892 368.415,-92.8919 "/>
<path fill="none" stroke="black" d="M368.415,-92.8919C368.415,-86.8919 374.415,-80.8919 380.415,-80.8919"/>
<text text-anchor="middle" x="451.915" y="-274.292" font-family="Times Roman,serif" font-size="14.00">PagesController</text>
<polyline fill="none" stroke="black" points="368.415,-264.892 535.415,-264.892 "/>
<text text-anchor="start" x="376.415" y="-248.292" font-family="Times Roman,serif" font-size="14.00">confirmation</text>
<text text-anchor="start" x="376.415" y="-230.292" font-family="Times Roman,serif" font-size="14.00">contact_us</text>
<text text-anchor="start" x="376.415" y="-212.292" font-family="Times Roman,serif" font-size="14.00">home</text>
<text text-anchor="start" x="376.415" y="-194.292" font-family="Times Roman,serif" font-size="14.00">our_policy</text>
<text text-anchor="start" x="376.415" y="-176.292" font-family="Times Roman,serif" font-size="14.00">register</text>
<text text-anchor="start" x="376.415" y="-158.292" font-family="Times Roman,serif" font-size="14.00">terms_and_conditions</text>
<text text-anchor="start" x="376.415" y="-140.292" font-family="Times Roman,serif" font-size="14.00">terms_of_use</text>
<polyline fill="none" stroke="black" points="368.415,-130.892 535.415,-130.892 "/>
<polyline fill="none" stroke="black" points="368.415,-106.892 535.415,-106.892 "/>
<text text-anchor="start" x="376.415" y="-90.2919" font-family="Times Roman,serif" font-size="14.00">_layout</text>
</g>
<!-- AdvertsController -->
<g id="node5" class="node"><title>AdvertsController</title>
<polyline fill="none" stroke="black" points="394.075,-856.513 509.075,-856.513 "/>
<path fill="none" stroke="black" d="M509.075,-856.513C515.075,-856.513 521.075,-862.513 521.075,-868.513"/>
<polyline fill="none" stroke="black" points="521.075,-868.513 521.075,-1054.51 "/>
<path fill="none" stroke="black" d="M521.075,-1054.51C521.075,-1060.51 515.075,-1066.51 509.075,-1066.51"/>
<polyline fill="none" stroke="black" points="509.075,-1066.51 394.075,-1066.51 "/>
<path fill="none" stroke="black" d="M394.075,-1066.51C388.075,-1066.51 382.075,-1060.51 382.075,-1054.51"/>
<polyline fill="none" stroke="black" points="382.075,-1054.51 382.075,-868.513 "/>
<path fill="none" stroke="black" d="M382.075,-868.513C382.075,-862.513 388.075,-856.513 394.075,-856.513"/>
<text text-anchor="middle" x="451.575" y="-1049.91" font-family="Times Roman,serif" font-size="14.00">AdvertsController</text>
<polyline fill="none" stroke="black" points="382.075,-1040.51 521.075,-1040.51 "/>
<text text-anchor="start" x="390.075" y="-1023.91" font-family="Times Roman,serif" font-size="14.00">create</text>
<text text-anchor="start" x="390.075" y="-1005.91" font-family="Times Roman,serif" font-size="14.00">destroy</text>
<text text-anchor="start" x="390.075" y="-987.913" font-family="Times Roman,serif" font-size="14.00">edit</text>
<text text-anchor="start" x="390.075" y="-969.913" font-family="Times Roman,serif" font-size="14.00">index</text>
<text text-anchor="start" x="390.075" y="-951.913" font-family="Times Roman,serif" font-size="14.00">new</text>
<text text-anchor="start" x="390.075" y="-933.913" font-family="Times Roman,serif" font-size="14.00">show</text>
<text text-anchor="start" x="390.075" y="-915.913" font-family="Times Roman,serif" font-size="14.00">update</text>
<polyline fill="none" stroke="black" points="382.075,-906.513 521.075,-906.513 "/>
<polyline fill="none" stroke="black" points="382.075,-882.513 521.075,-882.513 "/>
<text text-anchor="start" x="390.075" y="-865.913" font-family="Times Roman,serif" font-size="14.00">_layout</text>
</g>
<!-- ClientsController -->
<g id="node6" class="node"><title>ClientsController</title>
<polyline fill="none" stroke="black" points="674.011,-837.096 897.011,-837.096 "/>
<path fill="none" stroke="black" d="M897.011,-837.096C903.011,-837.096 909.011,-843.096 909.011,-849.096"/>
<polyline fill="none" stroke="black" points="909.011,-849.096 909.011,-1179.1 "/>
<path fill="none" stroke="black" d="M909.011,-1179.1C909.011,-1185.1 903.011,-1191.1 897.011,-1191.1"/>
<polyline fill="none" stroke="black" points="897.011,-1191.1 674.011,-1191.1 "/>
<path fill="none" stroke="black" d="M674.011,-1191.1C668.011,-1191.1 662.011,-1185.1 662.011,-1179.1"/>
<polyline fill="none" stroke="black" points="662.011,-1179.1 662.011,-849.096 "/>
<path fill="none" stroke="black" d="M662.011,-849.096C662.011,-843.096 668.011,-837.096 674.011,-837.096"/>
<text text-anchor="middle" x="785.511" y="-1174.5" font-family="Times Roman,serif" font-size="14.00">ClientsController</text>
<polyline fill="none" stroke="black" points="662.011,-1165.1 909.011,-1165.1 "/>
<text text-anchor="start" x="670.011" y="-1148.5" font-family="Times Roman,serif" font-size="14.00">_one_time_conditions_valid_118?</text>
<text text-anchor="start" x="670.011" y="-1130.5" font-family="Times Roman,serif" font-size="14.00">add_job</text>
<text text-anchor="start" x="670.011" y="-1112.5" font-family="Times Roman,serif" font-size="14.00">add_project</text>
<text text-anchor="start" x="670.011" y="-1094.5" font-family="Times Roman,serif" font-size="14.00">clean_select_multiple_params</text>
<text text-anchor="start" x="670.011" y="-1076.5" font-family="Times Roman,serif" font-size="14.00">create_mentor</text>
<text text-anchor="start" x="670.011" y="-1058.5" font-family="Times Roman,serif" font-size="14.00">create_project</text>
<text text-anchor="start" x="670.011" y="-1040.5" font-family="Times Roman,serif" font-size="14.00">dashboard</text>
<text text-anchor="start" x="670.011" y="-1022.5" font-family="Times Roman,serif" font-size="14.00">edit_job</text>
<text text-anchor="start" x="670.011" y="-1004.5" font-family="Times Roman,serif" font-size="14.00">edit_mentor</text>
<text text-anchor="start" x="670.011" y="-986.496" font-family="Times Roman,serif" font-size="14.00">edit_project</text>
<text text-anchor="start" x="670.011" y="-968.496" font-family="Times Roman,serif" font-size="14.00">list_jobs</text>
<text text-anchor="start" x="670.011" y="-950.496" font-family="Times Roman,serif" font-size="14.00">list_mentors</text>
<text text-anchor="start" x="670.011" y="-932.496" font-family="Times Roman,serif" font-size="14.00">list_projects</text>
<text text-anchor="start" x="670.011" y="-914.496" font-family="Times Roman,serif" font-size="14.00">new_mentor</text>
<text text-anchor="start" x="670.011" y="-896.496" font-family="Times Roman,serif" font-size="14.00">profle</text>
<polyline fill="none" stroke="black" points="662.011,-887.096 909.011,-887.096 "/>
<polyline fill="none" stroke="black" points="662.011,-863.096 909.011,-863.096 "/>
<text text-anchor="start" x="670.011" y="-846.496" font-family="Times Roman,serif" font-size="14.00">_layout</text>
</g>
<!-- AboutUsController -->
<g id="node7" class="node"><title>AboutUsController</title>
<polyline fill="none" stroke="black" points="57.7948,-926.877 177.795,-926.877 "/>
<path fill="none" stroke="black" d="M177.795,-926.877C183.795,-926.877 189.795,-932.877 189.795,-938.877"/>
<polyline fill="none" stroke="black" points="189.795,-938.877 189.795,-1088.88 "/>
<path fill="none" stroke="black" d="M189.795,-1088.88C189.795,-1094.88 183.795,-1100.88 177.795,-1100.88"/>
<polyline fill="none" stroke="black" points="177.795,-1100.88 57.7948,-1100.88 "/>
<path fill="none" stroke="black" d="M57.7948,-1100.88C51.7948,-1100.88 45.7948,-1094.88 45.7948,-1088.88"/>
<polyline fill="none" stroke="black" points="45.7948,-1088.88 45.7948,-938.877 "/>
<path fill="none" stroke="black" d="M45.7948,-938.877C45.7948,-932.877 51.7948,-926.877 57.7948,-926.877"/>
<text text-anchor="middle" x="117.795" y="-1084.28" font-family="Times Roman,serif" font-size="14.00">AboutUsController</text>
<polyline fill="none" stroke="black" points="45.7948,-1074.88 189.795,-1074.88 "/>
<text text-anchor="start" x="53.7948" y="-1058.28" font-family="Times Roman,serif" font-size="14.00">how_it_works</text>
<text text-anchor="start" x="53.7948" y="-1040.28" font-family="Times Roman,serif" font-size="14.00">index</text>
<text text-anchor="start" x="53.7948" y="-1022.28" font-family="Times Roman,serif" font-size="14.00">meet_the_team</text>
<text text-anchor="start" x="53.7948" y="-1004.28" font-family="Times Roman,serif" font-size="14.00">our_philosophy</text>
<text text-anchor="start" x="53.7948" y="-986.277" font-family="Times Roman,serif" font-size="14.00">what_we_do</text>
<polyline fill="none" stroke="black" points="45.7948,-976.877 189.795,-976.877 "/>
<polyline fill="none" stroke="black" points="45.7948,-952.877 189.795,-952.877 "/>
<text text-anchor="start" x="53.7948" y="-936.277" font-family="Times Roman,serif" font-size="14.00">_layout</text>
</g>
<!-- MentorsController -->
<g id="node8" class="node"><title>MentorsController</title>
<polyline fill="none" stroke="black" points="58.9612,-10.2648 176.961,-10.2648 "/>
<path fill="none" stroke="black" d="M176.961,-10.2648C182.961,-10.2648 188.961,-16.2648 188.961,-22.2648"/>
<polyline fill="none" stroke="black" points="188.961,-22.2648 188.961,-244.265 "/>
<path fill="none" stroke="black" d="M188.961,-244.265C188.961,-250.265 182.961,-256.265 176.961,-256.265"/>
<polyline fill="none" stroke="black" points="176.961,-256.265 58.9612,-256.265 "/>
<path fill="none" stroke="black" d="M58.9612,-256.265C52.9612,-256.265 46.9612,-250.265 46.9612,-244.265"/>
<polyline fill="none" stroke="black" points="46.9612,-244.265 46.9612,-22.2648 "/>
<path fill="none" stroke="black" d="M46.9612,-22.2648C46.9612,-16.2648 52.9612,-10.2648 58.9612,-10.2648"/>
<text text-anchor="middle" x="117.961" y="-239.665" font-family="Times Roman,serif" font-size="14.00">MentorsController</text>
<polyline fill="none" stroke="black" points="46.9612,-230.265 188.961,-230.265 "/>
<text text-anchor="start" x="54.9612" y="-213.665" font-family="Times Roman,serif" font-size="14.00">apply</text>
<text text-anchor="start" x="54.9612" y="-195.665" font-family="Times Roman,serif" font-size="14.00">create</text>
<text text-anchor="start" x="54.9612" y="-177.665" font-family="Times Roman,serif" font-size="14.00">destroy</text>
<text text-anchor="start" x="54.9612" y="-159.665" font-family="Times Roman,serif" font-size="14.00">edit</text>
<text text-anchor="start" x="54.9612" y="-141.665" font-family="Times Roman,serif" font-size="14.00">index</text>
<text text-anchor="start" x="54.9612" y="-123.665" font-family="Times Roman,serif" font-size="14.00">new</text>
<text text-anchor="start" x="54.9612" y="-105.665" font-family="Times Roman,serif" font-size="14.00">search</text>
<text text-anchor="start" x="54.9612" y="-87.6648" font-family="Times Roman,serif" font-size="14.00">show</text>
<text text-anchor="start" x="54.9612" y="-69.6648" font-family="Times Roman,serif" font-size="14.00">update</text>
<polyline fill="none" stroke="black" points="46.9612,-60.2648 188.961,-60.2648 "/>
<polyline fill="none" stroke="black" points="46.9612,-36.2648 188.961,-36.2648 "/>
<text text-anchor="start" x="54.9612" y="-19.6648" font-family="Times Roman,serif" font-size="14.00">_layout</text>
</g>
<!-- EmployerProfilesController -->
<g id="node9" class="node"><title>EmployerProfilesController</title>
<polyline fill="none" stroke="black" points="691.067,-325.217 867.067,-325.217 "/>
<path fill="none" stroke="black" d="M867.067,-325.217C873.067,-325.217 879.067,-331.217 879.067,-337.217"/>
<polyline fill="none" stroke="black" points="879.067,-337.217 879.067,-523.217 "/>
<path fill="none" stroke="black" d="M879.067,-523.217C879.067,-529.217 873.067,-535.217 867.067,-535.217"/>
<polyline fill="none" stroke="black" points="867.067,-535.217 691.067,-535.217 "/>
<path fill="none" stroke="black" d="M691.067,-535.217C685.067,-535.217 679.067,-529.217 679.067,-523.217"/>
<polyline fill="none" stroke="black" points="679.067,-523.217 679.067,-337.217 "/>
<path fill="none" stroke="black" d="M679.067,-337.217C679.067,-331.217 685.067,-325.217 691.067,-325.217"/>
<text text-anchor="middle" x="779.067" y="-518.617" font-family="Times Roman,serif" font-size="14.00">EmployerProfilesController</text>
<polyline fill="none" stroke="black" points="679.067,-509.217 879.067,-509.217 "/>
<text text-anchor="start" x="687.067" y="-492.617" font-family="Times Roman,serif" font-size="14.00">create</text>
<text text-anchor="start" x="687.067" y="-474.617" font-family="Times Roman,serif" font-size="14.00">destroy</text>
<text text-anchor="start" x="687.067" y="-456.617" font-family="Times Roman,serif" font-size="14.00">edit</text>
<text text-anchor="start" x="687.067" y="-438.617" font-family="Times Roman,serif" font-size="14.00">index</text>
<text text-anchor="start" x="687.067" y="-420.617" font-family="Times Roman,serif" font-size="14.00">new</text>
<text text-anchor="start" x="687.067" y="-402.617" font-family="Times Roman,serif" font-size="14.00">show</text>
<text text-anchor="start" x="687.067" y="-384.617" font-family="Times Roman,serif" font-size="14.00">update</text>
<polyline fill="none" stroke="black" points="679.067,-375.217 879.067,-375.217 "/>
<polyline fill="none" stroke="black" points="679.067,-351.217 879.067,-351.217 "/>
<text text-anchor="start" x="687.067" y="-334.617" font-family="Times Roman,serif" font-size="14.00">_layout</text>
</g>
<!-- AdminController -->
<g id="node10" class="node"><title>AdminController</title>
<polyline fill="none" stroke="black" points="13,-288.653 236,-288.653 "/>
<path fill="none" stroke="black" d="M236,-288.653C242,-288.653 248,-294.653 248,-300.653"/>
<polyline fill="none" stroke="black" points="248,-300.653 248,-558.653 "/>
<path fill="none" stroke="black" d="M248,-558.653C248,-564.653 242,-570.653 236,-570.653"/>
<polyline fill="none" stroke="black" points="236,-570.653 13,-570.653 "/>
<path fill="none" stroke="black" d="M13,-570.653C7,-570.653 1,-564.653 1,-558.653"/>
<polyline fill="none" stroke="black" points="1,-558.653 1,-300.653 "/>
<path fill="none" stroke="black" d="M1,-300.653C1,-294.653 7,-288.653 13,-288.653"/>
<text text-anchor="middle" x="124.5" y="-554.053" font-family="Times Roman,serif" font-size="14.00">AdminController</text>
<polyline fill="none" stroke="black" points="1,-544.653 248,-544.653 "/>
<text text-anchor="start" x="9" y="-528.053" font-family="Times Roman,serif" font-size="14.00">_one_time_conditions_valid_162?</text>
<text text-anchor="start" x="9" y="-510.053" font-family="Times Roman,serif" font-size="14.00">adverts</text>
<text text-anchor="start" x="9" y="-492.053" font-family="Times Roman,serif" font-size="14.00">clients</text>
<text text-anchor="start" x="9" y="-474.053" font-family="Times Roman,serif" font-size="14.00">dashboard</text>
<text text-anchor="start" x="9" y="-456.053" font-family="Times Roman,serif" font-size="14.00">employer_profiles</text>
<text text-anchor="start" x="9" y="-438.053" font-family="Times Roman,serif" font-size="14.00">jobs</text>
<text text-anchor="start" x="9" y="-420.053" font-family="Times Roman,serif" font-size="14.00">login</text>
<text text-anchor="start" x="9" y="-402.053" font-family="Times Roman,serif" font-size="14.00">members</text>
<text text-anchor="start" x="9" y="-384.053" font-family="Times Roman,serif" font-size="14.00">mentors</text>
<text text-anchor="start" x="9" y="-366.053" font-family="Times Roman,serif" font-size="14.00">projects</text>
<text text-anchor="start" x="9" y="-348.053" font-family="Times Roman,serif" font-size="14.00">team</text>
<polyline fill="none" stroke="black" points="1,-338.653 248,-338.653 "/>
<polyline fill="none" stroke="black" points="1,-314.653 248,-314.653 "/>
<text text-anchor="start" x="9" y="-298.053" font-family="Times Roman,serif" font-size="14.00">_layout</text>
</g>
<!-- MembersController -->
<g id="node11" class="node"><title>MembersController</title>
<polyline fill="none" stroke="black" points="674.188,-1.5 897.188,-1.5 "/>
<path fill="none" stroke="black" d="M897.188,-1.5C903.188,-1.5 909.188,-7.5 909.188,-13.5"/>
<polyline fill="none" stroke="black" points="909.188,-13.5 909.188,-253.5 "/>
<path fill="none" stroke="black" d="M909.188,-253.5C909.188,-259.5 903.188,-265.5 897.188,-265.5"/>
<polyline fill="none" stroke="black" points="897.188,-265.5 674.188,-265.5 "/>
<path fill="none" stroke="black" d="M674.188,-265.5C668.188,-265.5 662.188,-259.5 662.188,-253.5"/>
<polyline fill="none" stroke="black" points="662.188,-253.5 662.188,-13.5 "/>
<path fill="none" stroke="black" d="M662.188,-13.5C662.188,-7.5 668.188,-1.5 674.188,-1.5"/>
<text text-anchor="middle" x="785.688" y="-248.9" font-family="Times Roman,serif" font-size="14.00">MembersController</text>
<polyline fill="none" stroke="black" points="662.188,-239.5 909.188,-239.5 "/>
<text text-anchor="start" x="670.188" y="-222.9" font-family="Times Roman,serif" font-size="14.00">_one_time_conditions_valid_164?</text>
<text text-anchor="start" x="670.188" y="-204.9" font-family="Times Roman,serif" font-size="14.00">applications</text>
<text text-anchor="start" x="670.188" y="-186.9" font-family="Times Roman,serif" font-size="14.00">dashboard</text>
<text text-anchor="start" x="670.188" y="-168.9" font-family="Times Roman,serif" font-size="14.00">destroy</text>
<text text-anchor="start" x="670.188" y="-150.9" font-family="Times Roman,serif" font-size="14.00">getMemberJobApplications</text>
<text text-anchor="start" x="670.188" y="-132.9" font-family="Times Roman,serif" font-size="14.00">getMemberMentorApplications</text>
<text text-anchor="start" x="670.188" y="-114.9" font-family="Times Roman,serif" font-size="14.00">getMemberProjectApplications</text>
<text text-anchor="start" x="670.188" y="-96.9" font-family="Times Roman,serif" font-size="14.00">profile</text>
<text text-anchor="start" x="670.188" y="-78.9" font-family="Times Roman,serif" font-size="14.00">settings</text>
<text text-anchor="start" x="670.188" y="-60.9" font-family="Times Roman,serif" font-size="14.00">update</text>
<polyline fill="none" stroke="black" points="662.188,-51.5 909.188,-51.5 "/>
<polyline fill="none" stroke="black" points="662.188,-27.5 909.188,-27.5 "/>
<text text-anchor="start" x="670.188" y="-10.9" font-family="Times Roman,serif" font-size="14.00">_layout</text>
</g>
<!-- ApplicationController -->
<g id="node12" class="node"><title>ApplicationController</title>
<polyline fill="none" stroke="black" points="321.713,-513.546 581.713,-513.546 "/>
<path fill="none" stroke="black" d="M581.713,-513.546C587.713,-513.546 593.713,-519.546 593.713,-525.546"/>
<polyline fill="none" stroke="black" points="593.713,-525.546 593.713,-621.546 "/>
<path fill="none" stroke="black" d="M593.713,-621.546C593.713,-627.546 587.713,-633.546 581.713,-633.546"/>
<polyline fill="none" stroke="black" points="581.713,-633.546 321.713,-633.546 "/>
<path fill="none" stroke="black" d="M321.713,-633.546C315.713,-633.546 309.713,-627.546 309.713,-621.546"/>
<polyline fill="none" stroke="black" points="309.713,-621.546 309.713,-525.546 "/>
<path fill="none" stroke="black" d="M309.713,-525.546C309.713,-519.546 315.713,-513.546 321.713,-513.546"/>
<text text-anchor="middle" x="451.713" y="-616.946" font-family="Times Roman,serif" font-size="14.00">ApplicationController</text>
<polyline fill="none" stroke="black" points="309.713,-607.546 593.713,-607.546 "/>
<text text-anchor="start" x="317.713" y="-590.946" font-family="Times Roman,serif" font-size="14.00">_one_time_conditions_valid_116?</text>
<text text-anchor="start" x="317.713" y="-572.946" font-family="Times Roman,serif" font-size="14.00">can_member_make_application_checks</text>
<polyline fill="none" stroke="black" points="309.713,-563.546 593.713,-563.546 "/>
<polyline fill="none" stroke="black" points="309.713,-539.546 593.713,-539.546 "/>
<text text-anchor="start" x="317.713" y="-522.946" font-family="Times Roman,serif" font-size="14.00">_layout</text>
</g>
<!-- ApplicationController&#45;&gt;ProjectsController -->
<g id="edge2" class="edge"><title>ApplicationController&#45;&gt;ProjectsController</title>
<path fill="none" stroke="black" d="M314.316,-633.592C273.026,-651.636 229.445,-670.682 194.458,-685.972"/>
</g>
<!-- ApplicationController&#45;&gt;TeamsController -->
<g id="edge4" class="edge"><title>ApplicationController&#45;&gt;TeamsController</title>
<path fill="none" stroke="black" d="M588.592,-633.611C632.376,-652.824 678.786,-673.189 714.818,-689.001"/>
</g>
<!-- ApplicationController&#45;&gt;PagesController -->
<g id="edge6" class="edge"><title>ApplicationController&#45;&gt;PagesController</title>
<path fill="none" stroke="black" d="M451.745,-513.401C451.775,-454.173 451.823,-362.477 451.86,-291.158"/>
</g>
<!-- ApplicationController&#45;&gt;AdvertsController -->
<g id="edge8" class="edge"><title>ApplicationController&#45;&gt;AdvertsController</title>
<path fill="none" stroke="black" d="M451.692,-633.74C451.671,-693.016 451.638,-784.786 451.613,-856.162"/>
</g>
<!-- ApplicationController&#45;&gt;ClientsController -->
<g id="edge10" class="edge"><title>ApplicationController&#45;&gt;ClientsController</title>
<path fill="none" stroke="black" d="M497.427,-633.879C539.654,-689.612 604.338,-774.982 661.722,-850.718"/>
</g>
<!-- ApplicationController&#45;&gt;AboutUsController -->
<g id="edge12" class="edge"><title>ApplicationController&#45;&gt;AboutUsController</title>
<path fill="none" stroke="black" d="M405.984,-633.849C348.558,-709.574 249.619,-840.043 183.945,-926.646"/>
</g>
<!-- ApplicationController&#45;&gt;MentorsController -->
<g id="edge14" class="edge"><title>ApplicationController&#45;&gt;MentorsController</title>
<path fill="none" stroke="black" d="M412.686,-513.403C373.577,-454.141 310.785,-361.664 251.2,-285.453 231.842,-260.693 209.734,-234.644 189.165,-211.234"/>
</g>
<!-- ApplicationController&#45;&gt;EmployerProfilesController -->
<g id="edge16" class="edge"><title>ApplicationController&#45;&gt;EmployerProfilesController</title>
<path fill="none" stroke="black" d="M589.118,-513.385C619.212,-500.208 650.524,-486.499 678.838,-474.102"/>
</g>
<!-- ApplicationController&#45;&gt;AdminController -->
<g id="edge18" class="edge"><title>ApplicationController&#45;&gt;AdminController</title>
<path fill="none" stroke="black" d="M314.841,-513.356C292.688,-503.614 269.862,-493.577 248.049,-483.984"/>
</g>
<!-- ApplicationController&#45;&gt;MembersController -->
<g id="edge20" class="edge"><title>ApplicationController&#45;&gt;MembersController</title>
<path fill="none" stroke="black" d="M497.451,-513.282C545.596,-449.846 622.917,-347.968 685.36,-265.693"/>
</g>
</g>
</svg>
