<?xml version="1.0" encoding="UTF-8" standalone="no"?>
<!DOCTYPE svg PUBLIC "-//W3C//DTD SVG 1.1//EN"
 "http://www.w3.org/Graphics/SVG/1.1/DTD/svg11.dtd">
<!-- Generated by graphviz version 2.26.3 (20100126.1600)
 -->
<!-- Title: controllers_diagram Pages: 1 -->
<svg width="1250pt" height="1843pt"
 viewBox="0.00 0.00 1250.00 1843.08" xmlns="http://www.w3.org/2000/svg" xmlns:xlink="http://www.w3.org/1999/xlink">
<g id="graph1" class="graph" transform="scale(1 1) rotate(0) translate(4 1839.08)">
<title>controllers_diagram</title>
<polygon fill="white" stroke="white" points="-4,5 -4,-1839.08 1247,-1839.08 1247,5 -4,5"/>
<!-- _diagram_info -->
<g id="node1" class="node"><title>_diagram_info</title>
<text text-anchor="start" x="999" y="-375.3" font-family="Times Roman,serif" font-size="13.00">Controllers diagram</text>
<text text-anchor="start" x="999" y="-358.3" font-family="Times Roman,serif" font-size="13.00">Date: Jul 29 2013 &#45; 01:09</text>
<text text-anchor="start" x="999" y="-341.3" font-family="Times Roman,serif" font-size="13.00">Migration version: 20130729000839</text>
<text text-anchor="start" x="999" y="-324.3" font-family="Times Roman,serif" font-size="13.00">Generated by RailRoady 1.1.0</text>
<text text-anchor="start" x="999" y="-307.3" font-family="Times Roman,serif" font-size="13.00">http://railroady.prestonlee.com</text>
</g>
<!-- ProjectsController -->
<g id="node2" class="node"><title>ProjectsController</title>
<polyline fill="none" stroke="black" points="31.6154,-1029.49 147.615,-1029.49 "/>
<path fill="none" stroke="black" d="M147.615,-1029.49C153.615,-1029.49 159.615,-1035.49 159.615,-1041.49"/>
<polyline fill="none" stroke="black" points="159.615,-1041.49 159.615,-1263.49 "/>
<path fill="none" stroke="black" d="M159.615,-1263.49C159.615,-1269.49 153.615,-1275.49 147.615,-1275.49"/>
<polyline fill="none" stroke="black" points="147.615,-1275.49 31.6154,-1275.49 "/>
<path fill="none" stroke="black" d="M31.6154,-1275.49C25.6154,-1275.49 19.6154,-1269.49 19.6154,-1263.49"/>
<polyline fill="none" stroke="black" points="19.6154,-1263.49 19.6154,-1041.49 "/>
<path fill="none" stroke="black" d="M19.6154,-1041.49C19.6154,-1035.49 25.6154,-1029.49 31.6154,-1029.49"/>
<text text-anchor="middle" x="89.6154" y="-1258.89" font-family="Times Roman,serif" font-size="14.00">ProjectsController</text>
<polyline fill="none" stroke="black" points="19.6154,-1249.49 159.615,-1249.49 "/>
<text text-anchor="start" x="27.6154" y="-1232.89" font-family="Times Roman,serif" font-size="14.00">apply</text>
<text text-anchor="start" x="27.6154" y="-1214.89" font-family="Times Roman,serif" font-size="14.00">create</text>
<text text-anchor="start" x="27.6154" y="-1196.89" font-family="Times Roman,serif" font-size="14.00">destroy</text>
<text text-anchor="start" x="27.6154" y="-1178.89" font-family="Times Roman,serif" font-size="14.00">edit</text>
<text text-anchor="start" x="27.6154" y="-1160.89" font-family="Times Roman,serif" font-size="14.00">index</text>
<text text-anchor="start" x="27.6154" y="-1142.89" font-family="Times Roman,serif" font-size="14.00">new</text>
<text text-anchor="start" x="27.6154" y="-1124.89" font-family="Times Roman,serif" font-size="14.00">search</text>
<text text-anchor="start" x="27.6154" y="-1106.89" font-family="Times Roman,serif" font-size="14.00">show</text>
<text text-anchor="start" x="27.6154" y="-1088.89" font-family="Times Roman,serif" font-size="14.00">update</text>
<polyline fill="none" stroke="black" points="19.6154,-1079.49 159.615,-1079.49 "/>
<polyline fill="none" stroke="black" points="19.6154,-1055.49 159.615,-1055.49 "/>
<text text-anchor="start" x="27.6154" y="-1038.89" font-family="Times Roman,serif" font-size="14.00">_layout</text>
</g>
<!-- TeamsController -->
<g id="node3" class="node"><title>TeamsController</title>
<polyline fill="none" stroke="black" points="705.419,-1049.16 809.419,-1049.16 "/>
<path fill="none" stroke="black" d="M809.419,-1049.16C815.419,-1049.16 821.419,-1055.16 821.419,-1061.16"/>
<polyline fill="none" stroke="black" points="821.419,-1061.16 821.419,-1247.16 "/>
<path fill="none" stroke="black" d="M821.419,-1247.16C821.419,-1253.16 815.419,-1259.16 809.419,-1259.16"/>
<polyline fill="none" stroke="black" points="809.419,-1259.16 705.419,-1259.16 "/>
<path fill="none" stroke="black" d="M705.419,-1259.16C699.419,-1259.16 693.419,-1253.16 693.419,-1247.16"/>
<polyline fill="none" stroke="black" points="693.419,-1247.16 693.419,-1061.16 "/>
<path fill="none" stroke="black" d="M693.419,-1061.16C693.419,-1055.16 699.419,-1049.16 705.419,-1049.16"/>
<text text-anchor="middle" x="757.419" y="-1242.56" font-family="Times Roman,serif" font-size="14.00">TeamsController</text>
<polyline fill="none" stroke="black" points="693.419,-1233.16 821.419,-1233.16 "/>
<text text-anchor="start" x="701.419" y="-1216.56" font-family="Times Roman,serif" font-size="14.00">create</text>
<text text-anchor="start" x="701.419" y="-1198.56" font-family="Times Roman,serif" font-size="14.00">destroy</text>
<text text-anchor="start" x="701.419" y="-1180.56" font-family="Times Roman,serif" font-size="14.00">edit</text>
<text text-anchor="start" x="701.419" y="-1162.56" font-family="Times Roman,serif" font-size="14.00">index</text>
<text text-anchor="start" x="701.419" y="-1144.56" font-family="Times Roman,serif" font-size="14.00">new</text>
<text text-anchor="start" x="701.419" y="-1126.56" font-family="Times Roman,serif" font-size="14.00">show</text>
<text text-anchor="start" x="701.419" y="-1108.56" font-family="Times Roman,serif" font-size="14.00">update</text>
<polyline fill="none" stroke="black" points="693.419,-1099.16 821.419,-1099.16 "/>
<polyline fill="none" stroke="black" points="693.419,-1075.16 821.419,-1075.16 "/>
<text text-anchor="start" x="701.419" y="-1058.56" font-family="Times Roman,serif" font-size="14.00">_layout</text>
</g>
<!-- PagesController -->
<g id="node4" class="node"><title>PagesController</title>
<polyline fill="none" stroke="black" points="352.793,-310.498 495.793,-310.498 "/>
<path fill="none" stroke="black" d="M495.793,-310.498C501.793,-310.498 507.793,-316.498 507.793,-322.498"/>
<polyline fill="none" stroke="black" points="507.793,-322.498 507.793,-508.498 "/>
<path fill="none" stroke="black" d="M507.793,-508.498C507.793,-514.498 501.793,-520.498 495.793,-520.498"/>
<polyline fill="none" stroke="black" points="495.793,-520.498 352.793,-520.498 "/>
<path fill="none" stroke="black" d="M352.793,-520.498C346.793,-520.498 340.793,-514.498 340.793,-508.498"/>
<polyline fill="none" stroke="black" points="340.793,-508.498 340.793,-322.498 "/>
<path fill="none" stroke="black" d="M340.793,-322.498C340.793,-316.498 346.793,-310.498 352.793,-310.498"/>
<text text-anchor="middle" x="424.293" y="-503.898" font-family="Times Roman,serif" font-size="14.00">PagesController</text>
<polyline fill="none" stroke="black" points="340.793,-494.498 507.793,-494.498 "/>
<text text-anchor="start" x="348.793" y="-477.898" font-family="Times Roman,serif" font-size="14.00">confirmation</text>
<text text-anchor="start" x="348.793" y="-459.898" font-family="Times Roman,serif" font-size="14.00">contact_us</text>
<text text-anchor="start" x="348.793" y="-441.898" font-family="Times Roman,serif" font-size="14.00">home</text>
<text text-anchor="start" x="348.793" y="-423.898" font-family="Times Roman,serif" font-size="14.00">our_policy</text>
<text text-anchor="start" x="348.793" y="-405.898" font-family="Times Roman,serif" font-size="14.00">register</text>
<text text-anchor="start" x="348.793" y="-387.898" font-family="Times Roman,serif" font-size="14.00">terms_and_conditions</text>
<text text-anchor="start" x="348.793" y="-369.898" font-family="Times Roman,serif" font-size="14.00">terms_of_use</text>
<polyline fill="none" stroke="black" points="340.793,-360.498 507.793,-360.498 "/>
<polyline fill="none" stroke="black" points="340.793,-336.498 507.793,-336.498 "/>
<text text-anchor="start" x="348.793" y="-319.898" font-family="Times Roman,serif" font-size="14.00">_layout</text>
</g>
<!-- AdvertsController -->
<g id="node5" class="node"><title>AdvertsController</title>
<polyline fill="none" stroke="black" points="365.586,-1265.27 480.586,-1265.27 "/>
<path fill="none" stroke="black" d="M480.586,-1265.27C486.586,-1265.27 492.586,-1271.27 492.586,-1277.27"/>
<polyline fill="none" stroke="black" points="492.586,-1277.27 492.586,-1463.27 "/>
<path fill="none" stroke="black" d="M492.586,-1463.27C492.586,-1469.27 486.586,-1475.27 480.586,-1475.27"/>
<polyline fill="none" stroke="black" points="480.586,-1475.27 365.586,-1475.27 "/>
<path fill="none" stroke="black" d="M365.586,-1475.27C359.586,-1475.27 353.586,-1469.27 353.586,-1463.27"/>
<polyline fill="none" stroke="black" points="353.586,-1463.27 353.586,-1277.27 "/>
<path fill="none" stroke="black" d="M353.586,-1277.27C353.586,-1271.27 359.586,-1265.27 365.586,-1265.27"/>
<text text-anchor="middle" x="423.086" y="-1458.67" font-family="Times Roman,serif" font-size="14.00">AdvertsController</text>
<polyline fill="none" stroke="black" points="353.586,-1449.27 492.586,-1449.27 "/>
<text text-anchor="start" x="361.586" y="-1432.67" font-family="Times Roman,serif" font-size="14.00">create</text>
<text text-anchor="start" x="361.586" y="-1414.67" font-family="Times Roman,serif" font-size="14.00">destroy</text>
<text text-anchor="start" x="361.586" y="-1396.67" font-family="Times Roman,serif" font-size="14.00">edit</text>
<text text-anchor="start" x="361.586" y="-1378.67" font-family="Times Roman,serif" font-size="14.00">index</text>
<text text-anchor="start" x="361.586" y="-1360.67" font-family="Times Roman,serif" font-size="14.00">new</text>
<text text-anchor="start" x="361.586" y="-1342.67" font-family="Times Roman,serif" font-size="14.00">show</text>
<text text-anchor="start" x="361.586" y="-1324.67" font-family="Times Roman,serif" font-size="14.00">update</text>
<polyline fill="none" stroke="black" points="353.586,-1315.27 492.586,-1315.27 "/>
<polyline fill="none" stroke="black" points="353.586,-1291.27 492.586,-1291.27 "/>
<text text-anchor="start" x="361.586" y="-1274.67" font-family="Times Roman,serif" font-size="14.00">_layout</text>
</g>
<!-- ClientsController -->
<g id="node6" class="node"><title>ClientsController</title>
<polyline fill="none" stroke="black" points="592.82,-1389.58 815.82,-1389.58 "/>
<path fill="none" stroke="black" d="M815.82,-1389.58C821.82,-1389.58 827.82,-1395.58 827.82,-1401.58"/>
<polyline fill="none" stroke="black" points="827.82,-1401.58 827.82,-1821.58 "/>
<path fill="none" stroke="black" d="M827.82,-1821.58C827.82,-1827.58 821.82,-1833.58 815.82,-1833.58"/>
<polyline fill="none" stroke="black" points="815.82,-1833.58 592.82,-1833.58 "/>
<path fill="none" stroke="black" d="M592.82,-1833.58C586.82,-1833.58 580.82,-1827.58 580.82,-1821.58"/>
<polyline fill="none" stroke="black" points="580.82,-1821.58 580.82,-1401.58 "/>
<path fill="none" stroke="black" d="M580.82,-1401.58C580.82,-1395.58 586.82,-1389.58 592.82,-1389.58"/>
<text text-anchor="middle" x="704.32" y="-1816.98" font-family="Times Roman,serif" font-size="14.00">ClientsController</text>
<polyline fill="none" stroke="black" points="580.82,-1807.58 827.82,-1807.58 "/>
<text text-anchor="start" x="588.82" y="-1790.98" font-family="Times Roman,serif" font-size="14.00">_one_time_conditions_valid_186?</text>
<text text-anchor="start" x="588.82" y="-1772.98" font-family="Times Roman,serif" font-size="14.00">add_job</text>
<text text-anchor="start" x="588.82" y="-1754.98" font-family="Times Roman,serif" font-size="14.00">clean_select_multiple_params</text>
<text text-anchor="start" x="588.82" y="-1736.98" font-family="Times Roman,serif" font-size="14.00">create_mentor</text>
<text text-anchor="start" x="588.82" y="-1718.98" font-family="Times Roman,serif" font-size="14.00">create_project</text>
<text text-anchor="start" x="588.82" y="-1700.98" font-family="Times Roman,serif" font-size="14.00">dashboard</text>
<text text-anchor="start" x="588.82" y="-1682.98" font-family="Times Roman,serif" font-size="14.00">edit_job</text>
<text text-anchor="start" x="588.82" y="-1664.98" font-family="Times Roman,serif" font-size="14.00">edit_mentor</text>
<text text-anchor="start" x="588.82" y="-1646.98" font-family="Times Roman,serif" font-size="14.00">edit_project</text>
<text text-anchor="start" x="588.82" y="-1628.98" font-family="Times Roman,serif" font-size="14.00">getMentorApplications</text>
<text text-anchor="start" x="588.82" y="-1610.98" font-family="Times Roman,serif" font-size="14.00">getProjectApplications</text>
<text text-anchor="start" x="588.82" y="-1592.98" font-family="Times Roman,serif" font-size="14.00">list_jobs</text>
<text text-anchor="start" x="588.82" y="-1574.98" font-family="Times Roman,serif" font-size="14.00">list_mentors</text>
<text text-anchor="start" x="588.82" y="-1556.98" font-family="Times Roman,serif" font-size="14.00">list_projects</text>
<text text-anchor="start" x="588.82" y="-1538.98" font-family="Times Roman,serif" font-size="14.00">new_mentor</text>
<text text-anchor="start" x="588.82" y="-1520.98" font-family="Times Roman,serif" font-size="14.00">new_project</text>
<text text-anchor="start" x="588.82" y="-1502.98" font-family="Times Roman,serif" font-size="14.00">profile</text>
<text text-anchor="start" x="588.82" y="-1484.98" font-family="Times Roman,serif" font-size="14.00">profile_update</text>
<text text-anchor="start" x="588.82" y="-1466.98" font-family="Times Roman,serif" font-size="14.00">update_mentor</text>
<text text-anchor="start" x="588.82" y="-1448.98" font-family="Times Roman,serif" font-size="14.00">update_project</text>
<polyline fill="none" stroke="black" points="580.82,-1439.58 827.82,-1439.58 "/>
<polyline fill="none" stroke="black" points="580.82,-1415.58 827.82,-1415.58 "/>
<text text-anchor="start" x="588.82" y="-1398.98" font-family="Times Roman,serif" font-size="14.00">_layout</text>
</g>
<!-- AboutUsController -->
<g id="node7" class="node"><title>AboutUsController</title>
<polyline fill="none" stroke="black" points="82.36,-1524.11 202.36,-1524.11 "/>
<path fill="none" stroke="black" d="M202.36,-1524.11C208.36,-1524.11 214.36,-1530.11 214.36,-1536.11"/>
<polyline fill="none" stroke="black" points="214.36,-1536.11 214.36,-1686.11 "/>
<path fill="none" stroke="black" d="M214.36,-1686.11C214.36,-1692.11 208.36,-1698.11 202.36,-1698.11"/>
<polyline fill="none" stroke="black" points="202.36,-1698.11 82.36,-1698.11 "/>
<path fill="none" stroke="black" d="M82.36,-1698.11C76.36,-1698.11 70.36,-1692.11 70.36,-1686.11"/>
<polyline fill="none" stroke="black" points="70.36,-1686.11 70.36,-1536.11 "/>
<path fill="none" stroke="black" d="M70.36,-1536.11C70.36,-1530.11 76.36,-1524.11 82.36,-1524.11"/>
<text text-anchor="middle" x="142.36" y="-1681.51" font-family="Times Roman,serif" font-size="14.00">AboutUsController</text>
<polyline fill="none" stroke="black" points="70.36,-1672.11 214.36,-1672.11 "/>
<text text-anchor="start" x="78.36" y="-1655.51" font-family="Times Roman,serif" font-size="14.00">how_it_works</text>
<text text-anchor="start" x="78.36" y="-1637.51" font-family="Times Roman,serif" font-size="14.00">index</text>
<text text-anchor="start" x="78.36" y="-1619.51" font-family="Times Roman,serif" font-size="14.00">meet_the_team</text>
<text text-anchor="start" x="78.36" y="-1601.51" font-family="Times Roman,serif" font-size="14.00">our_philosophy</text>
<text text-anchor="start" x="78.36" y="-1583.51" font-family="Times Roman,serif" font-size="14.00">what_we_do</text>
<polyline fill="none" stroke="black" points="70.36,-1574.11 214.36,-1574.11 "/>
<polyline fill="none" stroke="black" points="70.36,-1550.11 214.36,-1550.11 "/>
<text text-anchor="start" x="78.36" y="-1533.51" font-family="Times Roman,serif" font-size="14.00">_layout</text>
</g>
<!-- MentorsController -->
<g id="node8" class="node"><title>MentorsController</title>
<polyline fill="none" stroke="black" points="50.2645,-180.98 168.265,-180.98 "/>
<path fill="none" stroke="black" d="M168.265,-180.98C174.265,-180.98 180.265,-186.98 180.265,-192.98"/>
<polyline fill="none" stroke="black" points="180.265,-192.98 180.265,-414.98 "/>
<path fill="none" stroke="black" d="M180.265,-414.98C180.265,-420.98 174.265,-426.98 168.265,-426.98"/>
<polyline fill="none" stroke="black" points="168.265,-426.98 50.2645,-426.98 "/>
<path fill="none" stroke="black" d="M50.2645,-426.98C44.2645,-426.98 38.2645,-420.98 38.2645,-414.98"/>
<polyline fill="none" stroke="black" points="38.2645,-414.98 38.2645,-192.98 "/>
<path fill="none" stroke="black" d="M38.2645,-192.98C38.2645,-186.98 44.2645,-180.98 50.2645,-180.98"/>
<text text-anchor="middle" x="109.265" y="-410.38" font-family="Times Roman,serif" font-size="14.00">MentorsController</text>
<polyline fill="none" stroke="black" points="38.2645,-400.98 180.265,-400.98 "/>
<text text-anchor="start" x="46.2645" y="-384.38" font-family="Times Roman,serif" font-size="14.00">apply</text>
<text text-anchor="start" x="46.2645" y="-366.38" font-family="Times Roman,serif" font-size="14.00">create</text>
<text text-anchor="start" x="46.2645" y="-348.38" font-family="Times Roman,serif" font-size="14.00">destroy</text>
<text text-anchor="start" x="46.2645" y="-330.38" font-family="Times Roman,serif" font-size="14.00">edit</text>
<text text-anchor="start" x="46.2645" y="-312.38" font-family="Times Roman,serif" font-size="14.00">index</text>
<text text-anchor="start" x="46.2645" y="-294.38" font-family="Times Roman,serif" font-size="14.00">new</text>
<text text-anchor="start" x="46.2645" y="-276.38" font-family="Times Roman,serif" font-size="14.00">search</text>
<text text-anchor="start" x="46.2645" y="-258.38" font-family="Times Roman,serif" font-size="14.00">show</text>
<text text-anchor="start" x="46.2645" y="-240.38" font-family="Times Roman,serif" font-size="14.00">update</text>
<polyline fill="none" stroke="black" points="38.2645,-230.98 180.265,-230.98 "/>
<polyline fill="none" stroke="black" points="38.2645,-206.98 180.265,-206.98 "/>
<text text-anchor="start" x="46.2645" y="-190.38" font-family="Times Roman,serif" font-size="14.00">_layout</text>
</g>
<!-- EmployerProfilesController -->
<g id="node9" class="node"><title>EmployerProfilesController</title>
<polyline fill="none" stroke="black" points="635.213,-643.468 811.213,-643.468 "/>
<path fill="none" stroke="black" d="M811.213,-643.468C817.213,-643.468 823.213,-649.468 823.213,-655.468"/>
<polyline fill="none" stroke="black" points="823.213,-655.468 823.213,-841.468 "/>
<path fill="none" stroke="black" d="M823.213,-841.468C823.213,-847.468 817.213,-853.468 811.213,-853.468"/>
<polyline fill="none" stroke="black" points="811.213,-853.468 635.213,-853.468 "/>
<path fill="none" stroke="black" d="M635.213,-853.468C629.213,-853.468 623.213,-847.468 623.213,-841.468"/>
<polyline fill="none" stroke="black" points="623.213,-841.468 623.213,-655.468 "/>
<path fill="none" stroke="black" d="M623.213,-655.468C623.213,-649.468 629.213,-643.468 635.213,-643.468"/>
<text text-anchor="middle" x="723.213" y="-836.868" font-family="Times Roman,serif" font-size="14.00">EmployerProfilesController</text>
<polyline fill="none" stroke="black" points="623.213,-827.468 823.213,-827.468 "/>
<text text-anchor="start" x="631.213" y="-810.868" font-family="Times Roman,serif" font-size="14.00">create</text>
<text text-anchor="start" x="631.213" y="-792.868" font-family="Times Roman,serif" font-size="14.00">destroy</text>
<text text-anchor="start" x="631.213" y="-774.868" font-family="Times Roman,serif" font-size="14.00">edit</text>
<text text-anchor="start" x="631.213" y="-756.868" font-family="Times Roman,serif" font-size="14.00">index</text>
<text text-anchor="start" x="631.213" y="-738.868" font-family="Times Roman,serif" font-size="14.00">new</text>
<text text-anchor="start" x="631.213" y="-720.868" font-family="Times Roman,serif" font-size="14.00">show</text>
<text text-anchor="start" x="631.213" y="-702.868" font-family="Times Roman,serif" font-size="14.00">update</text>
<polyline fill="none" stroke="black" points="623.213,-693.468 823.213,-693.468 "/>
<polyline fill="none" stroke="black" points="623.213,-669.468 823.213,-669.468 "/>
<text text-anchor="start" x="631.213" y="-652.868" font-family="Times Roman,serif" font-size="14.00">_layout</text>
</g>
<!-- AdminController -->
<g id="node10" class="node"><title>AdminController</title>
<polyline fill="none" stroke="black" points="13,-606.023 236,-606.023 "/>
<path fill="none" stroke="black" d="M236,-606.023C242,-606.023 248,-612.023 248,-618.023"/>
<polyline fill="none" stroke="black" points="248,-618.023 248,-876.023 "/>
<path fill="none" stroke="black" d="M248,-876.023C248,-882.023 242,-888.023 236,-888.023"/>
<polyline fill="none" stroke="black" points="236,-888.023 13,-888.023 "/>
<path fill="none" stroke="black" d="M13,-888.023C7,-888.023 1,-882.023 1,-876.023"/>
<polyline fill="none" stroke="black" points="1,-876.023 1,-618.023 "/>
<path fill="none" stroke="black" d="M1,-618.023C1,-612.023 7,-606.023 13,-606.023"/>
<text text-anchor="middle" x="124.5" y="-871.423" font-family="Times Roman,serif" font-size="14.00">AdminController</text>
<polyline fill="none" stroke="black" points="1,-862.023 248,-862.023 "/>
<text text-anchor="start" x="9" y="-845.423" font-family="Times Roman,serif" font-size="14.00">_one_time_conditions_valid_262?</text>
<text text-anchor="start" x="9" y="-827.423" font-family="Times Roman,serif" font-size="14.00">adverts</text>
<text text-anchor="start" x="9" y="-809.423" font-family="Times Roman,serif" font-size="14.00">clients</text>
<text text-anchor="start" x="9" y="-791.423" font-family="Times Roman,serif" font-size="14.00">dashboard</text>
<text text-anchor="start" x="9" y="-773.423" font-family="Times Roman,serif" font-size="14.00">employer_profiles</text>
<text text-anchor="start" x="9" y="-755.423" font-family="Times Roman,serif" font-size="14.00">jobs</text>
<text text-anchor="start" x="9" y="-737.423" font-family="Times Roman,serif" font-size="14.00">login</text>
<text text-anchor="start" x="9" y="-719.423" font-family="Times Roman,serif" font-size="14.00">members</text>
<text text-anchor="start" x="9" y="-701.423" font-family="Times Roman,serif" font-size="14.00">mentors</text>
<text text-anchor="start" x="9" y="-683.423" font-family="Times Roman,serif" font-size="14.00">projects</text>
<text text-anchor="start" x="9" y="-665.423" font-family="Times Roman,serif" font-size="14.00">team</text>
<polyline fill="none" stroke="black" points="1,-656.023 248,-656.023 "/>
<polyline fill="none" stroke="black" points="1,-632.023 248,-632.023 "/>
<text text-anchor="start" x="9" y="-615.423" font-family="Times Roman,serif" font-size="14.00">_layout</text>
</g>
<!-- MembersController -->
<g id="node11" class="node"><title>MembersController</title>
<polyline fill="none" stroke="black" points="627.205,-1.5 850.205,-1.5 "/>
<path fill="none" stroke="black" d="M850.205,-1.5C856.205,-1.5 862.205,-7.5 862.205,-13.5"/>
<polyline fill="none" stroke="black" points="862.205,-13.5 862.205,-595.5 "/>
<path fill="none" stroke="black" d="M862.205,-595.5C862.205,-601.5 856.205,-607.5 850.205,-607.5"/>
<polyline fill="none" stroke="black" points="850.205,-607.5 627.205,-607.5 "/>
<path fill="none" stroke="black" d="M627.205,-607.5C621.205,-607.5 615.205,-601.5 615.205,-595.5"/>
<polyline fill="none" stroke="black" points="615.205,-595.5 615.205,-13.5 "/>
<path fill="none" stroke="black" d="M615.205,-13.5C615.205,-7.5 621.205,-1.5 627.205,-1.5"/>
<text text-anchor="middle" x="738.705" y="-590.9" font-family="Times Roman,serif" font-size="14.00">MembersController</text>
<polyline fill="none" stroke="black" points="615.205,-581.5 862.205,-581.5 "/>
<text text-anchor="start" x="623.205" y="-564.9" font-family="Times Roman,serif" font-size="14.00">_one_time_conditions_valid_264?</text>
<text text-anchor="start" x="623.205" y="-546.9" font-family="Times Roman,serif" font-size="14.00">_one_time_conditions_valid_266?</text>
<text text-anchor="start" x="623.205" y="-528.9" font-family="Times Roman,serif" font-size="14.00">applications</text>
<text text-anchor="start" x="623.205" y="-510.9" font-family="Times Roman,serif" font-size="14.00">checkEmail</text>
<text text-anchor="start" x="623.205" y="-492.9" font-family="Times Roman,serif" font-size="14.00">clean_select_multiple_params</text>
<text text-anchor="start" x="623.205" y="-474.9" font-family="Times Roman,serif" font-size="14.00">create_mentor</text>
<text text-anchor="start" x="623.205" y="-456.9" font-family="Times Roman,serif" font-size="14.00">create_project</text>
<text text-anchor="start" x="623.205" y="-438.9" font-family="Times Roman,serif" font-size="14.00">dashboard</text>
<text text-anchor="start" x="623.205" y="-420.9" font-family="Times Roman,serif" font-size="14.00">destroy</text>
<text text-anchor="start" x="623.205" y="-402.9" font-family="Times Roman,serif" font-size="14.00">destroy_mentor</text>
<text text-anchor="start" x="623.205" y="-384.9" font-family="Times Roman,serif" font-size="14.00">edit_mentor</text>
<text text-anchor="start" x="623.205" y="-366.9" font-family="Times Roman,serif" font-size="14.00">edit_project</text>
<text text-anchor="start" x="623.205" y="-348.9" font-family="Times Roman,serif" font-size="14.00">getMemberJobApplications</text>
<text text-anchor="start" x="623.205" y="-330.9" font-family="Times Roman,serif" font-size="14.00">getMemberMentorApplications</text>
<text text-anchor="start" x="623.205" y="-312.9" font-family="Times Roman,serif" font-size="14.00">getMemberProjectApplications</text>
<text text-anchor="start" x="623.205" y="-294.9" font-family="Times Roman,serif" font-size="14.00">getMentorId</text>
<text text-anchor="start" x="623.205" y="-276.9" font-family="Times Roman,serif" font-size="14.00">list_internal_mentors</text>
<text text-anchor="start" x="623.205" y="-258.9" font-family="Times Roman,serif" font-size="14.00">list_internal_projects</text>
<text text-anchor="start" x="623.205" y="-240.9" font-family="Times Roman,serif" font-size="14.00">list_projects</text>
<text text-anchor="start" x="623.205" y="-222.9" font-family="Times Roman,serif" font-size="14.00">new_mentor</text>
<text text-anchor="start" x="623.205" y="-204.9" font-family="Times Roman,serif" font-size="14.00">new_project</text>
<text text-anchor="start" x="623.205" y="-186.9" font-family="Times Roman,serif" font-size="14.00">profile</text>
<text text-anchor="start" x="623.205" y="-168.9" font-family="Times Roman,serif" font-size="14.00">search_mentor</text>
<text text-anchor="start" x="623.205" y="-150.9" font-family="Times Roman,serif" font-size="14.00">search_project</text>
<text text-anchor="start" x="623.205" y="-132.9" font-family="Times Roman,serif" font-size="14.00">setVars</text>
<text text-anchor="start" x="623.205" y="-114.9" font-family="Times Roman,serif" font-size="14.00">settings</text>
<text text-anchor="start" x="623.205" y="-96.9" font-family="Times Roman,serif" font-size="14.00">update</text>
<text text-anchor="start" x="623.205" y="-78.9" font-family="Times Roman,serif" font-size="14.00">update_mentor</text>
<text text-anchor="start" x="623.205" y="-60.9" font-family="Times Roman,serif" font-size="14.00">update_project</text>
<polyline fill="none" stroke="black" points="615.205,-51.5 862.205,-51.5 "/>
<polyline fill="none" stroke="black" points="615.205,-27.5 862.205,-27.5 "/>
<text text-anchor="start" x="623.205" y="-10.9" font-family="Times Roman,serif" font-size="14.00">_layout</text>
</g>
<!-- ApplicationController -->
<g id="node12" class="node"><title>ApplicationController</title>
<polyline fill="none" stroke="black" points="293.662,-911.216 553.662,-911.216 "/>
<path fill="none" stroke="black" d="M553.662,-911.216C559.662,-911.216 565.662,-917.216 565.662,-923.216"/>
<polyline fill="none" stroke="black" points="565.662,-923.216 565.662,-1019.22 "/>
<path fill="none" stroke="black" d="M565.662,-1019.22C565.662,-1025.22 559.662,-1031.22 553.662,-1031.22"/>
<polyline fill="none" stroke="black" points="553.662,-1031.22 293.662,-1031.22 "/>
<path fill="none" stroke="black" d="M293.662,-1031.22C287.662,-1031.22 281.662,-1025.22 281.662,-1019.22"/>
<polyline fill="none" stroke="black" points="281.662,-1019.22 281.662,-923.216 "/>
<path fill="none" stroke="black" d="M281.662,-923.216C281.662,-917.216 287.662,-911.216 293.662,-911.216"/>
<text text-anchor="middle" x="423.662" y="-1014.62" font-family="Times Roman,serif" font-size="14.00">ApplicationController</text>
<polyline fill="none" stroke="black" points="281.662,-1005.22 565.662,-1005.22 "/>
<text text-anchor="start" x="289.662" y="-988.616" font-family="Times Roman,serif" font-size="14.00">_one_time_conditions_valid_116?</text>
<text text-anchor="start" x="289.662" y="-970.616" font-family="Times Roman,serif" font-size="14.00">can_member_make_application_checks</text>
<polyline fill="none" stroke="black" points="281.662,-961.216 565.662,-961.216 "/>
<polyline fill="none" stroke="black" points="281.662,-937.216 565.662,-937.216 "/>
<text text-anchor="start" x="289.662" y="-920.616" font-family="Times Roman,serif" font-size="14.00">_layout</text>
</g>
<!-- ApplicationController&#45;&gt;ProjectsController -->
<g id="edge2" class="edge"><title>ApplicationController&#45;&gt;ProjectsController</title>
<path fill="none" stroke="black" d="M312.893,-1031.33C262.375,-1058.74 204.083,-1090.37 159.73,-1114.44"/>
</g>
<!-- ApplicationController&#45;&gt;TeamsController -->
<g id="edge4" class="edge"><title>ApplicationController&#45;&gt;TeamsController</title>
<path fill="none" stroke="black" d="M533.409,-1031.37C586.417,-1060.43 648.172,-1094.28 693.401,-1119.07"/>
</g>
<!-- ApplicationController&#45;&gt;PagesController -->
<g id="edge6" class="edge"><title>ApplicationController&#45;&gt;PagesController</title>
<path fill="none" stroke="black" d="M423.73,-910.951C423.836,-817.384 424.042,-635.946 424.173,-520.518"/>
</g>
<!-- ApplicationController&#45;&gt;AdvertsController -->
<g id="edge8" class="edge"><title>ApplicationController&#45;&gt;AdvertsController</title>
<path fill="none" stroke="black" d="M423.575,-1031.39C423.486,-1093.12 423.345,-1190.38 423.238,-1264.91"/>
</g>
<!-- ApplicationController&#45;&gt;ClientsController -->
<g id="edge10" class="edge"><title>ApplicationController&#45;&gt;ClientsController</title>
<path fill="none" stroke="black" d="M450.065,-1031.46C485.749,-1112.88 551.307,-1262.46 606.914,-1389.33"/>
</g>
<!-- ApplicationController&#45;&gt;AboutUsController -->
<g id="edge12" class="edge"><title>ApplicationController&#45;&gt;AboutUsController</title>
<path fill="none" stroke="black" d="M397.198,-1031.42C347.174,-1145.21 238.575,-1392.24 180.615,-1524.09"/>
</g>
<!-- ApplicationController&#45;&gt;MentorsController -->
<g id="edge14" class="edge"><title>ApplicationController&#45;&gt;MentorsController</title>
<path fill="none" stroke="black" d="M395.685,-911.188C361.654,-838.232 302.403,-711.408 251.2,-602.823 223.947,-545.027 193.576,-481.027 167.944,-427.13"/>
</g>
<!-- ApplicationController&#45;&gt;EmployerProfilesController -->
<g id="edge16" class="edge"><title>ApplicationController&#45;&gt;EmployerProfilesController</title>
<path fill="none" stroke="black" d="M504.725,-910.937C541.198,-883.815 584.611,-851.533 623.093,-822.917"/>
</g>
<!-- ApplicationController&#45;&gt;AdminController -->
<g id="edge18" class="edge"><title>ApplicationController&#45;&gt;AdminController</title>
<path fill="none" stroke="black" d="M343.492,-911.136C314.242,-889.216 280.442,-863.886 248.283,-839.786"/>
</g>
<!-- ApplicationController&#45;&gt;MembersController -->
<g id="edge20" class="edge"><title>ApplicationController&#45;&gt;MembersController</title>
<path fill="none" stroke="black" d="M452.036,-911.168C488.827,-833.308 555.366,-692.494 615.082,-566.12"/>
</g>
</g>
</svg>
