<?xml version="1.0" encoding="UTF-8" standalone="no"?>
<!DOCTYPE svg PUBLIC "-//W3C//DTD SVG 1.1//EN"
 "http://www.w3.org/Graphics/SVG/1.1/DTD/svg11.dtd">
<!-- Generated by graphviz version 2.26.3 (20100126.1600)
 -->
<!-- Title: models_diagram Pages: 1 -->
<svg width="2321pt" height="174pt"
 viewBox="0.00 0.00 2321.00 174.00" xmlns="http://www.w3.org/2000/svg" xmlns:xlink="http://www.w3.org/1999/xlink">
<g id="graph1" class="graph" transform="scale(1 1) rotate(0) translate(4 170)">
<title>models_diagram</title>
<polygon fill="white" stroke="white" points="-4,5 -4,-170 2318,-170 2318,5 -4,5"/>
<!-- _diagram_info -->
<g id="node1" class="node"><title>_diagram_info</title>
<text text-anchor="start" x="7.5" y="-150.3" font-family="Times,serif" font-size="13.00">Models diagram</text>
<text text-anchor="start" x="7.5" y="-136.3" font-family="Times,serif" font-size="13.00">Date: Aug 21 2013 &#45; 00:35</text>
<text text-anchor="start" x="7.5" y="-122.3" font-family="Times,serif" font-size="13.00">Migration version: 20130820233158</text>
<text text-anchor="start" x="7.5" y="-108.3" font-family="Times,serif" font-size="13.00">Generated by RailRoady 1.1.0</text>
<text text-anchor="start" x="7.5" y="-94.3" font-family="Times,serif" font-size="13.00">http://railroady.prestonlee.com</text>
</g>
<!-- Admin -->
<g id="node2" class="node"><title>Admin</title>
<ellipse fill="none" stroke="black" cx="269" cy="-127" rx="37.0467" ry="18"/>
<text text-anchor="middle" x="269" y="-121.9" font-family="Times,serif" font-size="14.00">Admin</text>
</g>
<!-- Advert -->
<g id="node3" class="node"><title>Advert</title>
<ellipse fill="none" stroke="black" cx="360" cy="-127" rx="35.8982" ry="18"/>
<text text-anchor="middle" x="360" y="-121.9" font-family="Times,serif" font-size="14.00">Advert</text>
</g>
<!-- Client -->
<g id="node4" class="node"><title>Client</title>
<ellipse fill="none" stroke="black" cx="448" cy="-127" rx="33.9477" ry="18"/>
<text text-anchor="middle" x="448" y="-121.9" font-family="Times,serif" font-size="14.00">Client</text>
</g>
<!-- ClientJob -->
<g id="node5" class="node"><title>ClientJob</title>
<ellipse fill="none" stroke="black" cx="547" cy="-127" rx="46.9464" ry="18"/>
<text text-anchor="middle" x="547" y="-121.9" font-family="Times,serif" font-size="14.00">ClientJob</text>
</g>
<!-- ClientMentor -->
<g id="node6" class="node"><title>ClientMentor</title>
<ellipse fill="none" stroke="black" cx="673" cy="-127" rx="61.2425" ry="18"/>
<text text-anchor="middle" x="673" y="-121.9" font-family="Times,serif" font-size="14.00">ClientMentor</text>
</g>
<!-- ClientProject -->
<g id="node7" class="node"><title>ClientProject</title>
<ellipse fill="none" stroke="black" cx="813" cy="-127" rx="61.0946" ry="18"/>
<text text-anchor="middle" x="813" y="-121.9" font-family="Times,serif" font-size="14.00">ClientProject</text>
</g>
<!-- EmployerProfile -->
<g id="node8" class="node"><title>EmployerProfile</title>
<ellipse fill="none" stroke="black" cx="966" cy="-127" rx="74.2417" ry="18"/>
<text text-anchor="middle" x="966" y="-121.9" font-family="Times,serif" font-size="14.00">EmployerProfile</text>
</g>
<!-- Location -->
<g id="node9" class="node"><title>Location</title>
<ellipse fill="none" stroke="black" cx="1102" cy="-127" rx="44.1961" ry="18"/>
<text text-anchor="middle" x="1102" y="-121.9" font-family="Times,serif" font-size="14.00">Location</text>
</g>
<!-- Member -->
<g id="node10" class="node"><title>Member</title>
<ellipse fill="none" stroke="black" cx="1645" cy="-127" rx="42.2463" ry="18"/>
<text text-anchor="middle" x="1645" y="-121.9" font-family="Times,serif" font-size="14.00">Member</text>
</g>
<!-- MemberMentorApplication -->
<g id="node12" class="node"><title>MemberMentorApplication</title>
<ellipse fill="none" stroke="black" cx="1524" cy="-18" rx="113.89" ry="18"/>
<text text-anchor="middle" x="1524" y="-12.9" font-family="Times,serif" font-size="14.00">MemberMentorApplication</text>
</g>
<!-- Member&#45;&gt;MemberMentorApplication -->
<g id="edge2" class="edge"><title>Member&#45;&gt;MemberMentorApplication</title>
<path fill="none" stroke="#d9dcdf" d="M1620.82,-105.216C1600.79,-87.1733 1572.33,-61.5365 1551.45,-42.7266"/>
<ellipse fill="none" stroke="#d9dcdf" cx="1623.91" cy="-108.004" rx="4.00002" ry="4.00002"/>
<polygon fill="#d9dcdf" stroke="#d9dcdf" points="1551.28,-42.5749 1546.86,-32.5384 1547.57,-39.2284 1543.85,-35.8818 1543.85,-35.8818 1543.85,-35.8818 1547.57,-39.2284 1540.84,-39.2253 1551.28,-42.5749 1551.28,-42.5749"/>
</g>
<!-- MemberProjectApplication -->
<g id="node13" class="node"><title>MemberProjectApplication</title>
<ellipse fill="none" stroke="black" cx="1279" cy="-18" rx="113.239" ry="18"/>
<text text-anchor="middle" x="1279" y="-12.9" font-family="Times,serif" font-size="14.00">MemberProjectApplication</text>
</g>
<!-- Member&#45;&gt;MemberProjectApplication -->
<g id="edge6" class="edge"><title>Member&#45;&gt;MemberProjectApplication</title>
<path fill="none" stroke="#abd779" d="M1602.39,-114.311C1538.33,-95.2314 1416.78,-59.0318 1342.31,-36.8561"/>
<ellipse fill="none" stroke="#abd779" cx="1606.4" cy="-115.506" rx="4.00001" ry="4.00001"/>
<polygon fill="#abd779" stroke="#abd779" points="1342.16,-36.8111 1333.86,-29.644 1337.37,-35.384 1332.58,-33.9568 1332.58,-33.9568 1332.58,-33.9568 1337.37,-35.384 1331.3,-38.2696 1342.16,-36.8111 1342.16,-36.8111"/>
</g>
<!-- Mentors -->
<g id="node21" class="node"><title>Mentors</title>
<ellipse fill="none" stroke="black" cx="1697" cy="-18" rx="41.0951" ry="18"/>
<text text-anchor="middle" x="1697" y="-12.9" font-family="Times,serif" font-size="14.00">Mentors</text>
</g>
<!-- Member&#45;&gt;Mentors -->
<g id="edge4" class="edge"><title>Member&#45;&gt;Mentors</title>
<path fill="none" stroke="#f40d3f" d="M1658,-99.7567C1666,-82.9886 1676.21,-61.5848 1684.17,-44.8836"/>
<polygon fill="#f40d3f" stroke="#f40d3f" points="1657.89,-99.9753 1649.53,-107.063 1655.74,-104.488 1653.59,-109.001 1653.59,-109.001 1653.59,-109.001 1655.74,-104.488 1657.65,-110.938 1657.89,-99.9753 1657.89,-99.9753"/>
<polygon fill="#f40d3f" stroke="#f40d3f" points="1684.27,-44.6898 1692.63,-37.6018 1686.42,-40.177 1688.57,-35.6642 1688.57,-35.6642 1688.57,-35.6642 1686.42,-40.177 1684.51,-33.7266 1684.27,-44.6898 1684.27,-44.6898"/>
<text text-anchor="middle" x="1701" y="-56.9" font-family="Times,serif" font-size="14.00">mentors</text>
</g>
<!-- Projects -->
<g id="node24" class="node"><title>Projects</title>
<ellipse fill="none" stroke="black" cx="1797" cy="-18" rx="40.9464" ry="18"/>
<text text-anchor="middle" x="1797" y="-12.9" font-family="Times,serif" font-size="14.00">Projects</text>
</g>
<!-- Member&#45;&gt;Projects -->
<g id="edge8" class="edge"><title>Member&#45;&gt;Projects</title>
<path fill="none" stroke="#c967e3" d="M1673.09,-104.398C1680.4,-98.8287 1688.37,-93.0251 1696,-88 1709.63,-79.0217 1714.34,-78.9303 1728,-70 1741.97,-60.8622 1756.84,-49.8396 1769.18,-40.2989"/>
<polygon fill="#c967e3" stroke="#c967e3" points="1672.78,-104.642 1662.12,-107.21 1668.83,-107.705 1664.87,-110.767 1664.87,-110.767 1664.87,-110.767 1668.83,-107.705 1667.63,-114.324 1672.78,-104.642 1672.78,-104.642"/>
<polygon fill="#c967e3" stroke="#c967e3" points="1769.4,-40.1283 1780.05,-37.5181 1773.34,-37.0501 1777.28,-33.9719 1777.28,-33.9719 1777.28,-33.9719 1773.34,-37.0501 1774.51,-30.4258 1769.4,-40.1283 1769.4,-40.1283"/>
<text text-anchor="middle" x="1772" y="-56.9" font-family="Times,serif" font-size="14.00">projects</text>
</g>
<!-- MemberJobApplication -->
<g id="node11" class="node"><title>MemberJobApplication</title>
<ellipse fill="none" stroke="black" cx="1805" cy="-127" rx="100.091" ry="18"/>
<text text-anchor="middle" x="1805" y="-121.9" font-family="Times,serif" font-size="14.00">MemberJobApplication</text>
</g>
<!-- Mentor -->
<g id="node14" class="node"><title>Mentor</title>
<ellipse fill="none" stroke="black" cx="1327" cy="-127" rx="37.8486" ry="18"/>
<text text-anchor="middle" x="1327" y="-121.9" font-family="Times,serif" font-size="14.00">Mentor</text>
</g>
<!-- Mentor&#45;&gt;MemberMentorApplication -->
<g id="edge10" class="edge"><title>Mentor&#45;&gt;MemberMentorApplication</title>
<path fill="none" stroke="#4be6b0" d="M1358.99,-109.303C1392.9,-90.5355 1446.57,-60.8404 1483.44,-40.4418"/>
<ellipse fill="none" stroke="#4be6b0" cx="1355.45" cy="-111.259" rx="4.00002" ry="4.00002"/>
<polygon fill="#4be6b0" stroke="#4be6b0" points="1483.68,-40.3097 1494.61,-39.4058 1488.05,-37.889 1492.43,-35.4683 1492.43,-35.4683 1492.43,-35.4683 1488.05,-37.889 1490.25,-31.5309 1483.68,-40.3097 1483.68,-40.3097"/>
</g>
<!-- Members -->
<g id="node27" class="node"><title>Members</title>
<ellipse fill="none" stroke="black" cx="1102" cy="-18" rx="46.1459" ry="18"/>
<text text-anchor="middle" x="1102" y="-12.9" font-family="Times,serif" font-size="14.00">Members</text>
</g>
<!-- Mentor&#45;&gt;Members -->
<g id="edge12" class="edge"><title>Mentor&#45;&gt;Members</title>
<path fill="none" stroke="#730dc2" d="M1296.89,-106.63C1272.76,-90.8895 1237.65,-69.2819 1205,-54 1194.35,-49.0165 1169.81,-40.4017 1147.36,-32.8489"/>
<polygon fill="#730dc2" stroke="#730dc2" points="1296.91,-106.641 1302.79,-115.899 1301.09,-109.391 1305.26,-112.141 1305.26,-112.141 1305.26,-112.141 1301.09,-109.391 1307.74,-108.382 1296.91,-106.641 1296.91,-106.641"/>
<polygon fill="#730dc2" stroke="#730dc2" points="1147.06,-32.7501 1139,-25.3128 1142.32,-31.1655 1137.58,-29.5808 1137.58,-29.5808 1137.58,-29.5808 1142.32,-31.1655 1136.15,-33.8488 1147.06,-32.7501 1147.06,-32.7501"/>
<text text-anchor="middle" x="1262.5" y="-56.9" font-family="Times,serif" font-size="14.00">members</text>
</g>
<!-- OrganisationEmailDomain -->
<g id="node15" class="node"><title>OrganisationEmailDomain</title>
<ellipse fill="none" stroke="black" cx="2034" cy="-127" rx="111.14" ry="18"/>
<text text-anchor="middle" x="2034" y="-121.9" font-family="Times,serif" font-size="14.00">OrganisationEmailDomain</text>
</g>
<!-- Project -->
<g id="node16" class="node"><title>Project</title>
<ellipse fill="none" stroke="black" cx="1201" cy="-127" rx="37.194" ry="18"/>
<text text-anchor="middle" x="1201" y="-121.9" font-family="Times,serif" font-size="14.00">Project</text>
</g>
<!-- Project&#45;&gt;MemberProjectApplication -->
<g id="edge14" class="edge"><title>Project&#45;&gt;MemberProjectApplication</title>
<path fill="none" stroke="#67dd23" d="M1215.72,-102.291C1224.6,-87.8756 1236.4,-69.5292 1248,-54 1250.55,-50.5802 1253.34,-47.0719 1256.17,-43.6506"/>
<ellipse fill="none" stroke="#67dd23" cx="1213.44" cy="-106.021" rx="4.00002" ry="4.00002"/>
<polygon fill="#67dd23" stroke="#67dd23" points="1256.26,-43.5388 1266.16,-38.8167 1259.49,-39.7235 1262.72,-35.9082 1262.72,-35.9082 1262.72,-35.9082 1259.49,-39.7235 1259.29,-32.9997 1256.26,-43.5388 1256.26,-43.5388"/>
</g>
<!-- Project&#45;&gt;Members -->
<g id="edge16" class="edge"><title>Project&#45;&gt;Members</title>
<path fill="none" stroke="#7b5556" d="M1179.22,-103.023C1163.03,-85.1906 1140.98,-60.9228 1124.6,-42.878"/>
<polygon fill="#7b5556" stroke="#7b5556" points="1179.24,-103.043 1182.63,-113.471 1182.6,-106.744 1185.96,-110.445 1185.96,-110.445 1185.96,-110.445 1182.6,-106.744 1189.3,-107.42 1179.24,-103.043 1179.24,-103.043"/>
<polygon fill="#7b5556" stroke="#7b5556" points="1124.23,-42.4731 1120.84,-32.045 1120.87,-38.7718 1117.5,-35.0706 1117.5,-35.0706 1117.5,-35.0706 1120.87,-38.7718 1114.17,-38.0961 1124.23,-42.4731 1124.23,-42.4731"/>
<text text-anchor="middle" x="1174.5" y="-56.9" font-family="Times,serif" font-size="14.00">members</text>
</g>
<!-- Sector -->
<g id="node17" class="node"><title>Sector</title>
<ellipse fill="none" stroke="black" cx="2197" cy="-127" rx="33.9477" ry="18"/>
<text text-anchor="middle" x="2197" y="-121.9" font-family="Times,serif" font-size="14.00">Sector</text>
</g>
<!-- Team -->
<g id="node18" class="node"><title>Team</title>
<ellipse fill="none" stroke="black" cx="2281" cy="-127" rx="31.9972" ry="18"/>
<text text-anchor="middle" x="2281" y="-121.9" font-family="Times,serif" font-size="14.00">Team</text>
</g>
</g>
</svg>
