<?xml version="1.0" encoding="UTF-8" standalone="no"?>
<!DOCTYPE svg PUBLIC "-//W3C//DTD SVG 1.1//EN"
 "http://www.w3.org/Graphics/SVG/1.1/DTD/svg11.dtd">
<!-- Generated by graphviz version 2.26.3 (20100126.1600)
 -->
<!-- Title: models_diagram Pages: 1 -->
<svg width="2916pt" height="710pt"
 viewBox="0.00 0.00 2916.00 710.00" xmlns="http://www.w3.org/2000/svg" xmlns:xlink="http://www.w3.org/1999/xlink">
<g id="graph1" class="graph" transform="scale(1 1) rotate(0) translate(4 706)">
<title>models_diagram</title>
<polygon fill="white" stroke="white" points="-4,5 -4,-706 2913,-706 2913,5 -4,5"/>
<!-- _diagram_info -->
<g id="node1" class="node"><title>_diagram_info</title>
<text text-anchor="start" x="7.5" y="-461.3" font-family="Times,serif" font-size="13.00">Models diagram</text>
<text text-anchor="start" x="7.5" y="-447.3" font-family="Times,serif" font-size="13.00">Date: Aug 21 2013 &#45; 00:34</text>
<text text-anchor="start" x="7.5" y="-433.3" font-family="Times,serif" font-size="13.00">Migration version: 20130820233158</text>
<text text-anchor="start" x="7.5" y="-419.3" font-family="Times,serif" font-size="13.00">Generated by RailRoady 1.1.0</text>
<text text-anchor="start" x="7.5" y="-405.3" font-family="Times,serif" font-size="13.00">http://railroady.prestonlee.com</text>
</g>
<!-- Admin -->
<g id="node2" class="node"><title>Admin</title>
<polyline fill="none" stroke="black" points="244,-325 426,-325 "/>
<path fill="none" stroke="black" d="M426,-325C432,-325 438,-331 438,-337"/>
<polyline fill="none" stroke="black" points="438,-337 438,-539 "/>
<path fill="none" stroke="black" d="M438,-539C438,-545 432,-551 426,-551"/>
<polyline fill="none" stroke="black" points="426,-551 244,-551 "/>
<path fill="none" stroke="black" d="M244,-551C238,-551 232,-545 232,-539"/>
<polyline fill="none" stroke="black" points="232,-539 232,-337 "/>
<path fill="none" stroke="black" d="M232,-337C232,-331 238,-325 244,-325"/>
<text text-anchor="middle" x="335" y="-534.4" font-family="Times,serif" font-size="14.00">Admin</text>
<polyline fill="none" stroke="black" points="232,-528 438,-528 "/>
<text text-anchor="start" x="240" y="-511.4" font-family="Times,serif" font-size="14.00">id :integer</text>
<text text-anchor="start" x="240" y="-496.4" font-family="Times,serif" font-size="14.00">email :string</text>
<text text-anchor="start" x="240" y="-481.4" font-family="Times,serif" font-size="14.00">encrypted_password :string</text>
<text text-anchor="start" x="240" y="-466.4" font-family="Times,serif" font-size="14.00">reset_password_token :string</text>
<text text-anchor="start" x="240" y="-451.4" font-family="Times,serif" font-size="14.00">reset_password_sent_at :datetime</text>
<text text-anchor="start" x="240" y="-436.4" font-family="Times,serif" font-size="14.00">remember_created_at :datetime</text>
<text text-anchor="start" x="240" y="-421.4" font-family="Times,serif" font-size="14.00">sign_in_count :integer</text>
<text text-anchor="start" x="240" y="-406.4" font-family="Times,serif" font-size="14.00">current_sign_in_at :datetime</text>
<text text-anchor="start" x="240" y="-391.4" font-family="Times,serif" font-size="14.00">last_sign_in_at :datetime</text>
<text text-anchor="start" x="240" y="-376.4" font-family="Times,serif" font-size="14.00">current_sign_in_ip :string</text>
<text text-anchor="start" x="240" y="-361.4" font-family="Times,serif" font-size="14.00">last_sign_in_ip :string</text>
<text text-anchor="start" x="240" y="-346.4" font-family="Times,serif" font-size="14.00">created_at :datetime</text>
<text text-anchor="start" x="240" y="-331.4" font-family="Times,serif" font-size="14.00">updated_at :datetime</text>
</g>
<!-- Advert -->
<g id="node3" class="node"><title>Advert</title>
<polyline fill="none" stroke="black" points="467.5,-377.5 578.5,-377.5 "/>
<path fill="none" stroke="black" d="M578.5,-377.5C584.5,-377.5 590.5,-383.5 590.5,-389.5"/>
<polyline fill="none" stroke="black" points="590.5,-389.5 590.5,-486.5 "/>
<path fill="none" stroke="black" d="M590.5,-486.5C590.5,-492.5 584.5,-498.5 578.5,-498.5"/>
<polyline fill="none" stroke="black" points="578.5,-498.5 467.5,-498.5 "/>
<path fill="none" stroke="black" d="M467.5,-498.5C461.5,-498.5 455.5,-492.5 455.5,-486.5"/>
<polyline fill="none" stroke="black" points="455.5,-486.5 455.5,-389.5 "/>
<path fill="none" stroke="black" d="M455.5,-389.5C455.5,-383.5 461.5,-377.5 467.5,-377.5"/>
<text text-anchor="middle" x="523" y="-481.9" font-family="Times,serif" font-size="14.00">Advert</text>
<polyline fill="none" stroke="black" points="455.5,-475.5 590.5,-475.5 "/>
<text text-anchor="start" x="463.5" y="-458.9" font-family="Times,serif" font-size="14.00">id :integer</text>
<text text-anchor="start" x="463.5" y="-443.9" font-family="Times,serif" font-size="14.00">name :string</text>
<text text-anchor="start" x="463.5" y="-428.9" font-family="Times,serif" font-size="14.00">image :string</text>
<text text-anchor="start" x="463.5" y="-413.9" font-family="Times,serif" font-size="14.00">sector_ids :string</text>
<text text-anchor="start" x="463.5" y="-398.9" font-family="Times,serif" font-size="14.00">created_at :datetime</text>
<text text-anchor="start" x="463.5" y="-383.9" font-family="Times,serif" font-size="14.00">updated_at :datetime</text>
</g>
<!-- Client -->
<g id="node4" class="node"><title>Client</title>
<polyline fill="none" stroke="black" points="620,-287.5 802,-287.5 "/>
<path fill="none" stroke="black" d="M802,-287.5C808,-287.5 814,-293.5 814,-299.5"/>
<polyline fill="none" stroke="black" points="814,-299.5 814,-576.5 "/>
<path fill="none" stroke="black" d="M814,-576.5C814,-582.5 808,-588.5 802,-588.5"/>
<polyline fill="none" stroke="black" points="802,-588.5 620,-588.5 "/>
<path fill="none" stroke="black" d="M620,-588.5C614,-588.5 608,-582.5 608,-576.5"/>
<polyline fill="none" stroke="black" points="608,-576.5 608,-299.5 "/>
<path fill="none" stroke="black" d="M608,-299.5C608,-293.5 614,-287.5 620,-287.5"/>
<text text-anchor="middle" x="711" y="-571.9" font-family="Times,serif" font-size="14.00">Client</text>
<polyline fill="none" stroke="black" points="608,-565.5 814,-565.5 "/>
<text text-anchor="start" x="616" y="-548.9" font-family="Times,serif" font-size="14.00">id :integer</text>
<text text-anchor="start" x="616" y="-533.9" font-family="Times,serif" font-size="14.00">email :string</text>
<text text-anchor="start" x="616" y="-518.9" font-family="Times,serif" font-size="14.00">encrypted_password :string</text>
<text text-anchor="start" x="616" y="-503.9" font-family="Times,serif" font-size="14.00">reset_password_token :string</text>
<text text-anchor="start" x="616" y="-488.9" font-family="Times,serif" font-size="14.00">reset_password_sent_at :datetime</text>
<text text-anchor="start" x="616" y="-473.9" font-family="Times,serif" font-size="14.00">remember_created_at :datetime</text>
<text text-anchor="start" x="616" y="-458.9" font-family="Times,serif" font-size="14.00">sign_in_count :integer</text>
<text text-anchor="start" x="616" y="-443.9" font-family="Times,serif" font-size="14.00">current_sign_in_at :datetime</text>
<text text-anchor="start" x="616" y="-428.9" font-family="Times,serif" font-size="14.00">last_sign_in_at :datetime</text>
<text text-anchor="start" x="616" y="-413.9" font-family="Times,serif" font-size="14.00">current_sign_in_ip :string</text>
<text text-anchor="start" x="616" y="-398.9" font-family="Times,serif" font-size="14.00">last_sign_in_ip :string</text>
<text text-anchor="start" x="616" y="-383.9" font-family="Times,serif" font-size="14.00">created_at :datetime</text>
<text text-anchor="start" x="616" y="-368.9" font-family="Times,serif" font-size="14.00">updated_at :datetime</text>
<text text-anchor="start" x="616" y="-353.9" font-family="Times,serif" font-size="14.00">organisation :string</text>
<text text-anchor="start" x="616" y="-338.9" font-family="Times,serif" font-size="14.00">confirmation_token :string</text>
<text text-anchor="start" x="616" y="-323.9" font-family="Times,serif" font-size="14.00">confirmed_at :datetime</text>
<text text-anchor="start" x="616" y="-308.9" font-family="Times,serif" font-size="14.00">confirmation_sent_at :datetime</text>
<text text-anchor="start" x="616" y="-293.9" font-family="Times,serif" font-size="14.00">unconfirmed_email :string</text>
</g>
<!-- ClientJob -->
<g id="node5" class="node"><title>ClientJob</title>
<polyline fill="none" stroke="black" points="843.5,-385 954.5,-385 "/>
<path fill="none" stroke="black" d="M954.5,-385C960.5,-385 966.5,-391 966.5,-397"/>
<polyline fill="none" stroke="black" points="966.5,-397 966.5,-479 "/>
<path fill="none" stroke="black" d="M966.5,-479C966.5,-485 960.5,-491 954.5,-491"/>
<polyline fill="none" stroke="black" points="954.5,-491 843.5,-491 "/>
<path fill="none" stroke="black" d="M843.5,-491C837.5,-491 831.5,-485 831.5,-479"/>
<polyline fill="none" stroke="black" points="831.5,-479 831.5,-397 "/>
<path fill="none" stroke="black" d="M831.5,-397C831.5,-391 837.5,-385 843.5,-385"/>
<text text-anchor="middle" x="899" y="-474.4" font-family="Times,serif" font-size="14.00">ClientJob</text>
<polyline fill="none" stroke="black" points="831.5,-468 966.5,-468 "/>
<text text-anchor="start" x="839.5" y="-451.4" font-family="Times,serif" font-size="14.00">id :integer</text>
<text text-anchor="start" x="839.5" y="-436.4" font-family="Times,serif" font-size="14.00">client_id :integer</text>
<text text-anchor="start" x="839.5" y="-421.4" font-family="Times,serif" font-size="14.00">job_id :integer</text>
<text text-anchor="start" x="839.5" y="-406.4" font-family="Times,serif" font-size="14.00">created_at :datetime</text>
<text text-anchor="start" x="839.5" y="-391.4" font-family="Times,serif" font-size="14.00">updated_at :datetime</text>
</g>
<!-- ClientMentor -->
<g id="node6" class="node"><title>ClientMentor</title>
<polyline fill="none" stroke="black" points="995.5,-385 1106.5,-385 "/>
<path fill="none" stroke="black" d="M1106.5,-385C1112.5,-385 1118.5,-391 1118.5,-397"/>
<polyline fill="none" stroke="black" points="1118.5,-397 1118.5,-479 "/>
<path fill="none" stroke="black" d="M1118.5,-479C1118.5,-485 1112.5,-491 1106.5,-491"/>
<polyline fill="none" stroke="black" points="1106.5,-491 995.5,-491 "/>
<path fill="none" stroke="black" d="M995.5,-491C989.5,-491 983.5,-485 983.5,-479"/>
<polyline fill="none" stroke="black" points="983.5,-479 983.5,-397 "/>
<path fill="none" stroke="black" d="M983.5,-397C983.5,-391 989.5,-385 995.5,-385"/>
<text text-anchor="middle" x="1051" y="-474.4" font-family="Times,serif" font-size="14.00">ClientMentor</text>
<polyline fill="none" stroke="black" points="983.5,-468 1118.5,-468 "/>
<text text-anchor="start" x="991.5" y="-451.4" font-family="Times,serif" font-size="14.00">id :integer</text>
<text text-anchor="start" x="991.5" y="-436.4" font-family="Times,serif" font-size="14.00">client_id :integer</text>
<text text-anchor="start" x="991.5" y="-421.4" font-family="Times,serif" font-size="14.00">mentor_id :integer</text>
<text text-anchor="start" x="991.5" y="-406.4" font-family="Times,serif" font-size="14.00">created_at :datetime</text>
<text text-anchor="start" x="991.5" y="-391.4" font-family="Times,serif" font-size="14.00">updated_at :datetime</text>
</g>
<!-- ClientProject -->
<g id="node7" class="node"><title>ClientProject</title>
<polyline fill="none" stroke="black" points="1147.5,-385 1258.5,-385 "/>
<path fill="none" stroke="black" d="M1258.5,-385C1264.5,-385 1270.5,-391 1270.5,-397"/>
<polyline fill="none" stroke="black" points="1270.5,-397 1270.5,-479 "/>
<path fill="none" stroke="black" d="M1270.5,-479C1270.5,-485 1264.5,-491 1258.5,-491"/>
<polyline fill="none" stroke="black" points="1258.5,-491 1147.5,-491 "/>
<path fill="none" stroke="black" d="M1147.5,-491C1141.5,-491 1135.5,-485 1135.5,-479"/>
<polyline fill="none" stroke="black" points="1135.5,-479 1135.5,-397 "/>
<path fill="none" stroke="black" d="M1135.5,-397C1135.5,-391 1141.5,-385 1147.5,-385"/>
<text text-anchor="middle" x="1203" y="-474.4" font-family="Times,serif" font-size="14.00">ClientProject</text>
<polyline fill="none" stroke="black" points="1135.5,-468 1270.5,-468 "/>
<text text-anchor="start" x="1143.5" y="-451.4" font-family="Times,serif" font-size="14.00">id :integer</text>
<text text-anchor="start" x="1143.5" y="-436.4" font-family="Times,serif" font-size="14.00">client_id :integer</text>
<text text-anchor="start" x="1143.5" y="-421.4" font-family="Times,serif" font-size="14.00">project_id :integer</text>
<text text-anchor="start" x="1143.5" y="-406.4" font-family="Times,serif" font-size="14.00">created_at :datetime</text>
<text text-anchor="start" x="1143.5" y="-391.4" font-family="Times,serif" font-size="14.00">updated_at :datetime</text>
</g>
<!-- EmployerProfile -->
<g id="node8" class="node"><title>EmployerProfile</title>
<polyline fill="none" stroke="black" points="1299.5,-362.5 1410.5,-362.5 "/>
<path fill="none" stroke="black" d="M1410.5,-362.5C1416.5,-362.5 1422.5,-368.5 1422.5,-374.5"/>
<polyline fill="none" stroke="black" points="1422.5,-374.5 1422.5,-501.5 "/>
<path fill="none" stroke="black" d="M1422.5,-501.5C1422.5,-507.5 1416.5,-513.5 1410.5,-513.5"/>
<polyline fill="none" stroke="black" points="1410.5,-513.5 1299.5,-513.5 "/>
<path fill="none" stroke="black" d="M1299.5,-513.5C1293.5,-513.5 1287.5,-507.5 1287.5,-501.5"/>
<polyline fill="none" stroke="black" points="1287.5,-501.5 1287.5,-374.5 "/>
<path fill="none" stroke="black" d="M1287.5,-374.5C1287.5,-368.5 1293.5,-362.5 1299.5,-362.5"/>
<text text-anchor="middle" x="1355" y="-496.9" font-family="Times,serif" font-size="14.00">EmployerProfile</text>
<polyline fill="none" stroke="black" points="1287.5,-490.5 1422.5,-490.5 "/>
<text text-anchor="start" x="1295.5" y="-473.9" font-family="Times,serif" font-size="14.00">id :integer</text>
<text text-anchor="start" x="1295.5" y="-458.9" font-family="Times,serif" font-size="14.00">name :string</text>
<text text-anchor="start" x="1295.5" y="-443.9" font-family="Times,serif" font-size="14.00">bio :string</text>
<text text-anchor="start" x="1295.5" y="-428.9" font-family="Times,serif" font-size="14.00">created_at :datetime</text>
<text text-anchor="start" x="1295.5" y="-413.9" font-family="Times,serif" font-size="14.00">updated_at :datetime</text>
<text text-anchor="start" x="1295.5" y="-398.9" font-family="Times,serif" font-size="14.00">image :string</text>
<text text-anchor="start" x="1295.5" y="-383.9" font-family="Times,serif" font-size="14.00">sector_ids :string</text>
<text text-anchor="start" x="1295.5" y="-368.9" font-family="Times,serif" font-size="14.00">location :string</text>
</g>
<!-- Location -->
<g id="node9" class="node"><title>Location</title>
<polyline fill="none" stroke="black" points="1451.5,-392.5 1562.5,-392.5 "/>
<path fill="none" stroke="black" d="M1562.5,-392.5C1568.5,-392.5 1574.5,-398.5 1574.5,-404.5"/>
<polyline fill="none" stroke="black" points="1574.5,-404.5 1574.5,-471.5 "/>
<path fill="none" stroke="black" d="M1574.5,-471.5C1574.5,-477.5 1568.5,-483.5 1562.5,-483.5"/>
<polyline fill="none" stroke="black" points="1562.5,-483.5 1451.5,-483.5 "/>
<path fill="none" stroke="black" d="M1451.5,-483.5C1445.5,-483.5 1439.5,-477.5 1439.5,-471.5"/>
<polyline fill="none" stroke="black" points="1439.5,-471.5 1439.5,-404.5 "/>
<path fill="none" stroke="black" d="M1439.5,-404.5C1439.5,-398.5 1445.5,-392.5 1451.5,-392.5"/>
<text text-anchor="middle" x="1507" y="-466.9" font-family="Times,serif" font-size="14.00">Location</text>
<polyline fill="none" stroke="black" points="1439.5,-460.5 1574.5,-460.5 "/>
<text text-anchor="start" x="1447.5" y="-443.9" font-family="Times,serif" font-size="14.00">id :integer</text>
<text text-anchor="start" x="1447.5" y="-428.9" font-family="Times,serif" font-size="14.00">name :string</text>
<text text-anchor="start" x="1447.5" y="-413.9" font-family="Times,serif" font-size="14.00">created_at :datetime</text>
<text text-anchor="start" x="1447.5" y="-398.9" font-family="Times,serif" font-size="14.00">updated_at :datetime</text>
</g>
<!-- Member -->
<g id="node10" class="node"><title>Member</title>
<polyline fill="none" stroke="black" points="1929.5,-175 2232.5,-175 "/>
<path fill="none" stroke="black" d="M2232.5,-175C2238.5,-175 2244.5,-181 2244.5,-187"/>
<polyline fill="none" stroke="black" points="2244.5,-187 2244.5,-689 "/>
<path fill="none" stroke="black" d="M2244.5,-689C2244.5,-695 2238.5,-701 2232.5,-701"/>
<polyline fill="none" stroke="black" points="2232.5,-701 1929.5,-701 "/>
<path fill="none" stroke="black" d="M1929.5,-701C1923.5,-701 1917.5,-695 1917.5,-689"/>
<polyline fill="none" stroke="black" points="1917.5,-689 1917.5,-187 "/>
<path fill="none" stroke="black" d="M1917.5,-187C1917.5,-181 1923.5,-175 1929.5,-175"/>
<text text-anchor="middle" x="2081" y="-684.4" font-family="Times,serif" font-size="14.00">Member</text>
<polyline fill="none" stroke="black" points="1917.5,-678 2244.5,-678 "/>
<text text-anchor="start" x="1925.5" y="-661.4" font-family="Times,serif" font-size="14.00">id :integer</text>
<text text-anchor="start" x="1925.5" y="-646.4" font-family="Times,serif" font-size="14.00">email :string</text>
<text text-anchor="start" x="1925.5" y="-631.4" font-family="Times,serif" font-size="14.00">encrypted_password :string</text>
<text text-anchor="start" x="1925.5" y="-616.4" font-family="Times,serif" font-size="14.00">reset_password_token :string</text>
<text text-anchor="start" x="1925.5" y="-601.4" font-family="Times,serif" font-size="14.00">reset_password_sent_at :datetime</text>
<text text-anchor="start" x="1925.5" y="-586.4" font-family="Times,serif" font-size="14.00">remember_created_at :datetime</text>
<text text-anchor="start" x="1925.5" y="-571.4" font-family="Times,serif" font-size="14.00">sign_in_count :integer</text>
<text text-anchor="start" x="1925.5" y="-556.4" font-family="Times,serif" font-size="14.00">current_sign_in_at :datetime</text>
<text text-anchor="start" x="1925.5" y="-541.4" font-family="Times,serif" font-size="14.00">last_sign_in_at :datetime</text>
<text text-anchor="start" x="1925.5" y="-526.4" font-family="Times,serif" font-size="14.00">current_sign_in_ip :string</text>
<text text-anchor="start" x="1925.5" y="-511.4" font-family="Times,serif" font-size="14.00">last_sign_in_ip :string</text>
<text text-anchor="start" x="1925.5" y="-496.4" font-family="Times,serif" font-size="14.00">created_at :datetime</text>
<text text-anchor="start" x="1925.5" y="-481.4" font-family="Times,serif" font-size="14.00">updated_at :datetime</text>
<text text-anchor="start" x="1925.5" y="-466.4" font-family="Times,serif" font-size="14.00">fname :string</text>
<text text-anchor="start" x="1925.5" y="-451.4" font-family="Times,serif" font-size="14.00">lname :string</text>
<text text-anchor="start" x="1925.5" y="-436.4" font-family="Times,serif" font-size="14.00">dob :date</text>
<text text-anchor="start" x="1925.5" y="-421.4" font-family="Times,serif" font-size="14.00">gender :string</text>
<text text-anchor="start" x="1925.5" y="-406.4" font-family="Times,serif" font-size="14.00">telephone :string</text>
<text text-anchor="start" x="1925.5" y="-391.4" font-family="Times,serif" font-size="14.00">sector_ids :string</text>
<text text-anchor="start" x="1925.5" y="-376.4" font-family="Times,serif" font-size="14.00">location :string</text>
<text text-anchor="start" x="1925.5" y="-361.4" font-family="Times,serif" font-size="14.00">employment_status :string</text>
<text text-anchor="start" x="1925.5" y="-346.4" font-family="Times,serif" font-size="14.00">academic_institution :string</text>
<text text-anchor="start" x="1925.5" y="-331.4" font-family="Times,serif" font-size="14.00">course :string</text>
<text text-anchor="start" x="1925.5" y="-316.4" font-family="Times,serif" font-size="14.00">cv :string</text>
<text text-anchor="start" x="1925.5" y="-301.4" font-family="Times,serif" font-size="14.00">settings_receive_email_updates :boolean</text>
<text text-anchor="start" x="1925.5" y="-286.4" font-family="Times,serif" font-size="14.00">settings_pass_info_to_employment_agencies :boolean</text>
<text text-anchor="start" x="1925.5" y="-271.4" font-family="Times,serif" font-size="14.00">settings_mentoring_highschool :boolean</text>
<text text-anchor="start" x="1925.5" y="-256.4" font-family="Times,serif" font-size="14.00">settings_pass_info_to_marketing :boolean</text>
<text text-anchor="start" x="1925.5" y="-241.4" font-family="Times,serif" font-size="14.00">unconfirmed_email :string</text>
<text text-anchor="start" x="1925.5" y="-226.4" font-family="Times,serif" font-size="14.00">confirmation_token :string</text>
<text text-anchor="start" x="1925.5" y="-211.4" font-family="Times,serif" font-size="14.00">confirmed_at :datetime</text>
<text text-anchor="start" x="1925.5" y="-196.4" font-family="Times,serif" font-size="14.00">confirmation_sent_at :datetime</text>
<text text-anchor="start" x="1925.5" y="-181.4" font-family="Times,serif" font-size="14.00">hear_about_us :string</text>
</g>
<!-- MemberMentorApplication -->
<g id="node12" class="node"><title>MemberMentorApplication</title>
<polyline fill="none" stroke="black" points="1861,-0.5 2013,-0.5 "/>
<path fill="none" stroke="black" d="M2013,-0.5C2019,-0.5 2025,-6.5 2025,-12.5"/>
<polyline fill="none" stroke="black" points="2025,-12.5 2025,-109.5 "/>
<path fill="none" stroke="black" d="M2025,-109.5C2025,-115.5 2019,-121.5 2013,-121.5"/>
<polyline fill="none" stroke="black" points="2013,-121.5 1861,-121.5 "/>
<path fill="none" stroke="black" d="M1861,-121.5C1855,-121.5 1849,-115.5 1849,-109.5"/>
<polyline fill="none" stroke="black" points="1849,-109.5 1849,-12.5 "/>
<path fill="none" stroke="black" d="M1849,-12.5C1849,-6.5 1855,-0.5 1861,-0.5"/>
<text text-anchor="middle" x="1937" y="-104.9" font-family="Times,serif" font-size="14.00">MemberMentorApplication</text>
<polyline fill="none" stroke="black" points="1849,-98.5 2025,-98.5 "/>
<text text-anchor="start" x="1857" y="-81.9" font-family="Times,serif" font-size="14.00">id :integer</text>
<text text-anchor="start" x="1857" y="-66.9" font-family="Times,serif" font-size="14.00">member_id :integer</text>
<text text-anchor="start" x="1857" y="-51.9" font-family="Times,serif" font-size="14.00">mentor_id :integer</text>
<text text-anchor="start" x="1857" y="-36.9" font-family="Times,serif" font-size="14.00">status :string</text>
<text text-anchor="start" x="1857" y="-21.9" font-family="Times,serif" font-size="14.00">created_at :datetime</text>
<text text-anchor="start" x="1857" y="-6.9" font-family="Times,serif" font-size="14.00">updated_at :datetime</text>
</g>
<!-- Member&#45;&gt;MemberMentorApplication -->
<g id="edge2" class="edge"><title>Member&#45;&gt;MemberMentorApplication</title>
<path fill="none" stroke="#3f25ba" d="M1977.59,-167.261C1972.73,-154.556 1968.12,-142.47 1963.86,-131.311"/>
<ellipse fill="none" stroke="#3f25ba" cx="1979.07" cy="-171.143" rx="4.00001" ry="4.00001"/>
<polygon fill="#3f25ba" stroke="#3f25ba" points="1963.77,-131.093 1964.41,-120.145 1961.99,-126.422 1960.2,-121.751 1960.2,-121.751 1960.2,-121.751 1961.99,-126.422 1956,-123.357 1963.77,-131.093 1963.77,-131.093"/>
</g>
<!-- MemberProjectApplication -->
<g id="node13" class="node"><title>MemberProjectApplication</title>
<polyline fill="none" stroke="black" points="1668.5,-0.5 1819.5,-0.5 "/>
<path fill="none" stroke="black" d="M1819.5,-0.5C1825.5,-0.5 1831.5,-6.5 1831.5,-12.5"/>
<polyline fill="none" stroke="black" points="1831.5,-12.5 1831.5,-109.5 "/>
<path fill="none" stroke="black" d="M1831.5,-109.5C1831.5,-115.5 1825.5,-121.5 1819.5,-121.5"/>
<polyline fill="none" stroke="black" points="1819.5,-121.5 1668.5,-121.5 "/>
<path fill="none" stroke="black" d="M1668.5,-121.5C1662.5,-121.5 1656.5,-115.5 1656.5,-109.5"/>
<polyline fill="none" stroke="black" points="1656.5,-109.5 1656.5,-12.5 "/>
<path fill="none" stroke="black" d="M1656.5,-12.5C1656.5,-6.5 1662.5,-0.5 1668.5,-0.5"/>
<text text-anchor="middle" x="1744" y="-104.9" font-family="Times,serif" font-size="14.00">MemberProjectApplication</text>
<polyline fill="none" stroke="black" points="1656.5,-98.5 1831.5,-98.5 "/>
<text text-anchor="start" x="1664.5" y="-81.9" font-family="Times,serif" font-size="14.00">id :integer</text>
<text text-anchor="start" x="1664.5" y="-66.9" font-family="Times,serif" font-size="14.00">member_id :integer</text>
<text text-anchor="start" x="1664.5" y="-51.9" font-family="Times,serif" font-size="14.00">project_id :string</text>
<text text-anchor="start" x="1664.5" y="-36.9" font-family="Times,serif" font-size="14.00">status :string</text>
<text text-anchor="start" x="1664.5" y="-21.9" font-family="Times,serif" font-size="14.00">created_at :datetime</text>
<text text-anchor="start" x="1664.5" y="-6.9" font-family="Times,serif" font-size="14.00">updated_at :datetime</text>
</g>
<!-- Member&#45;&gt;MemberProjectApplication -->
<g id="edge6" class="edge"><title>Member&#45;&gt;MemberProjectApplication</title>
<path fill="none" stroke="#83c866" d="M1911.54,-182.959C1908.71,-179.925 1905.87,-176.937 1903,-174 1891.75,-162.467 1866.89,-143.896 1840.1,-125.111"/>
<ellipse fill="none" stroke="#83c866" cx="1914.62" cy="-186.306" rx="4.00002" ry="4.00002"/>
<polygon fill="#83c866" stroke="#83c866" points="1839.94,-125 1834.31,-115.59 1835.84,-122.141 1831.74,-119.282 1831.74,-119.282 1831.74,-119.282 1835.84,-122.141 1829.16,-122.974 1839.94,-125 1839.94,-125"/>
</g>
<!-- Mentors -->
<g id="node21" class="node"><title>Mentors</title>
<ellipse fill="none" stroke="black" cx="2084" cy="-61" rx="41.0951" ry="18"/>
<text text-anchor="middle" x="2084" y="-55.9" font-family="Times,serif" font-size="14.00">Mentors</text>
</g>
<!-- Member&#45;&gt;Mentors -->
<g id="edge4" class="edge"><title>Member&#45;&gt;Mentors</title>
<path fill="none" stroke="#d4373e" d="M2083.18,-164.547C2083.42,-134.32 2083.63,-107.778 2083.78,-89.1356"/>
<polygon fill="#d4373e" stroke="#d4373e" points="2083.17,-164.88 2078.59,-174.844 2083.13,-169.88 2083.09,-174.88 2083.09,-174.88 2083.09,-174.88 2083.13,-169.88 2087.59,-174.915 2083.17,-164.88 2083.17,-164.88"/>
<polygon fill="#d4373e" stroke="#d4373e" points="2083.78,-89.1033 2088.36,-79.1394 2083.82,-84.1034 2083.86,-79.1036 2083.86,-79.1036 2083.86,-79.1036 2083.82,-84.1034 2079.36,-79.0677 2083.78,-89.1033 2083.78,-89.1033"/>
<text text-anchor="middle" x="2106" y="-142.9" font-family="Times,serif" font-size="14.00">mentors</text>
</g>
<!-- Projects -->
<g id="node24" class="node"><title>Projects</title>
<ellipse fill="none" stroke="black" cx="2184" cy="-61" rx="40.9464" ry="18"/>
<text text-anchor="middle" x="2184" y="-55.9" font-family="Times,serif" font-size="14.00">Projects</text>
</g>
<!-- Member&#45;&gt;Projects -->
<g id="edge8" class="edge"><title>Member&#45;&gt;Projects</title>
<path fill="none" stroke="#296f50" d="M2155.58,-165.011C2163.93,-134.475 2171.25,-107.669 2176.37,-88.9204"/>
<polygon fill="#296f50" stroke="#296f50" points="2155.52,-165.233 2148.55,-173.694 2154.2,-170.056 2152.89,-174.88 2152.89,-174.88 2152.89,-174.88 2154.2,-170.056 2157.23,-176.066 2155.52,-165.233 2155.52,-165.233"/>
<polygon fill="#296f50" stroke="#296f50" points="2176.42,-88.75 2183.39,-80.2896 2177.74,-83.9268 2179.05,-79.1036 2179.05,-79.1036 2179.05,-79.1036 2177.74,-83.9268 2174.71,-77.9176 2176.42,-88.75 2176.42,-88.75"/>
<text text-anchor="middle" x="2184" y="-142.9" font-family="Times,serif" font-size="14.00">projects</text>
</g>
<!-- MemberJobApplication -->
<g id="node11" class="node"><title>MemberJobApplication</title>
<polyline fill="none" stroke="black" points="2274,-377.5 2404,-377.5 "/>
<path fill="none" stroke="black" d="M2404,-377.5C2410,-377.5 2416,-383.5 2416,-389.5"/>
<polyline fill="none" stroke="black" points="2416,-389.5 2416,-486.5 "/>
<path fill="none" stroke="black" d="M2416,-486.5C2416,-492.5 2410,-498.5 2404,-498.5"/>
<polyline fill="none" stroke="black" points="2404,-498.5 2274,-498.5 "/>
<path fill="none" stroke="black" d="M2274,-498.5C2268,-498.5 2262,-492.5 2262,-486.5"/>
<polyline fill="none" stroke="black" points="2262,-486.5 2262,-389.5 "/>
<path fill="none" stroke="black" d="M2262,-389.5C2262,-383.5 2268,-377.5 2274,-377.5"/>
<text text-anchor="middle" x="2339" y="-481.9" font-family="Times,serif" font-size="14.00">MemberJobApplication</text>
<polyline fill="none" stroke="black" points="2262,-475.5 2416,-475.5 "/>
<text text-anchor="start" x="2270" y="-458.9" font-family="Times,serif" font-size="14.00">id :integer</text>
<text text-anchor="start" x="2270" y="-443.9" font-family="Times,serif" font-size="14.00">member_id :integer</text>
<text text-anchor="start" x="2270" y="-428.9" font-family="Times,serif" font-size="14.00">job_id :integer</text>
<text text-anchor="start" x="2270" y="-413.9" font-family="Times,serif" font-size="14.00">status :string</text>
<text text-anchor="start" x="2270" y="-398.9" font-family="Times,serif" font-size="14.00">created_at :datetime</text>
<text text-anchor="start" x="2270" y="-383.9" font-family="Times,serif" font-size="14.00">updated_at :datetime</text>
</g>
<!-- Mentor -->
<g id="node14" class="node"><title>Mentor</title>
<polyline fill="none" stroke="black" points="1771.5,-287.5 1882.5,-287.5 "/>
<path fill="none" stroke="black" d="M1882.5,-287.5C1888.5,-287.5 1894.5,-293.5 1894.5,-299.5"/>
<polyline fill="none" stroke="black" points="1894.5,-299.5 1894.5,-576.5 "/>
<path fill="none" stroke="black" d="M1894.5,-576.5C1894.5,-582.5 1888.5,-588.5 1882.5,-588.5"/>
<polyline fill="none" stroke="black" points="1882.5,-588.5 1771.5,-588.5 "/>
<path fill="none" stroke="black" d="M1771.5,-588.5C1765.5,-588.5 1759.5,-582.5 1759.5,-576.5"/>
<polyline fill="none" stroke="black" points="1759.5,-576.5 1759.5,-299.5 "/>
<path fill="none" stroke="black" d="M1759.5,-299.5C1759.5,-293.5 1765.5,-287.5 1771.5,-287.5"/>
<text text-anchor="middle" x="1827" y="-571.9" font-family="Times,serif" font-size="14.00">Mentor</text>
<polyline fill="none" stroke="black" points="1759.5,-565.5 1894.5,-565.5 "/>
<text text-anchor="start" x="1767.5" y="-548.9" font-family="Times,serif" font-size="14.00">id :integer</text>
<text text-anchor="start" x="1767.5" y="-533.9" font-family="Times,serif" font-size="14.00">fname :string</text>
<text text-anchor="start" x="1767.5" y="-518.9" font-family="Times,serif" font-size="14.00">lname :string</text>
<text text-anchor="start" x="1767.5" y="-503.9" font-family="Times,serif" font-size="14.00">role_title :string</text>
<text text-anchor="start" x="1767.5" y="-488.9" font-family="Times,serif" font-size="14.00">sector_ids :string</text>
<text text-anchor="start" x="1767.5" y="-473.9" font-family="Times,serif" font-size="14.00">organisation :string</text>
<text text-anchor="start" x="1767.5" y="-458.9" font-family="Times,serif" font-size="14.00">closing_date :date</text>
<text text-anchor="start" x="1767.5" y="-443.9" font-family="Times,serif" font-size="14.00">location :string</text>
<text text-anchor="start" x="1767.5" y="-428.9" font-family="Times,serif" font-size="14.00">description :string</text>
<text text-anchor="start" x="1767.5" y="-413.9" font-family="Times,serif" font-size="14.00">email :string</text>
<text text-anchor="start" x="1767.5" y="-398.9" font-family="Times,serif" font-size="14.00">telephone :string</text>
<text text-anchor="start" x="1767.5" y="-383.9" font-family="Times,serif" font-size="14.00">image :string</text>
<text text-anchor="start" x="1767.5" y="-368.9" font-family="Times,serif" font-size="14.00">draft :boolean</text>
<text text-anchor="start" x="1767.5" y="-353.9" font-family="Times,serif" font-size="14.00">created_at :datetime</text>
<text text-anchor="start" x="1767.5" y="-338.9" font-family="Times,serif" font-size="14.00">updated_at :datetime</text>
<text text-anchor="start" x="1767.5" y="-323.9" font-family="Times,serif" font-size="14.00">internal :boolean</text>
<text text-anchor="start" x="1767.5" y="-308.9" font-family="Times,serif" font-size="14.00">external :boolean</text>
<text text-anchor="start" x="1767.5" y="-293.9" font-family="Times,serif" font-size="14.00">slug :string</text>
</g>
<!-- Mentor&#45;&gt;MemberMentorApplication -->
<g id="edge10" class="edge"><title>Mentor&#45;&gt;MemberMentorApplication</title>
<path fill="none" stroke="#2ae9da" d="M1873.24,-279.524C1888.32,-227.848 1904.3,-173.082 1916.49,-131.303"/>
<ellipse fill="none" stroke="#2ae9da" cx="1872.07" cy="-283.534" rx="4.00001" ry="4.00001"/>
<polygon fill="#2ae9da" stroke="#2ae9da" points="1916.54,-131.113 1923.66,-122.774 1917.94,-126.313 1919.34,-121.514 1919.34,-121.514 1919.34,-121.514 1917.94,-126.313 1915.02,-120.253 1916.54,-131.113 1916.54,-131.113"/>
</g>
<!-- Members -->
<g id="node27" class="node"><title>Members</title>
<ellipse fill="none" stroke="black" cx="1593" cy="-61" rx="46.1459" ry="18"/>
<text text-anchor="middle" x="1593" y="-55.9" font-family="Times,serif" font-size="14.00">Members</text>
</g>
<!-- Mentor&#45;&gt;Members -->
<g id="edge12" class="edge"><title>Mentor&#45;&gt;Members</title>
<path fill="none" stroke="#d96a6f" d="M1794.09,-277.425C1781.23,-240.753 1763.46,-203.839 1739,-174 1709.47,-137.976 1684.28,-151.222 1648,-122 1635.01,-111.534 1622.4,-97.8931 1612.55,-86.1654"/>
<polygon fill="#d96a6f" stroke="#d96a6f" points="1794.21,-277.775 1793.16,-288.691 1795.82,-282.51 1797.42,-287.245 1797.42,-287.245 1797.42,-287.245 1795.82,-282.51 1801.68,-285.799 1794.21,-277.775 1794.21,-277.775"/>
<polygon fill="#d96a6f" stroke="#d96a6f" points="1612.53,-86.1467 1609.67,-75.5608 1609.36,-82.2806 1606.19,-78.4144 1606.19,-78.4144 1606.19,-78.4144 1609.36,-82.2806 1602.71,-81.268 1612.53,-86.1467 1612.53,-86.1467"/>
<text text-anchor="middle" x="1744.5" y="-142.9" font-family="Times,serif" font-size="14.00">members</text>
</g>
<!-- OrganisationEmailDomain -->
<g id="node15" class="node"><title>OrganisationEmailDomain</title>
<polyline fill="none" stroke="black" points="2445.5,-385 2592.5,-385 "/>
<path fill="none" stroke="black" d="M2592.5,-385C2598.5,-385 2604.5,-391 2604.5,-397"/>
<polyline fill="none" stroke="black" points="2604.5,-397 2604.5,-479 "/>
<path fill="none" stroke="black" d="M2604.5,-479C2604.5,-485 2598.5,-491 2592.5,-491"/>
<polyline fill="none" stroke="black" points="2592.5,-491 2445.5,-491 "/>
<path fill="none" stroke="black" d="M2445.5,-491C2439.5,-491 2433.5,-485 2433.5,-479"/>
<polyline fill="none" stroke="black" points="2433.5,-479 2433.5,-397 "/>
<path fill="none" stroke="black" d="M2433.5,-397C2433.5,-391 2439.5,-385 2445.5,-385"/>
<text text-anchor="middle" x="2519" y="-474.4" font-family="Times,serif" font-size="14.00">OrganisationEmailDomain</text>
<polyline fill="none" stroke="black" points="2433.5,-468 2604.5,-468 "/>
<text text-anchor="start" x="2441.5" y="-451.4" font-family="Times,serif" font-size="14.00">id :integer</text>
<text text-anchor="start" x="2441.5" y="-436.4" font-family="Times,serif" font-size="14.00">organisation :string</text>
<text text-anchor="start" x="2441.5" y="-421.4" font-family="Times,serif" font-size="14.00">domain :string</text>
<text text-anchor="start" x="2441.5" y="-406.4" font-family="Times,serif" font-size="14.00">created_at :datetime</text>
<text text-anchor="start" x="2441.5" y="-391.4" font-family="Times,serif" font-size="14.00">updated_at :datetime</text>
</g>
<!-- Project -->
<g id="node16" class="node"><title>Project</title>
<polyline fill="none" stroke="black" points="1604,-287.5 1718,-287.5 "/>
<path fill="none" stroke="black" d="M1718,-287.5C1724,-287.5 1730,-293.5 1730,-299.5"/>
<polyline fill="none" stroke="black" points="1730,-299.5 1730,-576.5 "/>
<path fill="none" stroke="black" d="M1730,-576.5C1730,-582.5 1724,-588.5 1718,-588.5"/>
<polyline fill="none" stroke="black" points="1718,-588.5 1604,-588.5 "/>
<path fill="none" stroke="black" d="M1604,-588.5C1598,-588.5 1592,-582.5 1592,-576.5"/>
<polyline fill="none" stroke="black" points="1592,-576.5 1592,-299.5 "/>
<path fill="none" stroke="black" d="M1592,-299.5C1592,-293.5 1598,-287.5 1604,-287.5"/>
<text text-anchor="middle" x="1661" y="-571.9" font-family="Times,serif" font-size="14.00">Project</text>
<polyline fill="none" stroke="black" points="1592,-565.5 1730,-565.5 "/>
<text text-anchor="start" x="1600" y="-548.9" font-family="Times,serif" font-size="14.00">id :integer</text>
<text text-anchor="start" x="1600" y="-533.9" font-family="Times,serif" font-size="14.00">name :string</text>
<text text-anchor="start" x="1600" y="-518.9" font-family="Times,serif" font-size="14.00">project_leader :string</text>
<text text-anchor="start" x="1600" y="-503.9" font-family="Times,serif" font-size="14.00">sector_ids :string</text>
<text text-anchor="start" x="1600" y="-488.9" font-family="Times,serif" font-size="14.00">organisation :string</text>
<text text-anchor="start" x="1600" y="-473.9" font-family="Times,serif" font-size="14.00">closing_date :date</text>
<text text-anchor="start" x="1600" y="-458.9" font-family="Times,serif" font-size="14.00">location :string</text>
<text text-anchor="start" x="1600" y="-443.9" font-family="Times,serif" font-size="14.00">description :string</text>
<text text-anchor="start" x="1600" y="-428.9" font-family="Times,serif" font-size="14.00">email :string</text>
<text text-anchor="start" x="1600" y="-413.9" font-family="Times,serif" font-size="14.00">telephone :string</text>
<text text-anchor="start" x="1600" y="-398.9" font-family="Times,serif" font-size="14.00">draft :boolean</text>
<text text-anchor="start" x="1600" y="-383.9" font-family="Times,serif" font-size="14.00">created_at :datetime</text>
<text text-anchor="start" x="1600" y="-368.9" font-family="Times,serif" font-size="14.00">updated_at :datetime</text>
<text text-anchor="start" x="1600" y="-353.9" font-family="Times,serif" font-size="14.00">image :string</text>
<text text-anchor="start" x="1600" y="-338.9" font-family="Times,serif" font-size="14.00">salary :string</text>
<text text-anchor="start" x="1600" y="-323.9" font-family="Times,serif" font-size="14.00">internal :boolean</text>
<text text-anchor="start" x="1600" y="-308.9" font-family="Times,serif" font-size="14.00">external :boolean</text>
<text text-anchor="start" x="1600" y="-293.9" font-family="Times,serif" font-size="14.00">slug :string</text>
</g>
<!-- Project&#45;&gt;MemberProjectApplication -->
<g id="edge14" class="edge"><title>Project&#45;&gt;MemberProjectApplication</title>
<path fill="none" stroke="#2dbfa6" d="M1680.75,-279.05C1688.25,-233.655 1698.17,-184.457 1711,-140 1711.84,-137.095 1712.75,-134.152 1713.72,-131.197"/>
<ellipse fill="none" stroke="#2dbfa6" cx="1680.07" cy="-283.236" rx="4.00001" ry="4.00001"/>
<polygon fill="#2dbfa6" stroke="#2dbfa6" points="1713.73,-131.192 1721.25,-123.219 1715.36,-126.468 1717,-121.744 1717,-121.744 1717,-121.744 1715.36,-126.468 1712.75,-120.27 1713.73,-131.192 1713.73,-131.192"/>
</g>
<!-- Project&#45;&gt;Members -->
<g id="edge16" class="edge"><title>Project&#45;&gt;Members</title>
<path fill="none" stroke="#73213a" d="M1629.02,-277.459C1621.47,-237.817 1613.68,-195.418 1607,-156 1603.21,-133.636 1599.5,-108.211 1596.85,-89.2942"/>
<polygon fill="#73213a" stroke="#73213a" points="1629.06,-277.652 1626.52,-288.32 1630,-282.563 1630.94,-287.475 1630.94,-287.475 1630.94,-287.475 1630,-282.563 1635.36,-286.629 1629.06,-277.652 1629.06,-277.652"/>
<polygon fill="#73213a" stroke="#73213a" points="1596.83,-89.1539 1599.91,-78.6305 1596.14,-84.2013 1595.45,-79.2488 1595.45,-79.2488 1595.45,-79.2488 1596.14,-84.2013 1591,-79.8671 1596.83,-89.1539 1596.83,-89.1539"/>
<text text-anchor="middle" x="1633.5" y="-142.9" font-family="Times,serif" font-size="14.00">members</text>
</g>
<!-- Sector -->
<g id="node17" class="node"><title>Sector</title>
<polyline fill="none" stroke="black" points="2633.5,-392.5 2744.5,-392.5 "/>
<path fill="none" stroke="black" d="M2744.5,-392.5C2750.5,-392.5 2756.5,-398.5 2756.5,-404.5"/>
<polyline fill="none" stroke="black" points="2756.5,-404.5 2756.5,-471.5 "/>
<path fill="none" stroke="black" d="M2756.5,-471.5C2756.5,-477.5 2750.5,-483.5 2744.5,-483.5"/>
<polyline fill="none" stroke="black" points="2744.5,-483.5 2633.5,-483.5 "/>
<path fill="none" stroke="black" d="M2633.5,-483.5C2627.5,-483.5 2621.5,-477.5 2621.5,-471.5"/>
<polyline fill="none" stroke="black" points="2621.5,-471.5 2621.5,-404.5 "/>
<path fill="none" stroke="black" d="M2621.5,-404.5C2621.5,-398.5 2627.5,-392.5 2633.5,-392.5"/>
<text text-anchor="middle" x="2689" y="-466.9" font-family="Times,serif" font-size="14.00">Sector</text>
<polyline fill="none" stroke="black" points="2621.5,-460.5 2756.5,-460.5 "/>
<text text-anchor="start" x="2629.5" y="-443.9" font-family="Times,serif" font-size="14.00">id :integer</text>
<text text-anchor="start" x="2629.5" y="-428.9" font-family="Times,serif" font-size="14.00">name :string</text>
<text text-anchor="start" x="2629.5" y="-413.9" font-family="Times,serif" font-size="14.00">created_at :datetime</text>
<text text-anchor="start" x="2629.5" y="-398.9" font-family="Times,serif" font-size="14.00">updated_at :datetime</text>
</g>
<!-- Team -->
<g id="node18" class="node"><title>Team</title>
<polyline fill="none" stroke="black" points="2785.5,-362.5 2896.5,-362.5 "/>
<path fill="none" stroke="black" d="M2896.5,-362.5C2902.5,-362.5 2908.5,-368.5 2908.5,-374.5"/>
<polyline fill="none" stroke="black" points="2908.5,-374.5 2908.5,-501.5 "/>
<path fill="none" stroke="black" d="M2908.5,-501.5C2908.5,-507.5 2902.5,-513.5 2896.5,-513.5"/>
<polyline fill="none" stroke="black" points="2896.5,-513.5 2785.5,-513.5 "/>
<path fill="none" stroke="black" d="M2785.5,-513.5C2779.5,-513.5 2773.5,-507.5 2773.5,-501.5"/>
<polyline fill="none" stroke="black" points="2773.5,-501.5 2773.5,-374.5 "/>
<path fill="none" stroke="black" d="M2773.5,-374.5C2773.5,-368.5 2779.5,-362.5 2785.5,-362.5"/>
<text text-anchor="middle" x="2841" y="-496.9" font-family="Times,serif" font-size="14.00">Team</text>
<polyline fill="none" stroke="black" points="2773.5,-490.5 2908.5,-490.5 "/>
<text text-anchor="start" x="2781.5" y="-473.9" font-family="Times,serif" font-size="14.00">id :integer</text>
<text text-anchor="start" x="2781.5" y="-458.9" font-family="Times,serif" font-size="14.00">fname :string</text>
<text text-anchor="start" x="2781.5" y="-443.9" font-family="Times,serif" font-size="14.00">lname :string</text>
<text text-anchor="start" x="2781.5" y="-428.9" font-family="Times,serif" font-size="14.00">bio :string</text>
<text text-anchor="start" x="2781.5" y="-413.9" font-family="Times,serif" font-size="14.00">position :string</text>
<text text-anchor="start" x="2781.5" y="-398.9" font-family="Times,serif" font-size="14.00">image :string</text>
<text text-anchor="start" x="2781.5" y="-383.9" font-family="Times,serif" font-size="14.00">created_at :datetime</text>
<text text-anchor="start" x="2781.5" y="-368.9" font-family="Times,serif" font-size="14.00">updated_at :datetime</text>
</g>
</g>
</svg>
