<?xml version="1.0" encoding="UTF-8" standalone="no"?>
<!DOCTYPE svg PUBLIC "-//W3C//DTD SVG 1.1//EN"
 "http://www.w3.org/Graphics/SVG/1.1/DTD/svg11.dtd">
<!-- Generated by graphviz version 2.26.3 (20100126.1600)
 -->
<!-- Title: models_diagram Pages: 1 -->
<svg width="3286pt" height="536pt"
 viewBox="0.00 0.00 3286.00 536.00" xmlns="http://www.w3.org/2000/svg" xmlns:xlink="http://www.w3.org/1999/xlink">
<g id="graph1" class="graph" transform="scale(1 1) rotate(0) translate(4 532)">
<title>models_diagram</title>
<polygon fill="white" stroke="white" points="-4,5 -4,-532 3283,-532 3283,5 -4,5"/>
<!-- _diagram_info -->
<g id="node1" class="node"><title>_diagram_info</title>
<text text-anchor="start" x="8" y="-287.3" font-family="Times,serif" font-size="13.00">Models diagram</text>
<text text-anchor="start" x="8" y="-273.3" font-family="Times,serif" font-size="13.00">Date: Aug 01 2013 &#45; 11:03</text>
<text text-anchor="start" x="8" y="-259.3" font-family="Times,serif" font-size="13.00">Migration version: 20130731123144</text>
<text text-anchor="start" x="8" y="-245.3" font-family="Times,serif" font-size="13.00">Generated by RailRoady 1.1.0</text>
<text text-anchor="start" x="8" y="-231.3" font-family="Times,serif" font-size="13.00">http://railroady.prestonlee.com</text>
</g>
<!-- Admin -->
<g id="node2" class="node"><title>Admin</title>
<polyline fill="none" stroke="black" points="246,-151 428,-151 "/>
<path fill="none" stroke="black" d="M428,-151C434,-151 440,-157 440,-163"/>
<polyline fill="none" stroke="black" points="440,-163 440,-365 "/>
<path fill="none" stroke="black" d="M440,-365C440,-371 434,-377 428,-377"/>
<polyline fill="none" stroke="black" points="428,-377 246,-377 "/>
<path fill="none" stroke="black" d="M246,-377C240,-377 234,-371 234,-365"/>
<polyline fill="none" stroke="black" points="234,-365 234,-163 "/>
<path fill="none" stroke="black" d="M234,-163C234,-157 240,-151 246,-151"/>
<text text-anchor="middle" x="337" y="-360.4" font-family="Times,serif" font-size="14.00">Admin</text>
<polyline fill="none" stroke="black" points="234,-354 440,-354 "/>
<text text-anchor="start" x="242" y="-337.4" font-family="Times,serif" font-size="14.00">id :integer</text>
<text text-anchor="start" x="242" y="-322.4" font-family="Times,serif" font-size="14.00">email :string</text>
<text text-anchor="start" x="242" y="-307.4" font-family="Times,serif" font-size="14.00">encrypted_password :string</text>
<text text-anchor="start" x="242" y="-292.4" font-family="Times,serif" font-size="14.00">reset_password_token :string</text>
<text text-anchor="start" x="242" y="-277.4" font-family="Times,serif" font-size="14.00">reset_password_sent_at :datetime</text>
<text text-anchor="start" x="242" y="-262.4" font-family="Times,serif" font-size="14.00">remember_created_at :datetime</text>
<text text-anchor="start" x="242" y="-247.4" font-family="Times,serif" font-size="14.00">sign_in_count :integer</text>
<text text-anchor="start" x="242" y="-232.4" font-family="Times,serif" font-size="14.00">current_sign_in_at :datetime</text>
<text text-anchor="start" x="242" y="-217.4" font-family="Times,serif" font-size="14.00">last_sign_in_at :datetime</text>
<text text-anchor="start" x="242" y="-202.4" font-family="Times,serif" font-size="14.00">current_sign_in_ip :string</text>
<text text-anchor="start" x="242" y="-187.4" font-family="Times,serif" font-size="14.00">last_sign_in_ip :string</text>
<text text-anchor="start" x="242" y="-172.4" font-family="Times,serif" font-size="14.00">created_at :datetime</text>
<text text-anchor="start" x="242" y="-157.4" font-family="Times,serif" font-size="14.00">updated_at :datetime</text>
</g>
<!-- Advert -->
<g id="node3" class="node"><title>Advert</title>
<polyline fill="none" stroke="black" points="469.5,-203.5 580.5,-203.5 "/>
<path fill="none" stroke="black" d="M580.5,-203.5C586.5,-203.5 592.5,-209.5 592.5,-215.5"/>
<polyline fill="none" stroke="black" points="592.5,-215.5 592.5,-312.5 "/>
<path fill="none" stroke="black" d="M592.5,-312.5C592.5,-318.5 586.5,-324.5 580.5,-324.5"/>
<polyline fill="none" stroke="black" points="580.5,-324.5 469.5,-324.5 "/>
<path fill="none" stroke="black" d="M469.5,-324.5C463.5,-324.5 457.5,-318.5 457.5,-312.5"/>
<polyline fill="none" stroke="black" points="457.5,-312.5 457.5,-215.5 "/>
<path fill="none" stroke="black" d="M457.5,-215.5C457.5,-209.5 463.5,-203.5 469.5,-203.5"/>
<text text-anchor="middle" x="525" y="-307.9" font-family="Times,serif" font-size="14.00">Advert</text>
<polyline fill="none" stroke="black" points="457.5,-301.5 592.5,-301.5 "/>
<text text-anchor="start" x="465.5" y="-284.9" font-family="Times,serif" font-size="14.00">id :integer</text>
<text text-anchor="start" x="465.5" y="-269.9" font-family="Times,serif" font-size="14.00">name :string</text>
<text text-anchor="start" x="465.5" y="-254.9" font-family="Times,serif" font-size="14.00">image :string</text>
<text text-anchor="start" x="465.5" y="-239.9" font-family="Times,serif" font-size="14.00">sector_ids :string</text>
<text text-anchor="start" x="465.5" y="-224.9" font-family="Times,serif" font-size="14.00">created_at :datetime</text>
<text text-anchor="start" x="465.5" y="-209.9" font-family="Times,serif" font-size="14.00">updated_at :datetime</text>
</g>
<!-- Client -->
<g id="node4" class="node"><title>Client</title>
<polyline fill="none" stroke="black" points="622,-121 804,-121 "/>
<path fill="none" stroke="black" d="M804,-121C810,-121 816,-127 816,-133"/>
<polyline fill="none" stroke="black" points="816,-133 816,-395 "/>
<path fill="none" stroke="black" d="M816,-395C816,-401 810,-407 804,-407"/>
<polyline fill="none" stroke="black" points="804,-407 622,-407 "/>
<path fill="none" stroke="black" d="M622,-407C616,-407 610,-401 610,-395"/>
<polyline fill="none" stroke="black" points="610,-395 610,-133 "/>
<path fill="none" stroke="black" d="M610,-133C610,-127 616,-121 622,-121"/>
<text text-anchor="middle" x="713" y="-390.4" font-family="Times,serif" font-size="14.00">Client</text>
<polyline fill="none" stroke="black" points="610,-384 816,-384 "/>
<text text-anchor="start" x="618" y="-367.4" font-family="Times,serif" font-size="14.00">id :integer</text>
<text text-anchor="start" x="618" y="-352.4" font-family="Times,serif" font-size="14.00">email :string</text>
<text text-anchor="start" x="618" y="-337.4" font-family="Times,serif" font-size="14.00">encrypted_password :string</text>
<text text-anchor="start" x="618" y="-322.4" font-family="Times,serif" font-size="14.00">reset_password_token :string</text>
<text text-anchor="start" x="618" y="-307.4" font-family="Times,serif" font-size="14.00">reset_password_sent_at :datetime</text>
<text text-anchor="start" x="618" y="-292.4" font-family="Times,serif" font-size="14.00">remember_created_at :datetime</text>
<text text-anchor="start" x="618" y="-277.4" font-family="Times,serif" font-size="14.00">sign_in_count :integer</text>
<text text-anchor="start" x="618" y="-262.4" font-family="Times,serif" font-size="14.00">current_sign_in_at :datetime</text>
<text text-anchor="start" x="618" y="-247.4" font-family="Times,serif" font-size="14.00">last_sign_in_at :datetime</text>
<text text-anchor="start" x="618" y="-232.4" font-family="Times,serif" font-size="14.00">current_sign_in_ip :string</text>
<text text-anchor="start" x="618" y="-217.4" font-family="Times,serif" font-size="14.00">last_sign_in_ip :string</text>
<text text-anchor="start" x="618" y="-202.4" font-family="Times,serif" font-size="14.00">created_at :datetime</text>
<text text-anchor="start" x="618" y="-187.4" font-family="Times,serif" font-size="14.00">updated_at :datetime</text>
<text text-anchor="start" x="618" y="-172.4" font-family="Times,serif" font-size="14.00">organisation :string</text>
<text text-anchor="start" x="618" y="-157.4" font-family="Times,serif" font-size="14.00">confirmation_token :string</text>
<text text-anchor="start" x="618" y="-142.4" font-family="Times,serif" font-size="14.00">confirmed_at :datetime</text>
<text text-anchor="start" x="618" y="-127.4" font-family="Times,serif" font-size="14.00">confirmation_sent_at :datetime</text>
</g>
<!-- ClientJob -->
<g id="node5" class="node"><title>ClientJob</title>
<polyline fill="none" stroke="black" points="845.5,-211 956.5,-211 "/>
<path fill="none" stroke="black" d="M956.5,-211C962.5,-211 968.5,-217 968.5,-223"/>
<polyline fill="none" stroke="black" points="968.5,-223 968.5,-305 "/>
<path fill="none" stroke="black" d="M968.5,-305C968.5,-311 962.5,-317 956.5,-317"/>
<polyline fill="none" stroke="black" points="956.5,-317 845.5,-317 "/>
<path fill="none" stroke="black" d="M845.5,-317C839.5,-317 833.5,-311 833.5,-305"/>
<polyline fill="none" stroke="black" points="833.5,-305 833.5,-223 "/>
<path fill="none" stroke="black" d="M833.5,-223C833.5,-217 839.5,-211 845.5,-211"/>
<text text-anchor="middle" x="901" y="-300.4" font-family="Times,serif" font-size="14.00">ClientJob</text>
<polyline fill="none" stroke="black" points="833.5,-294 968.5,-294 "/>
<text text-anchor="start" x="841.5" y="-277.4" font-family="Times,serif" font-size="14.00">id :integer</text>
<text text-anchor="start" x="841.5" y="-262.4" font-family="Times,serif" font-size="14.00">client_id :integer</text>
<text text-anchor="start" x="841.5" y="-247.4" font-family="Times,serif" font-size="14.00">job_id :integer</text>
<text text-anchor="start" x="841.5" y="-232.4" font-family="Times,serif" font-size="14.00">created_at :datetime</text>
<text text-anchor="start" x="841.5" y="-217.4" font-family="Times,serif" font-size="14.00">updated_at :datetime</text>
</g>
<!-- ClientMentor -->
<g id="node6" class="node"><title>ClientMentor</title>
<polyline fill="none" stroke="black" points="997.5,-211 1108.5,-211 "/>
<path fill="none" stroke="black" d="M1108.5,-211C1114.5,-211 1120.5,-217 1120.5,-223"/>
<polyline fill="none" stroke="black" points="1120.5,-223 1120.5,-305 "/>
<path fill="none" stroke="black" d="M1120.5,-305C1120.5,-311 1114.5,-317 1108.5,-317"/>
<polyline fill="none" stroke="black" points="1108.5,-317 997.5,-317 "/>
<path fill="none" stroke="black" d="M997.5,-317C991.5,-317 985.5,-311 985.5,-305"/>
<polyline fill="none" stroke="black" points="985.5,-305 985.5,-223 "/>
<path fill="none" stroke="black" d="M985.5,-223C985.5,-217 991.5,-211 997.5,-211"/>
<text text-anchor="middle" x="1053" y="-300.4" font-family="Times,serif" font-size="14.00">ClientMentor</text>
<polyline fill="none" stroke="black" points="985.5,-294 1120.5,-294 "/>
<text text-anchor="start" x="993.5" y="-277.4" font-family="Times,serif" font-size="14.00">id :integer</text>
<text text-anchor="start" x="993.5" y="-262.4" font-family="Times,serif" font-size="14.00">client_id :integer</text>
<text text-anchor="start" x="993.5" y="-247.4" font-family="Times,serif" font-size="14.00">mentor_id :integer</text>
<text text-anchor="start" x="993.5" y="-232.4" font-family="Times,serif" font-size="14.00">created_at :datetime</text>
<text text-anchor="start" x="993.5" y="-217.4" font-family="Times,serif" font-size="14.00">updated_at :datetime</text>
</g>
<!-- ClientProject -->
<g id="node7" class="node"><title>ClientProject</title>
<polyline fill="none" stroke="black" points="1149.5,-211 1260.5,-211 "/>
<path fill="none" stroke="black" d="M1260.5,-211C1266.5,-211 1272.5,-217 1272.5,-223"/>
<polyline fill="none" stroke="black" points="1272.5,-223 1272.5,-305 "/>
<path fill="none" stroke="black" d="M1272.5,-305C1272.5,-311 1266.5,-317 1260.5,-317"/>
<polyline fill="none" stroke="black" points="1260.5,-317 1149.5,-317 "/>
<path fill="none" stroke="black" d="M1149.5,-317C1143.5,-317 1137.5,-311 1137.5,-305"/>
<polyline fill="none" stroke="black" points="1137.5,-305 1137.5,-223 "/>
<path fill="none" stroke="black" d="M1137.5,-223C1137.5,-217 1143.5,-211 1149.5,-211"/>
<text text-anchor="middle" x="1205" y="-300.4" font-family="Times,serif" font-size="14.00">ClientProject</text>
<polyline fill="none" stroke="black" points="1137.5,-294 1272.5,-294 "/>
<text text-anchor="start" x="1145.5" y="-277.4" font-family="Times,serif" font-size="14.00">id :integer</text>
<text text-anchor="start" x="1145.5" y="-262.4" font-family="Times,serif" font-size="14.00">client_id :integer</text>
<text text-anchor="start" x="1145.5" y="-247.4" font-family="Times,serif" font-size="14.00">project_id :integer</text>
<text text-anchor="start" x="1145.5" y="-232.4" font-family="Times,serif" font-size="14.00">created_at :datetime</text>
<text text-anchor="start" x="1145.5" y="-217.4" font-family="Times,serif" font-size="14.00">updated_at :datetime</text>
</g>
<!-- EmployerProfile -->
<g id="node8" class="node"><title>EmployerProfile</title>
<polyline fill="none" stroke="black" points="1301.5,-211 1412.5,-211 "/>
<path fill="none" stroke="black" d="M1412.5,-211C1418.5,-211 1424.5,-217 1424.5,-223"/>
<polyline fill="none" stroke="black" points="1424.5,-223 1424.5,-305 "/>
<path fill="none" stroke="black" d="M1424.5,-305C1424.5,-311 1418.5,-317 1412.5,-317"/>
<polyline fill="none" stroke="black" points="1412.5,-317 1301.5,-317 "/>
<path fill="none" stroke="black" d="M1301.5,-317C1295.5,-317 1289.5,-311 1289.5,-305"/>
<polyline fill="none" stroke="black" points="1289.5,-305 1289.5,-223 "/>
<path fill="none" stroke="black" d="M1289.5,-223C1289.5,-217 1295.5,-211 1301.5,-211"/>
<text text-anchor="middle" x="1357" y="-300.4" font-family="Times,serif" font-size="14.00">EmployerProfile</text>
<polyline fill="none" stroke="black" points="1289.5,-294 1424.5,-294 "/>
<text text-anchor="start" x="1297.5" y="-277.4" font-family="Times,serif" font-size="14.00">id :integer</text>
<text text-anchor="start" x="1297.5" y="-262.4" font-family="Times,serif" font-size="14.00">name :string</text>
<text text-anchor="start" x="1297.5" y="-247.4" font-family="Times,serif" font-size="14.00">bio :string</text>
<text text-anchor="start" x="1297.5" y="-232.4" font-family="Times,serif" font-size="14.00">created_at :datetime</text>
<text text-anchor="start" x="1297.5" y="-217.4" font-family="Times,serif" font-size="14.00">updated_at :datetime</text>
</g>
<!-- Location -->
<g id="node9" class="node"><title>Location</title>
<polyline fill="none" stroke="black" points="1453.5,-218.5 1564.5,-218.5 "/>
<path fill="none" stroke="black" d="M1564.5,-218.5C1570.5,-218.5 1576.5,-224.5 1576.5,-230.5"/>
<polyline fill="none" stroke="black" points="1576.5,-230.5 1576.5,-297.5 "/>
<path fill="none" stroke="black" d="M1576.5,-297.5C1576.5,-303.5 1570.5,-309.5 1564.5,-309.5"/>
<polyline fill="none" stroke="black" points="1564.5,-309.5 1453.5,-309.5 "/>
<path fill="none" stroke="black" d="M1453.5,-309.5C1447.5,-309.5 1441.5,-303.5 1441.5,-297.5"/>
<polyline fill="none" stroke="black" points="1441.5,-297.5 1441.5,-230.5 "/>
<path fill="none" stroke="black" d="M1441.5,-230.5C1441.5,-224.5 1447.5,-218.5 1453.5,-218.5"/>
<text text-anchor="middle" x="1509" y="-292.9" font-family="Times,serif" font-size="14.00">Location</text>
<polyline fill="none" stroke="black" points="1441.5,-286.5 1576.5,-286.5 "/>
<text text-anchor="start" x="1449.5" y="-269.9" font-family="Times,serif" font-size="14.00">id :integer</text>
<text text-anchor="start" x="1449.5" y="-254.9" font-family="Times,serif" font-size="14.00">name :string</text>
<text text-anchor="start" x="1449.5" y="-239.9" font-family="Times,serif" font-size="14.00">created_at :datetime</text>
<text text-anchor="start" x="1449.5" y="-224.9" font-family="Times,serif" font-size="14.00">updated_at :datetime</text>
</g>
<!-- Member -->
<g id="node10" class="node"><title>Member</title>
<polyline fill="none" stroke="black" points="1605.5,-1 1908.5,-1 "/>
<path fill="none" stroke="black" d="M1908.5,-1C1914.5,-1 1920.5,-7 1920.5,-13"/>
<polyline fill="none" stroke="black" points="1920.5,-13 1920.5,-515 "/>
<path fill="none" stroke="black" d="M1920.5,-515C1920.5,-521 1914.5,-527 1908.5,-527"/>
<polyline fill="none" stroke="black" points="1908.5,-527 1605.5,-527 "/>
<path fill="none" stroke="black" d="M1605.5,-527C1599.5,-527 1593.5,-521 1593.5,-515"/>
<polyline fill="none" stroke="black" points="1593.5,-515 1593.5,-13 "/>
<path fill="none" stroke="black" d="M1593.5,-13C1593.5,-7 1599.5,-1 1605.5,-1"/>
<text text-anchor="middle" x="1757" y="-510.4" font-family="Times,serif" font-size="14.00">Member</text>
<polyline fill="none" stroke="black" points="1593.5,-504 1920.5,-504 "/>
<text text-anchor="start" x="1601.5" y="-487.4" font-family="Times,serif" font-size="14.00">id :integer</text>
<text text-anchor="start" x="1601.5" y="-472.4" font-family="Times,serif" font-size="14.00">email :string</text>
<text text-anchor="start" x="1601.5" y="-457.4" font-family="Times,serif" font-size="14.00">encrypted_password :string</text>
<text text-anchor="start" x="1601.5" y="-442.4" font-family="Times,serif" font-size="14.00">reset_password_token :string</text>
<text text-anchor="start" x="1601.5" y="-427.4" font-family="Times,serif" font-size="14.00">reset_password_sent_at :datetime</text>
<text text-anchor="start" x="1601.5" y="-412.4" font-family="Times,serif" font-size="14.00">remember_created_at :datetime</text>
<text text-anchor="start" x="1601.5" y="-397.4" font-family="Times,serif" font-size="14.00">sign_in_count :integer</text>
<text text-anchor="start" x="1601.5" y="-382.4" font-family="Times,serif" font-size="14.00">current_sign_in_at :datetime</text>
<text text-anchor="start" x="1601.5" y="-367.4" font-family="Times,serif" font-size="14.00">last_sign_in_at :datetime</text>
<text text-anchor="start" x="1601.5" y="-352.4" font-family="Times,serif" font-size="14.00">current_sign_in_ip :string</text>
<text text-anchor="start" x="1601.5" y="-337.4" font-family="Times,serif" font-size="14.00">last_sign_in_ip :string</text>
<text text-anchor="start" x="1601.5" y="-322.4" font-family="Times,serif" font-size="14.00">created_at :datetime</text>
<text text-anchor="start" x="1601.5" y="-307.4" font-family="Times,serif" font-size="14.00">updated_at :datetime</text>
<text text-anchor="start" x="1601.5" y="-292.4" font-family="Times,serif" font-size="14.00">fname :string</text>
<text text-anchor="start" x="1601.5" y="-277.4" font-family="Times,serif" font-size="14.00">lname :string</text>
<text text-anchor="start" x="1601.5" y="-262.4" font-family="Times,serif" font-size="14.00">dob :date</text>
<text text-anchor="start" x="1601.5" y="-247.4" font-family="Times,serif" font-size="14.00">gender :string</text>
<text text-anchor="start" x="1601.5" y="-232.4" font-family="Times,serif" font-size="14.00">telephone :string</text>
<text text-anchor="start" x="1601.5" y="-217.4" font-family="Times,serif" font-size="14.00">sector_ids :string</text>
<text text-anchor="start" x="1601.5" y="-202.4" font-family="Times,serif" font-size="14.00">location :string</text>
<text text-anchor="start" x="1601.5" y="-187.4" font-family="Times,serif" font-size="14.00">employment_status :string</text>
<text text-anchor="start" x="1601.5" y="-172.4" font-family="Times,serif" font-size="14.00">academic_institution :string</text>
<text text-anchor="start" x="1601.5" y="-157.4" font-family="Times,serif" font-size="14.00">course :string</text>
<text text-anchor="start" x="1601.5" y="-142.4" font-family="Times,serif" font-size="14.00">cv :string</text>
<text text-anchor="start" x="1601.5" y="-127.4" font-family="Times,serif" font-size="14.00">settings_receive_email_updates :boolean</text>
<text text-anchor="start" x="1601.5" y="-112.4" font-family="Times,serif" font-size="14.00">settings_pass_info_to_employment_agencies :boolean</text>
<text text-anchor="start" x="1601.5" y="-97.4" font-family="Times,serif" font-size="14.00">settings_mentoring_highschool :boolean</text>
<text text-anchor="start" x="1601.5" y="-82.4" font-family="Times,serif" font-size="14.00">settings_pass_info_to_marketing :boolean</text>
<text text-anchor="start" x="1601.5" y="-67.4" font-family="Times,serif" font-size="14.00">unconfirmed_email :string</text>
<text text-anchor="start" x="1601.5" y="-52.4" font-family="Times,serif" font-size="14.00">confirmation_token :string</text>
<text text-anchor="start" x="1601.5" y="-37.4" font-family="Times,serif" font-size="14.00">confirmed_at :datetime</text>
<text text-anchor="start" x="1601.5" y="-22.4" font-family="Times,serif" font-size="14.00">confirmation_sent_at :datetime</text>
<text text-anchor="start" x="1601.5" y="-7.4" font-family="Times,serif" font-size="14.00">hear_about_us :string</text>
</g>
<!-- MemberJobApplication -->
<g id="node11" class="node"><title>MemberJobApplication</title>
<polyline fill="none" stroke="black" points="1950,-203.5 2080,-203.5 "/>
<path fill="none" stroke="black" d="M2080,-203.5C2086,-203.5 2092,-209.5 2092,-215.5"/>
<polyline fill="none" stroke="black" points="2092,-215.5 2092,-312.5 "/>
<path fill="none" stroke="black" d="M2092,-312.5C2092,-318.5 2086,-324.5 2080,-324.5"/>
<polyline fill="none" stroke="black" points="2080,-324.5 1950,-324.5 "/>
<path fill="none" stroke="black" d="M1950,-324.5C1944,-324.5 1938,-318.5 1938,-312.5"/>
<polyline fill="none" stroke="black" points="1938,-312.5 1938,-215.5 "/>
<path fill="none" stroke="black" d="M1938,-215.5C1938,-209.5 1944,-203.5 1950,-203.5"/>
<text text-anchor="middle" x="2015" y="-307.9" font-family="Times,serif" font-size="14.00">MemberJobApplication</text>
<polyline fill="none" stroke="black" points="1938,-301.5 2092,-301.5 "/>
<text text-anchor="start" x="1946" y="-284.9" font-family="Times,serif" font-size="14.00">id :integer</text>
<text text-anchor="start" x="1946" y="-269.9" font-family="Times,serif" font-size="14.00">member_id :integer</text>
<text text-anchor="start" x="1946" y="-254.9" font-family="Times,serif" font-size="14.00">job_id :integer</text>
<text text-anchor="start" x="1946" y="-239.9" font-family="Times,serif" font-size="14.00">status :string</text>
<text text-anchor="start" x="1946" y="-224.9" font-family="Times,serif" font-size="14.00">created_at :datetime</text>
<text text-anchor="start" x="1946" y="-209.9" font-family="Times,serif" font-size="14.00">updated_at :datetime</text>
</g>
<!-- MemberMentorApplication -->
<g id="node12" class="node"><title>MemberMentorApplication</title>
<polyline fill="none" stroke="black" points="2122,-203.5 2274,-203.5 "/>
<path fill="none" stroke="black" d="M2274,-203.5C2280,-203.5 2286,-209.5 2286,-215.5"/>
<polyline fill="none" stroke="black" points="2286,-215.5 2286,-312.5 "/>
<path fill="none" stroke="black" d="M2286,-312.5C2286,-318.5 2280,-324.5 2274,-324.5"/>
<polyline fill="none" stroke="black" points="2274,-324.5 2122,-324.5 "/>
<path fill="none" stroke="black" d="M2122,-324.5C2116,-324.5 2110,-318.5 2110,-312.5"/>
<polyline fill="none" stroke="black" points="2110,-312.5 2110,-215.5 "/>
<path fill="none" stroke="black" d="M2110,-215.5C2110,-209.5 2116,-203.5 2122,-203.5"/>
<text text-anchor="middle" x="2198" y="-307.9" font-family="Times,serif" font-size="14.00">MemberMentorApplication</text>
<polyline fill="none" stroke="black" points="2110,-301.5 2286,-301.5 "/>
<text text-anchor="start" x="2118" y="-284.9" font-family="Times,serif" font-size="14.00">id :integer</text>
<text text-anchor="start" x="2118" y="-269.9" font-family="Times,serif" font-size="14.00">member_id :integer</text>
<text text-anchor="start" x="2118" y="-254.9" font-family="Times,serif" font-size="14.00">mentor_id :integer</text>
<text text-anchor="start" x="2118" y="-239.9" font-family="Times,serif" font-size="14.00">status :string</text>
<text text-anchor="start" x="2118" y="-224.9" font-family="Times,serif" font-size="14.00">created_at :datetime</text>
<text text-anchor="start" x="2118" y="-209.9" font-family="Times,serif" font-size="14.00">updated_at :datetime</text>
</g>
<!-- MemberProjectApplication -->
<g id="node13" class="node"><title>MemberProjectApplication</title>
<polyline fill="none" stroke="black" points="2315.5,-203.5 2466.5,-203.5 "/>
<path fill="none" stroke="black" d="M2466.5,-203.5C2472.5,-203.5 2478.5,-209.5 2478.5,-215.5"/>
<polyline fill="none" stroke="black" points="2478.5,-215.5 2478.5,-312.5 "/>
<path fill="none" stroke="black" d="M2478.5,-312.5C2478.5,-318.5 2472.5,-324.5 2466.5,-324.5"/>
<polyline fill="none" stroke="black" points="2466.5,-324.5 2315.5,-324.5 "/>
<path fill="none" stroke="black" d="M2315.5,-324.5C2309.5,-324.5 2303.5,-318.5 2303.5,-312.5"/>
<polyline fill="none" stroke="black" points="2303.5,-312.5 2303.5,-215.5 "/>
<path fill="none" stroke="black" d="M2303.5,-215.5C2303.5,-209.5 2309.5,-203.5 2315.5,-203.5"/>
<text text-anchor="middle" x="2391" y="-307.9" font-family="Times,serif" font-size="14.00">MemberProjectApplication</text>
<polyline fill="none" stroke="black" points="2303.5,-301.5 2478.5,-301.5 "/>
<text text-anchor="start" x="2311.5" y="-284.9" font-family="Times,serif" font-size="14.00">id :integer</text>
<text text-anchor="start" x="2311.5" y="-269.9" font-family="Times,serif" font-size="14.00">member_id :integer</text>
<text text-anchor="start" x="2311.5" y="-254.9" font-family="Times,serif" font-size="14.00">project_id :string</text>
<text text-anchor="start" x="2311.5" y="-239.9" font-family="Times,serif" font-size="14.00">status :string</text>
<text text-anchor="start" x="2311.5" y="-224.9" font-family="Times,serif" font-size="14.00">created_at :datetime</text>
<text text-anchor="start" x="2311.5" y="-209.9" font-family="Times,serif" font-size="14.00">updated_at :datetime</text>
</g>
<!-- Mentor -->
<g id="node14" class="node"><title>Mentor</title>
<polyline fill="none" stroke="black" points="2507.5,-121 2618.5,-121 "/>
<path fill="none" stroke="black" d="M2618.5,-121C2624.5,-121 2630.5,-127 2630.5,-133"/>
<polyline fill="none" stroke="black" points="2630.5,-133 2630.5,-395 "/>
<path fill="none" stroke="black" d="M2630.5,-395C2630.5,-401 2624.5,-407 2618.5,-407"/>
<polyline fill="none" stroke="black" points="2618.5,-407 2507.5,-407 "/>
<path fill="none" stroke="black" d="M2507.5,-407C2501.5,-407 2495.5,-401 2495.5,-395"/>
<polyline fill="none" stroke="black" points="2495.5,-395 2495.5,-133 "/>
<path fill="none" stroke="black" d="M2495.5,-133C2495.5,-127 2501.5,-121 2507.5,-121"/>
<text text-anchor="middle" x="2563" y="-390.4" font-family="Times,serif" font-size="14.00">Mentor</text>
<polyline fill="none" stroke="black" points="2495.5,-384 2630.5,-384 "/>
<text text-anchor="start" x="2503.5" y="-367.4" font-family="Times,serif" font-size="14.00">id :integer</text>
<text text-anchor="start" x="2503.5" y="-352.4" font-family="Times,serif" font-size="14.00">fname :string</text>
<text text-anchor="start" x="2503.5" y="-337.4" font-family="Times,serif" font-size="14.00">lname :string</text>
<text text-anchor="start" x="2503.5" y="-322.4" font-family="Times,serif" font-size="14.00">role_title :string</text>
<text text-anchor="start" x="2503.5" y="-307.4" font-family="Times,serif" font-size="14.00">sector_ids :string</text>
<text text-anchor="start" x="2503.5" y="-292.4" font-family="Times,serif" font-size="14.00">organisation :string</text>
<text text-anchor="start" x="2503.5" y="-277.4" font-family="Times,serif" font-size="14.00">closing_date :date</text>
<text text-anchor="start" x="2503.5" y="-262.4" font-family="Times,serif" font-size="14.00">location :string</text>
<text text-anchor="start" x="2503.5" y="-247.4" font-family="Times,serif" font-size="14.00">description :string</text>
<text text-anchor="start" x="2503.5" y="-232.4" font-family="Times,serif" font-size="14.00">email :string</text>
<text text-anchor="start" x="2503.5" y="-217.4" font-family="Times,serif" font-size="14.00">telephone :string</text>
<text text-anchor="start" x="2503.5" y="-202.4" font-family="Times,serif" font-size="14.00">image :string</text>
<text text-anchor="start" x="2503.5" y="-187.4" font-family="Times,serif" font-size="14.00">draft :boolean</text>
<text text-anchor="start" x="2503.5" y="-172.4" font-family="Times,serif" font-size="14.00">created_at :datetime</text>
<text text-anchor="start" x="2503.5" y="-157.4" font-family="Times,serif" font-size="14.00">updated_at :datetime</text>
<text text-anchor="start" x="2503.5" y="-142.4" font-family="Times,serif" font-size="14.00">internal :boolean</text>
<text text-anchor="start" x="2503.5" y="-127.4" font-family="Times,serif" font-size="14.00">external :boolean</text>
</g>
<!-- OrganisationEmailDomain -->
<g id="node15" class="node"><title>OrganisationEmailDomain</title>
<polyline fill="none" stroke="black" points="2659.5,-211 2806.5,-211 "/>
<path fill="none" stroke="black" d="M2806.5,-211C2812.5,-211 2818.5,-217 2818.5,-223"/>
<polyline fill="none" stroke="black" points="2818.5,-223 2818.5,-305 "/>
<path fill="none" stroke="black" d="M2818.5,-305C2818.5,-311 2812.5,-317 2806.5,-317"/>
<polyline fill="none" stroke="black" points="2806.5,-317 2659.5,-317 "/>
<path fill="none" stroke="black" d="M2659.5,-317C2653.5,-317 2647.5,-311 2647.5,-305"/>
<polyline fill="none" stroke="black" points="2647.5,-305 2647.5,-223 "/>
<path fill="none" stroke="black" d="M2647.5,-223C2647.5,-217 2653.5,-211 2659.5,-211"/>
<text text-anchor="middle" x="2733" y="-300.4" font-family="Times,serif" font-size="14.00">OrganisationEmailDomain</text>
<polyline fill="none" stroke="black" points="2647.5,-294 2818.5,-294 "/>
<text text-anchor="start" x="2655.5" y="-277.4" font-family="Times,serif" font-size="14.00">id :integer</text>
<text text-anchor="start" x="2655.5" y="-262.4" font-family="Times,serif" font-size="14.00">organisation :string</text>
<text text-anchor="start" x="2655.5" y="-247.4" font-family="Times,serif" font-size="14.00">domain :string</text>
<text text-anchor="start" x="2655.5" y="-232.4" font-family="Times,serif" font-size="14.00">created_at :datetime</text>
<text text-anchor="start" x="2655.5" y="-217.4" font-family="Times,serif" font-size="14.00">updated_at :datetime</text>
</g>
<!-- Project -->
<g id="node16" class="node"><title>Project</title>
<polyline fill="none" stroke="black" points="2848,-121 2962,-121 "/>
<path fill="none" stroke="black" d="M2962,-121C2968,-121 2974,-127 2974,-133"/>
<polyline fill="none" stroke="black" points="2974,-133 2974,-395 "/>
<path fill="none" stroke="black" d="M2974,-395C2974,-401 2968,-407 2962,-407"/>
<polyline fill="none" stroke="black" points="2962,-407 2848,-407 "/>
<path fill="none" stroke="black" d="M2848,-407C2842,-407 2836,-401 2836,-395"/>
<polyline fill="none" stroke="black" points="2836,-395 2836,-133 "/>
<path fill="none" stroke="black" d="M2836,-133C2836,-127 2842,-121 2848,-121"/>
<text text-anchor="middle" x="2905" y="-390.4" font-family="Times,serif" font-size="14.00">Project</text>
<polyline fill="none" stroke="black" points="2836,-384 2974,-384 "/>
<text text-anchor="start" x="2844" y="-367.4" font-family="Times,serif" font-size="14.00">id :integer</text>
<text text-anchor="start" x="2844" y="-352.4" font-family="Times,serif" font-size="14.00">name :string</text>
<text text-anchor="start" x="2844" y="-337.4" font-family="Times,serif" font-size="14.00">project_leader :string</text>
<text text-anchor="start" x="2844" y="-322.4" font-family="Times,serif" font-size="14.00">sector_ids :string</text>
<text text-anchor="start" x="2844" y="-307.4" font-family="Times,serif" font-size="14.00">organisation :string</text>
<text text-anchor="start" x="2844" y="-292.4" font-family="Times,serif" font-size="14.00">closing_date :date</text>
<text text-anchor="start" x="2844" y="-277.4" font-family="Times,serif" font-size="14.00">location :string</text>
<text text-anchor="start" x="2844" y="-262.4" font-family="Times,serif" font-size="14.00">description :string</text>
<text text-anchor="start" x="2844" y="-247.4" font-family="Times,serif" font-size="14.00">email :string</text>
<text text-anchor="start" x="2844" y="-232.4" font-family="Times,serif" font-size="14.00">telephone :string</text>
<text text-anchor="start" x="2844" y="-217.4" font-family="Times,serif" font-size="14.00">draft :boolean</text>
<text text-anchor="start" x="2844" y="-202.4" font-family="Times,serif" font-size="14.00">created_at :datetime</text>
<text text-anchor="start" x="2844" y="-187.4" font-family="Times,serif" font-size="14.00">updated_at :datetime</text>
<text text-anchor="start" x="2844" y="-172.4" font-family="Times,serif" font-size="14.00">image :string</text>
<text text-anchor="start" x="2844" y="-157.4" font-family="Times,serif" font-size="14.00">salary :string</text>
<text text-anchor="start" x="2844" y="-142.4" font-family="Times,serif" font-size="14.00">internal :boolean</text>
<text text-anchor="start" x="2844" y="-127.4" font-family="Times,serif" font-size="14.00">external :boolean</text>
</g>
<!-- Sector -->
<g id="node17" class="node"><title>Sector</title>
<polyline fill="none" stroke="black" points="3003.5,-218.5 3114.5,-218.5 "/>
<path fill="none" stroke="black" d="M3114.5,-218.5C3120.5,-218.5 3126.5,-224.5 3126.5,-230.5"/>
<polyline fill="none" stroke="black" points="3126.5,-230.5 3126.5,-297.5 "/>
<path fill="none" stroke="black" d="M3126.5,-297.5C3126.5,-303.5 3120.5,-309.5 3114.5,-309.5"/>
<polyline fill="none" stroke="black" points="3114.5,-309.5 3003.5,-309.5 "/>
<path fill="none" stroke="black" d="M3003.5,-309.5C2997.5,-309.5 2991.5,-303.5 2991.5,-297.5"/>
<polyline fill="none" stroke="black" points="2991.5,-297.5 2991.5,-230.5 "/>
<path fill="none" stroke="black" d="M2991.5,-230.5C2991.5,-224.5 2997.5,-218.5 3003.5,-218.5"/>
<text text-anchor="middle" x="3059" y="-292.9" font-family="Times,serif" font-size="14.00">Sector</text>
<polyline fill="none" stroke="black" points="2991.5,-286.5 3126.5,-286.5 "/>
<text text-anchor="start" x="2999.5" y="-269.9" font-family="Times,serif" font-size="14.00">id :integer</text>
<text text-anchor="start" x="2999.5" y="-254.9" font-family="Times,serif" font-size="14.00">name :string</text>
<text text-anchor="start" x="2999.5" y="-239.9" font-family="Times,serif" font-size="14.00">created_at :datetime</text>
<text text-anchor="start" x="2999.5" y="-224.9" font-family="Times,serif" font-size="14.00">updated_at :datetime</text>
</g>
<!-- Team -->
<g id="node18" class="node"><title>Team</title>
<polyline fill="none" stroke="black" points="3155.5,-188.5 3266.5,-188.5 "/>
<path fill="none" stroke="black" d="M3266.5,-188.5C3272.5,-188.5 3278.5,-194.5 3278.5,-200.5"/>
<polyline fill="none" stroke="black" points="3278.5,-200.5 3278.5,-327.5 "/>
<path fill="none" stroke="black" d="M3278.5,-327.5C3278.5,-333.5 3272.5,-339.5 3266.5,-339.5"/>
<polyline fill="none" stroke="black" points="3266.5,-339.5 3155.5,-339.5 "/>
<path fill="none" stroke="black" d="M3155.5,-339.5C3149.5,-339.5 3143.5,-333.5 3143.5,-327.5"/>
<polyline fill="none" stroke="black" points="3143.5,-327.5 3143.5,-200.5 "/>
<path fill="none" stroke="black" d="M3143.5,-200.5C3143.5,-194.5 3149.5,-188.5 3155.5,-188.5"/>
<text text-anchor="middle" x="3211" y="-322.9" font-family="Times,serif" font-size="14.00">Team</text>
<polyline fill="none" stroke="black" points="3143.5,-316.5 3278.5,-316.5 "/>
<text text-anchor="start" x="3151.5" y="-299.9" font-family="Times,serif" font-size="14.00">id :integer</text>
<text text-anchor="start" x="3151.5" y="-284.9" font-family="Times,serif" font-size="14.00">fname :string</text>
<text text-anchor="start" x="3151.5" y="-269.9" font-family="Times,serif" font-size="14.00">lname :string</text>
<text text-anchor="start" x="3151.5" y="-254.9" font-family="Times,serif" font-size="14.00">bio :string</text>
<text text-anchor="start" x="3151.5" y="-239.9" font-family="Times,serif" font-size="14.00">position :string</text>
<text text-anchor="start" x="3151.5" y="-224.9" font-family="Times,serif" font-size="14.00">image :string</text>
<text text-anchor="start" x="3151.5" y="-209.9" font-family="Times,serif" font-size="14.00">created_at :datetime</text>
<text text-anchor="start" x="3151.5" y="-194.9" font-family="Times,serif" font-size="14.00">updated_at :datetime</text>
</g>
</g>
</svg>
