<?xml version="1.0" encoding="UTF-8" standalone="no"?>
<!DOCTYPE svg PUBLIC "-//W3C//DTD SVG 1.1//EN"
 "http://www.w3.org/Graphics/SVG/1.1/DTD/svg11.dtd">
<!-- Generated by graphviz version 2.26.3 (20100126.1600)
 -->
<!-- Title: models_diagram Pages: 1 -->
<svg width="3854pt" height="620pt"
 viewBox="0.00 0.00 3854.00 620.00" xmlns="http://www.w3.org/2000/svg" xmlns:xlink="http://www.w3.org/1999/xlink">
<g id="graph1" class="graph" transform="scale(1 1) rotate(0) translate(4 616)">
<title>models_diagram</title>
<polygon fill="white" stroke="white" points="-4,5 -4,-616 3851,-616 3851,5 -4,5"/>
<!-- _diagram_info -->
<g id="node1" class="node"><title>_diagram_info</title>
<text text-anchor="start" x="8" y="-336.8" font-family="Times Roman,serif" font-size="13.00">Models diagram</text>
<text text-anchor="start" x="8" y="-319.8" font-family="Times Roman,serif" font-size="13.00">Date: Jul 29 2013 &#45; 19:36</text>
<text text-anchor="start" x="8" y="-302.8" font-family="Times Roman,serif" font-size="13.00">Migration version: 20130729182646</text>
<text text-anchor="start" x="8" y="-285.8" font-family="Times Roman,serif" font-size="13.00">Generated by RailRoady 1.1.0</text>
<text text-anchor="start" x="8" y="-268.8" font-family="Times Roman,serif" font-size="13.00">http://railroady.prestonlee.com</text>
</g>
<!-- Advert -->
<g id="node2" class="node"><title>Advert</title>
<polyline fill="none" stroke="black" points="279.5,-235 420.5,-235 "/>
<path fill="none" stroke="black" d="M420.5,-235C426.5,-235 432.5,-241 432.5,-247"/>
<polyline fill="none" stroke="black" points="432.5,-247 432.5,-365 "/>
<path fill="none" stroke="black" d="M432.5,-365C432.5,-371 426.5,-377 420.5,-377"/>
<polyline fill="none" stroke="black" points="420.5,-377 279.5,-377 "/>
<path fill="none" stroke="black" d="M279.5,-377C273.5,-377 267.5,-371 267.5,-365"/>
<polyline fill="none" stroke="black" points="267.5,-365 267.5,-247 "/>
<path fill="none" stroke="black" d="M267.5,-247C267.5,-241 273.5,-235 279.5,-235"/>
<text text-anchor="middle" x="350" y="-360.4" font-family="Times Roman,serif" font-size="14.00">Advert</text>
<polyline fill="none" stroke="black" points="267.5,-351 432.5,-351 "/>
<text text-anchor="start" x="275.5" y="-334.4" font-family="Times Roman,serif" font-size="14.00">id :integer</text>
<text text-anchor="start" x="275.5" y="-316.4" font-family="Times Roman,serif" font-size="14.00">name :string</text>
<text text-anchor="start" x="275.5" y="-298.4" font-family="Times Roman,serif" font-size="14.00">image :string</text>
<text text-anchor="start" x="275.5" y="-280.4" font-family="Times Roman,serif" font-size="14.00">sector_ids :string</text>
<text text-anchor="start" x="275.5" y="-262.4" font-family="Times Roman,serif" font-size="14.00">created_at :datetime</text>
<text text-anchor="start" x="275.5" y="-244.4" font-family="Times Roman,serif" font-size="14.00">updated_at :datetime</text>
</g>
<!-- MemberMentorApplication -->
<g id="node3" class="node"><title>MemberMentorApplication</title>
<polyline fill="none" stroke="black" points="461.5,-235 634.5,-235 "/>
<path fill="none" stroke="black" d="M634.5,-235C640.5,-235 646.5,-241 646.5,-247"/>
<polyline fill="none" stroke="black" points="646.5,-247 646.5,-365 "/>
<path fill="none" stroke="black" d="M646.5,-365C646.5,-371 640.5,-377 634.5,-377"/>
<polyline fill="none" stroke="black" points="634.5,-377 461.5,-377 "/>
<path fill="none" stroke="black" d="M461.5,-377C455.5,-377 449.5,-371 449.5,-365"/>
<polyline fill="none" stroke="black" points="449.5,-365 449.5,-247 "/>
<path fill="none" stroke="black" d="M449.5,-247C449.5,-241 455.5,-235 461.5,-235"/>
<text text-anchor="middle" x="548" y="-360.4" font-family="Times Roman,serif" font-size="14.00">MemberMentorApplication</text>
<polyline fill="none" stroke="black" points="449.5,-351 646.5,-351 "/>
<text text-anchor="start" x="457.5" y="-334.4" font-family="Times Roman,serif" font-size="14.00">id :integer</text>
<text text-anchor="start" x="457.5" y="-316.4" font-family="Times Roman,serif" font-size="14.00">member_id :integer</text>
<text text-anchor="start" x="457.5" y="-298.4" font-family="Times Roman,serif" font-size="14.00">mentor_id :integer</text>
<text text-anchor="start" x="457.5" y="-280.4" font-family="Times Roman,serif" font-size="14.00">status :string</text>
<text text-anchor="start" x="457.5" y="-262.4" font-family="Times Roman,serif" font-size="14.00">created_at :datetime</text>
<text text-anchor="start" x="457.5" y="-244.4" font-family="Times Roman,serif" font-size="14.00">updated_at :datetime</text>
</g>
<!-- Member -->
<g id="node4" class="node"><title>Member</title>
<polyline fill="none" stroke="black" points="676,-1 1038,-1 "/>
<path fill="none" stroke="black" d="M1038,-1C1044,-1 1050,-7 1050,-13"/>
<polyline fill="none" stroke="black" points="1050,-13 1050,-599 "/>
<path fill="none" stroke="black" d="M1050,-599C1050,-605 1044,-611 1038,-611"/>
<polyline fill="none" stroke="black" points="1038,-611 676,-611 "/>
<path fill="none" stroke="black" d="M676,-611C670,-611 664,-605 664,-599"/>
<polyline fill="none" stroke="black" points="664,-599 664,-13 "/>
<path fill="none" stroke="black" d="M664,-13C664,-7 670,-1 676,-1"/>
<text text-anchor="middle" x="857" y="-594.4" font-family="Times Roman,serif" font-size="14.00">Member</text>
<polyline fill="none" stroke="black" points="664,-585 1050,-585 "/>
<text text-anchor="start" x="672" y="-568.4" font-family="Times Roman,serif" font-size="14.00">id :integer</text>
<text text-anchor="start" x="672" y="-550.4" font-family="Times Roman,serif" font-size="14.00">email :string</text>
<text text-anchor="start" x="672" y="-532.4" font-family="Times Roman,serif" font-size="14.00">encrypted_password :string</text>
<text text-anchor="start" x="672" y="-514.4" font-family="Times Roman,serif" font-size="14.00">reset_password_token :string</text>
<text text-anchor="start" x="672" y="-496.4" font-family="Times Roman,serif" font-size="14.00">reset_password_sent_at :datetime</text>
<text text-anchor="start" x="672" y="-478.4" font-family="Times Roman,serif" font-size="14.00">remember_created_at :datetime</text>
<text text-anchor="start" x="672" y="-460.4" font-family="Times Roman,serif" font-size="14.00">sign_in_count :integer</text>
<text text-anchor="start" x="672" y="-442.4" font-family="Times Roman,serif" font-size="14.00">current_sign_in_at :datetime</text>
<text text-anchor="start" x="672" y="-424.4" font-family="Times Roman,serif" font-size="14.00">last_sign_in_at :datetime</text>
<text text-anchor="start" x="672" y="-406.4" font-family="Times Roman,serif" font-size="14.00">current_sign_in_ip :string</text>
<text text-anchor="start" x="672" y="-388.4" font-family="Times Roman,serif" font-size="14.00">last_sign_in_ip :string</text>
<text text-anchor="start" x="672" y="-370.4" font-family="Times Roman,serif" font-size="14.00">created_at :datetime</text>
<text text-anchor="start" x="672" y="-352.4" font-family="Times Roman,serif" font-size="14.00">updated_at :datetime</text>
<text text-anchor="start" x="672" y="-334.4" font-family="Times Roman,serif" font-size="14.00">fname :string</text>
<text text-anchor="start" x="672" y="-316.4" font-family="Times Roman,serif" font-size="14.00">lname :string</text>
<text text-anchor="start" x="672" y="-298.4" font-family="Times Roman,serif" font-size="14.00">dob :date</text>
<text text-anchor="start" x="672" y="-280.4" font-family="Times Roman,serif" font-size="14.00">gender :string</text>
<text text-anchor="start" x="672" y="-262.4" font-family="Times Roman,serif" font-size="14.00">telephone :string</text>
<text text-anchor="start" x="672" y="-244.4" font-family="Times Roman,serif" font-size="14.00">sector_ids :string</text>
<text text-anchor="start" x="672" y="-226.4" font-family="Times Roman,serif" font-size="14.00">location :string</text>
<text text-anchor="start" x="672" y="-208.4" font-family="Times Roman,serif" font-size="14.00">employment_status :string</text>
<text text-anchor="start" x="672" y="-190.4" font-family="Times Roman,serif" font-size="14.00">academic_institution :string</text>
<text text-anchor="start" x="672" y="-172.4" font-family="Times Roman,serif" font-size="14.00">course :string</text>
<text text-anchor="start" x="672" y="-154.4" font-family="Times Roman,serif" font-size="14.00">cv :string</text>
<text text-anchor="start" x="672" y="-136.4" font-family="Times Roman,serif" font-size="14.00">settings_receive_email_updates :boolean</text>
<text text-anchor="start" x="672" y="-118.4" font-family="Times Roman,serif" font-size="14.00">settings_pass_info_to_employment_agencies :boolean</text>
<text text-anchor="start" x="672" y="-100.4" font-family="Times Roman,serif" font-size="14.00">settings_mentoring_highschool :boolean</text>
<text text-anchor="start" x="672" y="-82.4" font-family="Times Roman,serif" font-size="14.00">settings_pass_info_to_marketing :boolean</text>
<text text-anchor="start" x="672" y="-64.4" font-family="Times Roman,serif" font-size="14.00">unconfirmed_email :string</text>
<text text-anchor="start" x="672" y="-46.4" font-family="Times Roman,serif" font-size="14.00">confirmation_token :string</text>
<text text-anchor="start" x="672" y="-28.4" font-family="Times Roman,serif" font-size="14.00">confirmed_at :datetime</text>
<text text-anchor="start" x="672" y="-10.4" font-family="Times Roman,serif" font-size="14.00">confirmation_sent_at :datetime</text>
</g>
<!-- Team -->
<g id="node5" class="node"><title>Team</title>
<polyline fill="none" stroke="black" points="1079.5,-217 1220.5,-217 "/>
<path fill="none" stroke="black" d="M1220.5,-217C1226.5,-217 1232.5,-223 1232.5,-229"/>
<polyline fill="none" stroke="black" points="1232.5,-229 1232.5,-383 "/>
<path fill="none" stroke="black" d="M1232.5,-383C1232.5,-389 1226.5,-395 1220.5,-395"/>
<polyline fill="none" stroke="black" points="1220.5,-395 1079.5,-395 "/>
<path fill="none" stroke="black" d="M1079.5,-395C1073.5,-395 1067.5,-389 1067.5,-383"/>
<polyline fill="none" stroke="black" points="1067.5,-383 1067.5,-229 "/>
<path fill="none" stroke="black" d="M1067.5,-229C1067.5,-223 1073.5,-217 1079.5,-217"/>
<text text-anchor="middle" x="1150" y="-378.4" font-family="Times Roman,serif" font-size="14.00">Team</text>
<polyline fill="none" stroke="black" points="1067.5,-369 1232.5,-369 "/>
<text text-anchor="start" x="1075.5" y="-352.4" font-family="Times Roman,serif" font-size="14.00">id :integer</text>
<text text-anchor="start" x="1075.5" y="-334.4" font-family="Times Roman,serif" font-size="14.00">fname :string</text>
<text text-anchor="start" x="1075.5" y="-316.4" font-family="Times Roman,serif" font-size="14.00">lname :string</text>
<text text-anchor="start" x="1075.5" y="-298.4" font-family="Times Roman,serif" font-size="14.00">bio :string</text>
<text text-anchor="start" x="1075.5" y="-280.4" font-family="Times Roman,serif" font-size="14.00">position :string</text>
<text text-anchor="start" x="1075.5" y="-262.4" font-family="Times Roman,serif" font-size="14.00">image :string</text>
<text text-anchor="start" x="1075.5" y="-244.4" font-family="Times Roman,serif" font-size="14.00">created_at :datetime</text>
<text text-anchor="start" x="1075.5" y="-226.4" font-family="Times Roman,serif" font-size="14.00">updated_at :datetime</text>
</g>
<!-- ClientJob -->
<g id="node6" class="node"><title>ClientJob</title>
<polyline fill="none" stroke="black" points="1261.5,-244 1402.5,-244 "/>
<path fill="none" stroke="black" d="M1402.5,-244C1408.5,-244 1414.5,-250 1414.5,-256"/>
<polyline fill="none" stroke="black" points="1414.5,-256 1414.5,-356 "/>
<path fill="none" stroke="black" d="M1414.5,-356C1414.5,-362 1408.5,-368 1402.5,-368"/>
<polyline fill="none" stroke="black" points="1402.5,-368 1261.5,-368 "/>
<path fill="none" stroke="black" d="M1261.5,-368C1255.5,-368 1249.5,-362 1249.5,-356"/>
<polyline fill="none" stroke="black" points="1249.5,-356 1249.5,-256 "/>
<path fill="none" stroke="black" d="M1249.5,-256C1249.5,-250 1255.5,-244 1261.5,-244"/>
<text text-anchor="middle" x="1332" y="-351.4" font-family="Times Roman,serif" font-size="14.00">ClientJob</text>
<polyline fill="none" stroke="black" points="1249.5,-342 1414.5,-342 "/>
<text text-anchor="start" x="1257.5" y="-325.4" font-family="Times Roman,serif" font-size="14.00">id :integer</text>
<text text-anchor="start" x="1257.5" y="-307.4" font-family="Times Roman,serif" font-size="14.00">client_id :integer</text>
<text text-anchor="start" x="1257.5" y="-289.4" font-family="Times Roman,serif" font-size="14.00">job_id :integer</text>
<text text-anchor="start" x="1257.5" y="-271.4" font-family="Times Roman,serif" font-size="14.00">created_at :datetime</text>
<text text-anchor="start" x="1257.5" y="-253.4" font-family="Times Roman,serif" font-size="14.00">updated_at :datetime</text>
</g>
<!-- Project -->
<g id="node7" class="node"><title>Project</title>
<polyline fill="none" stroke="black" points="1443.5,-136 1584.5,-136 "/>
<path fill="none" stroke="black" d="M1584.5,-136C1590.5,-136 1596.5,-142 1596.5,-148"/>
<polyline fill="none" stroke="black" points="1596.5,-148 1596.5,-464 "/>
<path fill="none" stroke="black" d="M1596.5,-464C1596.5,-470 1590.5,-476 1584.5,-476"/>
<polyline fill="none" stroke="black" points="1584.5,-476 1443.5,-476 "/>
<path fill="none" stroke="black" d="M1443.5,-476C1437.5,-476 1431.5,-470 1431.5,-464"/>
<polyline fill="none" stroke="black" points="1431.5,-464 1431.5,-148 "/>
<path fill="none" stroke="black" d="M1431.5,-148C1431.5,-142 1437.5,-136 1443.5,-136"/>
<text text-anchor="middle" x="1514" y="-459.4" font-family="Times Roman,serif" font-size="14.00">Project</text>
<polyline fill="none" stroke="black" points="1431.5,-450 1596.5,-450 "/>
<text text-anchor="start" x="1439.5" y="-433.4" font-family="Times Roman,serif" font-size="14.00">id :integer</text>
<text text-anchor="start" x="1439.5" y="-415.4" font-family="Times Roman,serif" font-size="14.00">name :string</text>
<text text-anchor="start" x="1439.5" y="-397.4" font-family="Times Roman,serif" font-size="14.00">project_leader :string</text>
<text text-anchor="start" x="1439.5" y="-379.4" font-family="Times Roman,serif" font-size="14.00">sector_ids :string</text>
<text text-anchor="start" x="1439.5" y="-361.4" font-family="Times Roman,serif" font-size="14.00">organisation :string</text>
<text text-anchor="start" x="1439.5" y="-343.4" font-family="Times Roman,serif" font-size="14.00">closing_date :date</text>
<text text-anchor="start" x="1439.5" y="-325.4" font-family="Times Roman,serif" font-size="14.00">location :string</text>
<text text-anchor="start" x="1439.5" y="-307.4" font-family="Times Roman,serif" font-size="14.00">description :string</text>
<text text-anchor="start" x="1439.5" y="-289.4" font-family="Times Roman,serif" font-size="14.00">email :string</text>
<text text-anchor="start" x="1439.5" y="-271.4" font-family="Times Roman,serif" font-size="14.00">telephone :string</text>
<text text-anchor="start" x="1439.5" y="-253.4" font-family="Times Roman,serif" font-size="14.00">draft :boolean</text>
<text text-anchor="start" x="1439.5" y="-235.4" font-family="Times Roman,serif" font-size="14.00">created_at :datetime</text>
<text text-anchor="start" x="1439.5" y="-217.4" font-family="Times Roman,serif" font-size="14.00">updated_at :datetime</text>
<text text-anchor="start" x="1439.5" y="-199.4" font-family="Times Roman,serif" font-size="14.00">image :string</text>
<text text-anchor="start" x="1439.5" y="-181.4" font-family="Times Roman,serif" font-size="14.00">salary :string</text>
<text text-anchor="start" x="1439.5" y="-163.4" font-family="Times Roman,serif" font-size="14.00">internal :boolean</text>
<text text-anchor="start" x="1439.5" y="-145.4" font-family="Times Roman,serif" font-size="14.00">external :boolean</text>
</g>
<!-- Admin -->
<g id="node8" class="node"><title>Admin</title>
<polyline fill="none" stroke="black" points="1626,-172 1856,-172 "/>
<path fill="none" stroke="black" d="M1856,-172C1862,-172 1868,-178 1868,-184"/>
<polyline fill="none" stroke="black" points="1868,-184 1868,-428 "/>
<path fill="none" stroke="black" d="M1868,-428C1868,-434 1862,-440 1856,-440"/>
<polyline fill="none" stroke="black" points="1856,-440 1626,-440 "/>
<path fill="none" stroke="black" d="M1626,-440C1620,-440 1614,-434 1614,-428"/>
<polyline fill="none" stroke="black" points="1614,-428 1614,-184 "/>
<path fill="none" stroke="black" d="M1614,-184C1614,-178 1620,-172 1626,-172"/>
<text text-anchor="middle" x="1741" y="-423.4" font-family="Times Roman,serif" font-size="14.00">Admin</text>
<polyline fill="none" stroke="black" points="1614,-414 1868,-414 "/>
<text text-anchor="start" x="1622" y="-397.4" font-family="Times Roman,serif" font-size="14.00">id :integer</text>
<text text-anchor="start" x="1622" y="-379.4" font-family="Times Roman,serif" font-size="14.00">email :string</text>
<text text-anchor="start" x="1622" y="-361.4" font-family="Times Roman,serif" font-size="14.00">encrypted_password :string</text>
<text text-anchor="start" x="1622" y="-343.4" font-family="Times Roman,serif" font-size="14.00">reset_password_token :string</text>
<text text-anchor="start" x="1622" y="-325.4" font-family="Times Roman,serif" font-size="14.00">reset_password_sent_at :datetime</text>
<text text-anchor="start" x="1622" y="-307.4" font-family="Times Roman,serif" font-size="14.00">remember_created_at :datetime</text>
<text text-anchor="start" x="1622" y="-289.4" font-family="Times Roman,serif" font-size="14.00">sign_in_count :integer</text>
<text text-anchor="start" x="1622" y="-271.4" font-family="Times Roman,serif" font-size="14.00">current_sign_in_at :datetime</text>
<text text-anchor="start" x="1622" y="-253.4" font-family="Times Roman,serif" font-size="14.00">last_sign_in_at :datetime</text>
<text text-anchor="start" x="1622" y="-235.4" font-family="Times Roman,serif" font-size="14.00">current_sign_in_ip :string</text>
<text text-anchor="start" x="1622" y="-217.4" font-family="Times Roman,serif" font-size="14.00">last_sign_in_ip :string</text>
<text text-anchor="start" x="1622" y="-199.4" font-family="Times Roman,serif" font-size="14.00">created_at :datetime</text>
<text text-anchor="start" x="1622" y="-181.4" font-family="Times Roman,serif" font-size="14.00">updated_at :datetime</text>
</g>
<!-- MemberJobApplication -->
<g id="node9" class="node"><title>MemberJobApplication</title>
<polyline fill="none" stroke="black" points="1897.5,-235 2042.5,-235 "/>
<path fill="none" stroke="black" d="M2042.5,-235C2048.5,-235 2054.5,-241 2054.5,-247"/>
<polyline fill="none" stroke="black" points="2054.5,-247 2054.5,-365 "/>
<path fill="none" stroke="black" d="M2054.5,-365C2054.5,-371 2048.5,-377 2042.5,-377"/>
<polyline fill="none" stroke="black" points="2042.5,-377 1897.5,-377 "/>
<path fill="none" stroke="black" d="M1897.5,-377C1891.5,-377 1885.5,-371 1885.5,-365"/>
<polyline fill="none" stroke="black" points="1885.5,-365 1885.5,-247 "/>
<path fill="none" stroke="black" d="M1885.5,-247C1885.5,-241 1891.5,-235 1897.5,-235"/>
<text text-anchor="middle" x="1970" y="-360.4" font-family="Times Roman,serif" font-size="14.00">MemberJobApplication</text>
<polyline fill="none" stroke="black" points="1885.5,-351 2054.5,-351 "/>
<text text-anchor="start" x="1893.5" y="-334.4" font-family="Times Roman,serif" font-size="14.00">id :integer</text>
<text text-anchor="start" x="1893.5" y="-316.4" font-family="Times Roman,serif" font-size="14.00">member_id :integer</text>
<text text-anchor="start" x="1893.5" y="-298.4" font-family="Times Roman,serif" font-size="14.00">job_id :integer</text>
<text text-anchor="start" x="1893.5" y="-280.4" font-family="Times Roman,serif" font-size="14.00">status :string</text>
<text text-anchor="start" x="1893.5" y="-262.4" font-family="Times Roman,serif" font-size="14.00">created_at :datetime</text>
<text text-anchor="start" x="1893.5" y="-244.4" font-family="Times Roman,serif" font-size="14.00">updated_at :datetime</text>
</g>
<!-- EmployerProfile -->
<g id="node10" class="node"><title>EmployerProfile</title>
<polyline fill="none" stroke="black" points="2083.5,-244 2224.5,-244 "/>
<path fill="none" stroke="black" d="M2224.5,-244C2230.5,-244 2236.5,-250 2236.5,-256"/>
<polyline fill="none" stroke="black" points="2236.5,-256 2236.5,-356 "/>
<path fill="none" stroke="black" d="M2236.5,-356C2236.5,-362 2230.5,-368 2224.5,-368"/>
<polyline fill="none" stroke="black" points="2224.5,-368 2083.5,-368 "/>
<path fill="none" stroke="black" d="M2083.5,-368C2077.5,-368 2071.5,-362 2071.5,-356"/>
<polyline fill="none" stroke="black" points="2071.5,-356 2071.5,-256 "/>
<path fill="none" stroke="black" d="M2071.5,-256C2071.5,-250 2077.5,-244 2083.5,-244"/>
<text text-anchor="middle" x="2154" y="-351.4" font-family="Times Roman,serif" font-size="14.00">EmployerProfile</text>
<polyline fill="none" stroke="black" points="2071.5,-342 2236.5,-342 "/>
<text text-anchor="start" x="2079.5" y="-325.4" font-family="Times Roman,serif" font-size="14.00">id :integer</text>
<text text-anchor="start" x="2079.5" y="-307.4" font-family="Times Roman,serif" font-size="14.00">name :string</text>
<text text-anchor="start" x="2079.5" y="-289.4" font-family="Times Roman,serif" font-size="14.00">bio :string</text>
<text text-anchor="start" x="2079.5" y="-271.4" font-family="Times Roman,serif" font-size="14.00">created_at :datetime</text>
<text text-anchor="start" x="2079.5" y="-253.4" font-family="Times Roman,serif" font-size="14.00">updated_at :datetime</text>
</g>
<!-- MemberProjectApplication -->
<g id="node11" class="node"><title>MemberProjectApplication</title>
<polyline fill="none" stroke="black" points="2266,-235 2438,-235 "/>
<path fill="none" stroke="black" d="M2438,-235C2444,-235 2450,-241 2450,-247"/>
<polyline fill="none" stroke="black" points="2450,-247 2450,-365 "/>
<path fill="none" stroke="black" d="M2450,-365C2450,-371 2444,-377 2438,-377"/>
<polyline fill="none" stroke="black" points="2438,-377 2266,-377 "/>
<path fill="none" stroke="black" d="M2266,-377C2260,-377 2254,-371 2254,-365"/>
<polyline fill="none" stroke="black" points="2254,-365 2254,-247 "/>
<path fill="none" stroke="black" d="M2254,-247C2254,-241 2260,-235 2266,-235"/>
<text text-anchor="middle" x="2352" y="-360.4" font-family="Times Roman,serif" font-size="14.00">MemberProjectApplication</text>
<polyline fill="none" stroke="black" points="2254,-351 2450,-351 "/>
<text text-anchor="start" x="2262" y="-334.4" font-family="Times Roman,serif" font-size="14.00">id :integer</text>
<text text-anchor="start" x="2262" y="-316.4" font-family="Times Roman,serif" font-size="14.00">member_id :integer</text>
<text text-anchor="start" x="2262" y="-298.4" font-family="Times Roman,serif" font-size="14.00">project_id :string</text>
<text text-anchor="start" x="2262" y="-280.4" font-family="Times Roman,serif" font-size="14.00">status :string</text>
<text text-anchor="start" x="2262" y="-262.4" font-family="Times Roman,serif" font-size="14.00">created_at :datetime</text>
<text text-anchor="start" x="2262" y="-244.4" font-family="Times Roman,serif" font-size="14.00">updated_at :datetime</text>
</g>
<!-- ClientMentor -->
<g id="node12" class="node"><title>ClientMentor</title>
<polyline fill="none" stroke="black" points="2479.5,-244 2620.5,-244 "/>
<path fill="none" stroke="black" d="M2620.5,-244C2626.5,-244 2632.5,-250 2632.5,-256"/>
<polyline fill="none" stroke="black" points="2632.5,-256 2632.5,-356 "/>
<path fill="none" stroke="black" d="M2632.5,-356C2632.5,-362 2626.5,-368 2620.5,-368"/>
<polyline fill="none" stroke="black" points="2620.5,-368 2479.5,-368 "/>
<path fill="none" stroke="black" d="M2479.5,-368C2473.5,-368 2467.5,-362 2467.5,-356"/>
<polyline fill="none" stroke="black" points="2467.5,-356 2467.5,-256 "/>
<path fill="none" stroke="black" d="M2467.5,-256C2467.5,-250 2473.5,-244 2479.5,-244"/>
<text text-anchor="middle" x="2550" y="-351.4" font-family="Times Roman,serif" font-size="14.00">ClientMentor</text>
<polyline fill="none" stroke="black" points="2467.5,-342 2632.5,-342 "/>
<text text-anchor="start" x="2475.5" y="-325.4" font-family="Times Roman,serif" font-size="14.00">id :integer</text>
<text text-anchor="start" x="2475.5" y="-307.4" font-family="Times Roman,serif" font-size="14.00">client_id :integer</text>
<text text-anchor="start" x="2475.5" y="-289.4" font-family="Times Roman,serif" font-size="14.00">mentor_id :integer</text>
<text text-anchor="start" x="2475.5" y="-271.4" font-family="Times Roman,serif" font-size="14.00">created_at :datetime</text>
<text text-anchor="start" x="2475.5" y="-253.4" font-family="Times Roman,serif" font-size="14.00">updated_at :datetime</text>
</g>
<!-- Client -->
<g id="node13" class="node"><title>Client</title>
<polyline fill="none" stroke="black" points="2662,-127 2892,-127 "/>
<path fill="none" stroke="black" d="M2892,-127C2898,-127 2904,-133 2904,-139"/>
<polyline fill="none" stroke="black" points="2904,-139 2904,-473 "/>
<path fill="none" stroke="black" d="M2904,-473C2904,-479 2898,-485 2892,-485"/>
<polyline fill="none" stroke="black" points="2892,-485 2662,-485 "/>
<path fill="none" stroke="black" d="M2662,-485C2656,-485 2650,-479 2650,-473"/>
<polyline fill="none" stroke="black" points="2650,-473 2650,-139 "/>
<path fill="none" stroke="black" d="M2650,-139C2650,-133 2656,-127 2662,-127"/>
<text text-anchor="middle" x="2777" y="-468.4" font-family="Times Roman,serif" font-size="14.00">Client</text>
<polyline fill="none" stroke="black" points="2650,-459 2904,-459 "/>
<text text-anchor="start" x="2658" y="-442.4" font-family="Times Roman,serif" font-size="14.00">id :integer</text>
<text text-anchor="start" x="2658" y="-424.4" font-family="Times Roman,serif" font-size="14.00">email :string</text>
<text text-anchor="start" x="2658" y="-406.4" font-family="Times Roman,serif" font-size="14.00">encrypted_password :string</text>
<text text-anchor="start" x="2658" y="-388.4" font-family="Times Roman,serif" font-size="14.00">reset_password_token :string</text>
<text text-anchor="start" x="2658" y="-370.4" font-family="Times Roman,serif" font-size="14.00">reset_password_sent_at :datetime</text>
<text text-anchor="start" x="2658" y="-352.4" font-family="Times Roman,serif" font-size="14.00">remember_created_at :datetime</text>
<text text-anchor="start" x="2658" y="-334.4" font-family="Times Roman,serif" font-size="14.00">sign_in_count :integer</text>
<text text-anchor="start" x="2658" y="-316.4" font-family="Times Roman,serif" font-size="14.00">current_sign_in_at :datetime</text>
<text text-anchor="start" x="2658" y="-298.4" font-family="Times Roman,serif" font-size="14.00">last_sign_in_at :datetime</text>
<text text-anchor="start" x="2658" y="-280.4" font-family="Times Roman,serif" font-size="14.00">current_sign_in_ip :string</text>
<text text-anchor="start" x="2658" y="-262.4" font-family="Times Roman,serif" font-size="14.00">last_sign_in_ip :string</text>
<text text-anchor="start" x="2658" y="-244.4" font-family="Times Roman,serif" font-size="14.00">created_at :datetime</text>
<text text-anchor="start" x="2658" y="-226.4" font-family="Times Roman,serif" font-size="14.00">updated_at :datetime</text>
<text text-anchor="start" x="2658" y="-208.4" font-family="Times Roman,serif" font-size="14.00">organisation :string</text>
<text text-anchor="start" x="2658" y="-190.4" font-family="Times Roman,serif" font-size="14.00">unconfirmed_email :string</text>
<text text-anchor="start" x="2658" y="-172.4" font-family="Times Roman,serif" font-size="14.00">confirmation_token :string</text>
<text text-anchor="start" x="2658" y="-154.4" font-family="Times Roman,serif" font-size="14.00">confirmed_at :datetime</text>
<text text-anchor="start" x="2658" y="-136.4" font-family="Times Roman,serif" font-size="14.00">confirmation_sent_at :datetime</text>
</g>
<!-- Mentor -->
<g id="node14" class="node"><title>Mentor</title>
<polyline fill="none" stroke="black" points="2933.5,-136 3074.5,-136 "/>
<path fill="none" stroke="black" d="M3074.5,-136C3080.5,-136 3086.5,-142 3086.5,-148"/>
<polyline fill="none" stroke="black" points="3086.5,-148 3086.5,-464 "/>
<path fill="none" stroke="black" d="M3086.5,-464C3086.5,-470 3080.5,-476 3074.5,-476"/>
<polyline fill="none" stroke="black" points="3074.5,-476 2933.5,-476 "/>
<path fill="none" stroke="black" d="M2933.5,-476C2927.5,-476 2921.5,-470 2921.5,-464"/>
<polyline fill="none" stroke="black" points="2921.5,-464 2921.5,-148 "/>
<path fill="none" stroke="black" d="M2921.5,-148C2921.5,-142 2927.5,-136 2933.5,-136"/>
<text text-anchor="middle" x="3004" y="-459.4" font-family="Times Roman,serif" font-size="14.00">Mentor</text>
<polyline fill="none" stroke="black" points="2921.5,-450 3086.5,-450 "/>
<text text-anchor="start" x="2929.5" y="-433.4" font-family="Times Roman,serif" font-size="14.00">id :integer</text>
<text text-anchor="start" x="2929.5" y="-415.4" font-family="Times Roman,serif" font-size="14.00">fname :string</text>
<text text-anchor="start" x="2929.5" y="-397.4" font-family="Times Roman,serif" font-size="14.00">lname :string</text>
<text text-anchor="start" x="2929.5" y="-379.4" font-family="Times Roman,serif" font-size="14.00">role_title :string</text>
<text text-anchor="start" x="2929.5" y="-361.4" font-family="Times Roman,serif" font-size="14.00">sector_ids :string</text>
<text text-anchor="start" x="2929.5" y="-343.4" font-family="Times Roman,serif" font-size="14.00">organisation :string</text>
<text text-anchor="start" x="2929.5" y="-325.4" font-family="Times Roman,serif" font-size="14.00">closing_date :date</text>
<text text-anchor="start" x="2929.5" y="-307.4" font-family="Times Roman,serif" font-size="14.00">location :string</text>
<text text-anchor="start" x="2929.5" y="-289.4" font-family="Times Roman,serif" font-size="14.00">description :string</text>
<text text-anchor="start" x="2929.5" y="-271.4" font-family="Times Roman,serif" font-size="14.00">email :string</text>
<text text-anchor="start" x="2929.5" y="-253.4" font-family="Times Roman,serif" font-size="14.00">telephone :string</text>
<text text-anchor="start" x="2929.5" y="-235.4" font-family="Times Roman,serif" font-size="14.00">image :string</text>
<text text-anchor="start" x="2929.5" y="-217.4" font-family="Times Roman,serif" font-size="14.00">draft :boolean</text>
<text text-anchor="start" x="2929.5" y="-199.4" font-family="Times Roman,serif" font-size="14.00">created_at :datetime</text>
<text text-anchor="start" x="2929.5" y="-181.4" font-family="Times Roman,serif" font-size="14.00">updated_at :datetime</text>
<text text-anchor="start" x="2929.5" y="-163.4" font-family="Times Roman,serif" font-size="14.00">internal :boolean</text>
<text text-anchor="start" x="2929.5" y="-145.4" font-family="Times Roman,serif" font-size="14.00">external :boolean</text>
</g>
<!-- Sector -->
<g id="node15" class="node"><title>Sector</title>
<polyline fill="none" stroke="black" points="3115.5,-253 3256.5,-253 "/>
<path fill="none" stroke="black" d="M3256.5,-253C3262.5,-253 3268.5,-259 3268.5,-265"/>
<polyline fill="none" stroke="black" points="3268.5,-265 3268.5,-347 "/>
<path fill="none" stroke="black" d="M3268.5,-347C3268.5,-353 3262.5,-359 3256.5,-359"/>
<polyline fill="none" stroke="black" points="3256.5,-359 3115.5,-359 "/>
<path fill="none" stroke="black" d="M3115.5,-359C3109.5,-359 3103.5,-353 3103.5,-347"/>
<polyline fill="none" stroke="black" points="3103.5,-347 3103.5,-265 "/>
<path fill="none" stroke="black" d="M3103.5,-265C3103.5,-259 3109.5,-253 3115.5,-253"/>
<text text-anchor="middle" x="3186" y="-342.4" font-family="Times Roman,serif" font-size="14.00">Sector</text>
<polyline fill="none" stroke="black" points="3103.5,-333 3268.5,-333 "/>
<text text-anchor="start" x="3111.5" y="-316.4" font-family="Times Roman,serif" font-size="14.00">id :integer</text>
<text text-anchor="start" x="3111.5" y="-298.4" font-family="Times Roman,serif" font-size="14.00">name :string</text>
<text text-anchor="start" x="3111.5" y="-280.4" font-family="Times Roman,serif" font-size="14.00">created_at :datetime</text>
<text text-anchor="start" x="3111.5" y="-262.4" font-family="Times Roman,serif" font-size="14.00">updated_at :datetime</text>
</g>
<!-- OrganisationEmailDomain -->
<g id="node16" class="node"><title>OrganisationEmailDomain</title>
<polyline fill="none" stroke="black" points="3298,-244 3470,-244 "/>
<path fill="none" stroke="black" d="M3470,-244C3476,-244 3482,-250 3482,-256"/>
<polyline fill="none" stroke="black" points="3482,-256 3482,-356 "/>
<path fill="none" stroke="black" d="M3482,-356C3482,-362 3476,-368 3470,-368"/>
<polyline fill="none" stroke="black" points="3470,-368 3298,-368 "/>
<path fill="none" stroke="black" d="M3298,-368C3292,-368 3286,-362 3286,-356"/>
<polyline fill="none" stroke="black" points="3286,-356 3286,-256 "/>
<path fill="none" stroke="black" d="M3286,-256C3286,-250 3292,-244 3298,-244"/>
<text text-anchor="middle" x="3384" y="-351.4" font-family="Times Roman,serif" font-size="14.00">OrganisationEmailDomain</text>
<polyline fill="none" stroke="black" points="3286,-342 3482,-342 "/>
<text text-anchor="start" x="3294" y="-325.4" font-family="Times Roman,serif" font-size="14.00">id :integer</text>
<text text-anchor="start" x="3294" y="-307.4" font-family="Times Roman,serif" font-size="14.00">organisation :string</text>
<text text-anchor="start" x="3294" y="-289.4" font-family="Times Roman,serif" font-size="14.00">domain :string</text>
<text text-anchor="start" x="3294" y="-271.4" font-family="Times Roman,serif" font-size="14.00">created_at :datetime</text>
<text text-anchor="start" x="3294" y="-253.4" font-family="Times Roman,serif" font-size="14.00">updated_at :datetime</text>
</g>
<!-- ClientProject -->
<g id="node17" class="node"><title>ClientProject</title>
<polyline fill="none" stroke="black" points="3511.5,-244 3652.5,-244 "/>
<path fill="none" stroke="black" d="M3652.5,-244C3658.5,-244 3664.5,-250 3664.5,-256"/>
<polyline fill="none" stroke="black" points="3664.5,-256 3664.5,-356 "/>
<path fill="none" stroke="black" d="M3664.5,-356C3664.5,-362 3658.5,-368 3652.5,-368"/>
<polyline fill="none" stroke="black" points="3652.5,-368 3511.5,-368 "/>
<path fill="none" stroke="black" d="M3511.5,-368C3505.5,-368 3499.5,-362 3499.5,-356"/>
<polyline fill="none" stroke="black" points="3499.5,-356 3499.5,-256 "/>
<path fill="none" stroke="black" d="M3499.5,-256C3499.5,-250 3505.5,-244 3511.5,-244"/>
<text text-anchor="middle" x="3582" y="-351.4" font-family="Times Roman,serif" font-size="14.00">ClientProject</text>
<polyline fill="none" stroke="black" points="3499.5,-342 3664.5,-342 "/>
<text text-anchor="start" x="3507.5" y="-325.4" font-family="Times Roman,serif" font-size="14.00">id :integer</text>
<text text-anchor="start" x="3507.5" y="-307.4" font-family="Times Roman,serif" font-size="14.00">client_id :integer</text>
<text text-anchor="start" x="3507.5" y="-289.4" font-family="Times Roman,serif" font-size="14.00">project_id :integer</text>
<text text-anchor="start" x="3507.5" y="-271.4" font-family="Times Roman,serif" font-size="14.00">created_at :datetime</text>
<text text-anchor="start" x="3507.5" y="-253.4" font-family="Times Roman,serif" font-size="14.00">updated_at :datetime</text>
</g>
<!-- Location -->
<g id="node18" class="node"><title>Location</title>
<polyline fill="none" stroke="black" points="3693.5,-253 3834.5,-253 "/>
<path fill="none" stroke="black" d="M3834.5,-253C3840.5,-253 3846.5,-259 3846.5,-265"/>
<polyline fill="none" stroke="black" points="3846.5,-265 3846.5,-347 "/>
<path fill="none" stroke="black" d="M3846.5,-347C3846.5,-353 3840.5,-359 3834.5,-359"/>
<polyline fill="none" stroke="black" points="3834.5,-359 3693.5,-359 "/>
<path fill="none" stroke="black" d="M3693.5,-359C3687.5,-359 3681.5,-353 3681.5,-347"/>
<polyline fill="none" stroke="black" points="3681.5,-347 3681.5,-265 "/>
<path fill="none" stroke="black" d="M3681.5,-265C3681.5,-259 3687.5,-253 3693.5,-253"/>
<text text-anchor="middle" x="3764" y="-342.4" font-family="Times Roman,serif" font-size="14.00">Location</text>
<polyline fill="none" stroke="black" points="3681.5,-333 3846.5,-333 "/>
<text text-anchor="start" x="3689.5" y="-316.4" font-family="Times Roman,serif" font-size="14.00">id :integer</text>
<text text-anchor="start" x="3689.5" y="-298.4" font-family="Times Roman,serif" font-size="14.00">name :string</text>
<text text-anchor="start" x="3689.5" y="-280.4" font-family="Times Roman,serif" font-size="14.00">created_at :datetime</text>
<text text-anchor="start" x="3689.5" y="-262.4" font-family="Times Roman,serif" font-size="14.00">updated_at :datetime</text>
</g>
</g>
</svg>
