<?xml version="1.0" encoding="UTF-8" standalone="no"?>
<!DOCTYPE svg PUBLIC "-//W3C//DTD SVG 1.1//EN"
 "http://www.w3.org/Graphics/SVG/1.1/DTD/svg11.dtd">
<!-- Generated by graphviz version 2.26.3 (20100126.1600)
 -->
<!-- Title: models_diagram Pages: 1 -->
<svg width="3854pt" height="548pt"
 viewBox="0.00 0.00 3854.00 548.00" xmlns="http://www.w3.org/2000/svg" xmlns:xlink="http://www.w3.org/1999/xlink">
<g id="graph1" class="graph" transform="scale(1 1) rotate(0) translate(4 544)">
<title>models_diagram</title>
<polygon fill="white" stroke="white" points="-4,5 -4,-544 3851,-544 3851,5 -4,5"/>
<!-- _diagram_info -->
<g id="node1" class="node"><title>_diagram_info</title>
<text text-anchor="start" x="8" y="-300.8" font-family="Times Roman,serif" font-size="13.00">Models diagram</text>
<text text-anchor="start" x="8" y="-283.8" font-family="Times Roman,serif" font-size="13.00">Date: Jul 27 2013 &#45; 20:06</text>
<text text-anchor="start" x="8" y="-266.8" font-family="Times Roman,serif" font-size="13.00">Migration version: 20130727190413</text>
<text text-anchor="start" x="8" y="-249.8" font-family="Times Roman,serif" font-size="13.00">Generated by RailRoady 1.1.0</text>
<text text-anchor="start" x="8" y="-232.8" font-family="Times Roman,serif" font-size="13.00">http://railroady.prestonlee.com</text>
</g>
<!-- Advert -->
<g id="node2" class="node"><title>Advert</title>
<polyline fill="none" stroke="black" points="279.5,-199 420.5,-199 "/>
<path fill="none" stroke="black" d="M420.5,-199C426.5,-199 432.5,-205 432.5,-211"/>
<polyline fill="none" stroke="black" points="432.5,-211 432.5,-329 "/>
<path fill="none" stroke="black" d="M432.5,-329C432.5,-335 426.5,-341 420.5,-341"/>
<polyline fill="none" stroke="black" points="420.5,-341 279.5,-341 "/>
<path fill="none" stroke="black" d="M279.5,-341C273.5,-341 267.5,-335 267.5,-329"/>
<polyline fill="none" stroke="black" points="267.5,-329 267.5,-211 "/>
<path fill="none" stroke="black" d="M267.5,-211C267.5,-205 273.5,-199 279.5,-199"/>
<text text-anchor="middle" x="350" y="-324.4" font-family="Times Roman,serif" font-size="14.00">Advert</text>
<polyline fill="none" stroke="black" points="267.5,-315 432.5,-315 "/>
<text text-anchor="start" x="275.5" y="-298.4" font-family="Times Roman,serif" font-size="14.00">id :integer</text>
<text text-anchor="start" x="275.5" y="-280.4" font-family="Times Roman,serif" font-size="14.00">name :string</text>
<text text-anchor="start" x="275.5" y="-262.4" font-family="Times Roman,serif" font-size="14.00">image :string</text>
<text text-anchor="start" x="275.5" y="-244.4" font-family="Times Roman,serif" font-size="14.00">sector_ids :string</text>
<text text-anchor="start" x="275.5" y="-226.4" font-family="Times Roman,serif" font-size="14.00">created_at :datetime</text>
<text text-anchor="start" x="275.5" y="-208.4" font-family="Times Roman,serif" font-size="14.00">updated_at :datetime</text>
</g>
<!-- MemberMentorApplication -->
<g id="node3" class="node"><title>MemberMentorApplication</title>
<polyline fill="none" stroke="black" points="461.5,-199 634.5,-199 "/>
<path fill="none" stroke="black" d="M634.5,-199C640.5,-199 646.5,-205 646.5,-211"/>
<polyline fill="none" stroke="black" points="646.5,-211 646.5,-329 "/>
<path fill="none" stroke="black" d="M646.5,-329C646.5,-335 640.5,-341 634.5,-341"/>
<polyline fill="none" stroke="black" points="634.5,-341 461.5,-341 "/>
<path fill="none" stroke="black" d="M461.5,-341C455.5,-341 449.5,-335 449.5,-329"/>
<polyline fill="none" stroke="black" points="449.5,-329 449.5,-211 "/>
<path fill="none" stroke="black" d="M449.5,-211C449.5,-205 455.5,-199 461.5,-199"/>
<text text-anchor="middle" x="548" y="-324.4" font-family="Times Roman,serif" font-size="14.00">MemberMentorApplication</text>
<polyline fill="none" stroke="black" points="449.5,-315 646.5,-315 "/>
<text text-anchor="start" x="457.5" y="-298.4" font-family="Times Roman,serif" font-size="14.00">id :integer</text>
<text text-anchor="start" x="457.5" y="-280.4" font-family="Times Roman,serif" font-size="14.00">member_id :integer</text>
<text text-anchor="start" x="457.5" y="-262.4" font-family="Times Roman,serif" font-size="14.00">mentor_id :integer</text>
<text text-anchor="start" x="457.5" y="-244.4" font-family="Times Roman,serif" font-size="14.00">status :string</text>
<text text-anchor="start" x="457.5" y="-226.4" font-family="Times Roman,serif" font-size="14.00">created_at :datetime</text>
<text text-anchor="start" x="457.5" y="-208.4" font-family="Times Roman,serif" font-size="14.00">updated_at :datetime</text>
</g>
<!-- Member -->
<g id="node4" class="node"><title>Member</title>
<polyline fill="none" stroke="black" points="676,-1 1038,-1 "/>
<path fill="none" stroke="black" d="M1038,-1C1044,-1 1050,-7 1050,-13"/>
<polyline fill="none" stroke="black" points="1050,-13 1050,-527 "/>
<path fill="none" stroke="black" d="M1050,-527C1050,-533 1044,-539 1038,-539"/>
<polyline fill="none" stroke="black" points="1038,-539 676,-539 "/>
<path fill="none" stroke="black" d="M676,-539C670,-539 664,-533 664,-527"/>
<polyline fill="none" stroke="black" points="664,-527 664,-13 "/>
<path fill="none" stroke="black" d="M664,-13C664,-7 670,-1 676,-1"/>
<text text-anchor="middle" x="857" y="-522.4" font-family="Times Roman,serif" font-size="14.00">Member</text>
<polyline fill="none" stroke="black" points="664,-513 1050,-513 "/>
<text text-anchor="start" x="672" y="-496.4" font-family="Times Roman,serif" font-size="14.00">id :integer</text>
<text text-anchor="start" x="672" y="-478.4" font-family="Times Roman,serif" font-size="14.00">email :string</text>
<text text-anchor="start" x="672" y="-460.4" font-family="Times Roman,serif" font-size="14.00">encrypted_password :string</text>
<text text-anchor="start" x="672" y="-442.4" font-family="Times Roman,serif" font-size="14.00">reset_password_token :string</text>
<text text-anchor="start" x="672" y="-424.4" font-family="Times Roman,serif" font-size="14.00">reset_password_sent_at :datetime</text>
<text text-anchor="start" x="672" y="-406.4" font-family="Times Roman,serif" font-size="14.00">remember_created_at :datetime</text>
<text text-anchor="start" x="672" y="-388.4" font-family="Times Roman,serif" font-size="14.00">sign_in_count :integer</text>
<text text-anchor="start" x="672" y="-370.4" font-family="Times Roman,serif" font-size="14.00">current_sign_in_at :datetime</text>
<text text-anchor="start" x="672" y="-352.4" font-family="Times Roman,serif" font-size="14.00">last_sign_in_at :datetime</text>
<text text-anchor="start" x="672" y="-334.4" font-family="Times Roman,serif" font-size="14.00">current_sign_in_ip :string</text>
<text text-anchor="start" x="672" y="-316.4" font-family="Times Roman,serif" font-size="14.00">last_sign_in_ip :string</text>
<text text-anchor="start" x="672" y="-298.4" font-family="Times Roman,serif" font-size="14.00">created_at :datetime</text>
<text text-anchor="start" x="672" y="-280.4" font-family="Times Roman,serif" font-size="14.00">updated_at :datetime</text>
<text text-anchor="start" x="672" y="-262.4" font-family="Times Roman,serif" font-size="14.00">fname :string</text>
<text text-anchor="start" x="672" y="-244.4" font-family="Times Roman,serif" font-size="14.00">lname :string</text>
<text text-anchor="start" x="672" y="-226.4" font-family="Times Roman,serif" font-size="14.00">dob :date</text>
<text text-anchor="start" x="672" y="-208.4" font-family="Times Roman,serif" font-size="14.00">gender :string</text>
<text text-anchor="start" x="672" y="-190.4" font-family="Times Roman,serif" font-size="14.00">telephone :string</text>
<text text-anchor="start" x="672" y="-172.4" font-family="Times Roman,serif" font-size="14.00">sector_ids :string</text>
<text text-anchor="start" x="672" y="-154.4" font-family="Times Roman,serif" font-size="14.00">location :string</text>
<text text-anchor="start" x="672" y="-136.4" font-family="Times Roman,serif" font-size="14.00">employment_status :string</text>
<text text-anchor="start" x="672" y="-118.4" font-family="Times Roman,serif" font-size="14.00">academic_institution :string</text>
<text text-anchor="start" x="672" y="-100.4" font-family="Times Roman,serif" font-size="14.00">course :string</text>
<text text-anchor="start" x="672" y="-82.4" font-family="Times Roman,serif" font-size="14.00">cv :string</text>
<text text-anchor="start" x="672" y="-64.4" font-family="Times Roman,serif" font-size="14.00">settings_receive_email_updates :boolean</text>
<text text-anchor="start" x="672" y="-46.4" font-family="Times Roman,serif" font-size="14.00">settings_pass_info_to_employment_agencies :boolean</text>
<text text-anchor="start" x="672" y="-28.4" font-family="Times Roman,serif" font-size="14.00">settings_mentoring_highschool :boolean</text>
<text text-anchor="start" x="672" y="-10.4" font-family="Times Roman,serif" font-size="14.00">settings_pass_info_to_marketing :boolean</text>
</g>
<!-- Team -->
<g id="node5" class="node"><title>Team</title>
<polyline fill="none" stroke="black" points="1079.5,-181 1220.5,-181 "/>
<path fill="none" stroke="black" d="M1220.5,-181C1226.5,-181 1232.5,-187 1232.5,-193"/>
<polyline fill="none" stroke="black" points="1232.5,-193 1232.5,-347 "/>
<path fill="none" stroke="black" d="M1232.5,-347C1232.5,-353 1226.5,-359 1220.5,-359"/>
<polyline fill="none" stroke="black" points="1220.5,-359 1079.5,-359 "/>
<path fill="none" stroke="black" d="M1079.5,-359C1073.5,-359 1067.5,-353 1067.5,-347"/>
<polyline fill="none" stroke="black" points="1067.5,-347 1067.5,-193 "/>
<path fill="none" stroke="black" d="M1067.5,-193C1067.5,-187 1073.5,-181 1079.5,-181"/>
<text text-anchor="middle" x="1150" y="-342.4" font-family="Times Roman,serif" font-size="14.00">Team</text>
<polyline fill="none" stroke="black" points="1067.5,-333 1232.5,-333 "/>
<text text-anchor="start" x="1075.5" y="-316.4" font-family="Times Roman,serif" font-size="14.00">id :integer</text>
<text text-anchor="start" x="1075.5" y="-298.4" font-family="Times Roman,serif" font-size="14.00">fname :string</text>
<text text-anchor="start" x="1075.5" y="-280.4" font-family="Times Roman,serif" font-size="14.00">lname :string</text>
<text text-anchor="start" x="1075.5" y="-262.4" font-family="Times Roman,serif" font-size="14.00">bio :string</text>
<text text-anchor="start" x="1075.5" y="-244.4" font-family="Times Roman,serif" font-size="14.00">position :string</text>
<text text-anchor="start" x="1075.5" y="-226.4" font-family="Times Roman,serif" font-size="14.00">image :string</text>
<text text-anchor="start" x="1075.5" y="-208.4" font-family="Times Roman,serif" font-size="14.00">created_at :datetime</text>
<text text-anchor="start" x="1075.5" y="-190.4" font-family="Times Roman,serif" font-size="14.00">updated_at :datetime</text>
</g>
<!-- ClientJob -->
<g id="node6" class="node"><title>ClientJob</title>
<polyline fill="none" stroke="black" points="1261.5,-208 1402.5,-208 "/>
<path fill="none" stroke="black" d="M1402.5,-208C1408.5,-208 1414.5,-214 1414.5,-220"/>
<polyline fill="none" stroke="black" points="1414.5,-220 1414.5,-320 "/>
<path fill="none" stroke="black" d="M1414.5,-320C1414.5,-326 1408.5,-332 1402.5,-332"/>
<polyline fill="none" stroke="black" points="1402.5,-332 1261.5,-332 "/>
<path fill="none" stroke="black" d="M1261.5,-332C1255.5,-332 1249.5,-326 1249.5,-320"/>
<polyline fill="none" stroke="black" points="1249.5,-320 1249.5,-220 "/>
<path fill="none" stroke="black" d="M1249.5,-220C1249.5,-214 1255.5,-208 1261.5,-208"/>
<text text-anchor="middle" x="1332" y="-315.4" font-family="Times Roman,serif" font-size="14.00">ClientJob</text>
<polyline fill="none" stroke="black" points="1249.5,-306 1414.5,-306 "/>
<text text-anchor="start" x="1257.5" y="-289.4" font-family="Times Roman,serif" font-size="14.00">id :integer</text>
<text text-anchor="start" x="1257.5" y="-271.4" font-family="Times Roman,serif" font-size="14.00">client_id :integer</text>
<text text-anchor="start" x="1257.5" y="-253.4" font-family="Times Roman,serif" font-size="14.00">job_id :integer</text>
<text text-anchor="start" x="1257.5" y="-235.4" font-family="Times Roman,serif" font-size="14.00">created_at :datetime</text>
<text text-anchor="start" x="1257.5" y="-217.4" font-family="Times Roman,serif" font-size="14.00">updated_at :datetime</text>
</g>
<!-- Project -->
<g id="node7" class="node"><title>Project</title>
<polyline fill="none" stroke="black" points="1443.5,-118 1584.5,-118 "/>
<path fill="none" stroke="black" d="M1584.5,-118C1590.5,-118 1596.5,-124 1596.5,-130"/>
<polyline fill="none" stroke="black" points="1596.5,-130 1596.5,-410 "/>
<path fill="none" stroke="black" d="M1596.5,-410C1596.5,-416 1590.5,-422 1584.5,-422"/>
<polyline fill="none" stroke="black" points="1584.5,-422 1443.5,-422 "/>
<path fill="none" stroke="black" d="M1443.5,-422C1437.5,-422 1431.5,-416 1431.5,-410"/>
<polyline fill="none" stroke="black" points="1431.5,-410 1431.5,-130 "/>
<path fill="none" stroke="black" d="M1431.5,-130C1431.5,-124 1437.5,-118 1443.5,-118"/>
<text text-anchor="middle" x="1514" y="-405.4" font-family="Times Roman,serif" font-size="14.00">Project</text>
<polyline fill="none" stroke="black" points="1431.5,-396 1596.5,-396 "/>
<text text-anchor="start" x="1439.5" y="-379.4" font-family="Times Roman,serif" font-size="14.00">id :integer</text>
<text text-anchor="start" x="1439.5" y="-361.4" font-family="Times Roman,serif" font-size="14.00">name :string</text>
<text text-anchor="start" x="1439.5" y="-343.4" font-family="Times Roman,serif" font-size="14.00">project_leader :string</text>
<text text-anchor="start" x="1439.5" y="-325.4" font-family="Times Roman,serif" font-size="14.00">sector_ids :string</text>
<text text-anchor="start" x="1439.5" y="-307.4" font-family="Times Roman,serif" font-size="14.00">organisation :string</text>
<text text-anchor="start" x="1439.5" y="-289.4" font-family="Times Roman,serif" font-size="14.00">closing_date :date</text>
<text text-anchor="start" x="1439.5" y="-271.4" font-family="Times Roman,serif" font-size="14.00">location :string</text>
<text text-anchor="start" x="1439.5" y="-253.4" font-family="Times Roman,serif" font-size="14.00">description :string</text>
<text text-anchor="start" x="1439.5" y="-235.4" font-family="Times Roman,serif" font-size="14.00">email :string</text>
<text text-anchor="start" x="1439.5" y="-217.4" font-family="Times Roman,serif" font-size="14.00">telephone :string</text>
<text text-anchor="start" x="1439.5" y="-199.4" font-family="Times Roman,serif" font-size="14.00">draft :boolean</text>
<text text-anchor="start" x="1439.5" y="-181.4" font-family="Times Roman,serif" font-size="14.00">created_at :datetime</text>
<text text-anchor="start" x="1439.5" y="-163.4" font-family="Times Roman,serif" font-size="14.00">updated_at :datetime</text>
<text text-anchor="start" x="1439.5" y="-145.4" font-family="Times Roman,serif" font-size="14.00">image :string</text>
<text text-anchor="start" x="1439.5" y="-127.4" font-family="Times Roman,serif" font-size="14.00">salary :string</text>
</g>
<!-- Admin -->
<g id="node8" class="node"><title>Admin</title>
<polyline fill="none" stroke="black" points="1626,-136 1856,-136 "/>
<path fill="none" stroke="black" d="M1856,-136C1862,-136 1868,-142 1868,-148"/>
<polyline fill="none" stroke="black" points="1868,-148 1868,-392 "/>
<path fill="none" stroke="black" d="M1868,-392C1868,-398 1862,-404 1856,-404"/>
<polyline fill="none" stroke="black" points="1856,-404 1626,-404 "/>
<path fill="none" stroke="black" d="M1626,-404C1620,-404 1614,-398 1614,-392"/>
<polyline fill="none" stroke="black" points="1614,-392 1614,-148 "/>
<path fill="none" stroke="black" d="M1614,-148C1614,-142 1620,-136 1626,-136"/>
<text text-anchor="middle" x="1741" y="-387.4" font-family="Times Roman,serif" font-size="14.00">Admin</text>
<polyline fill="none" stroke="black" points="1614,-378 1868,-378 "/>
<text text-anchor="start" x="1622" y="-361.4" font-family="Times Roman,serif" font-size="14.00">id :integer</text>
<text text-anchor="start" x="1622" y="-343.4" font-family="Times Roman,serif" font-size="14.00">email :string</text>
<text text-anchor="start" x="1622" y="-325.4" font-family="Times Roman,serif" font-size="14.00">encrypted_password :string</text>
<text text-anchor="start" x="1622" y="-307.4" font-family="Times Roman,serif" font-size="14.00">reset_password_token :string</text>
<text text-anchor="start" x="1622" y="-289.4" font-family="Times Roman,serif" font-size="14.00">reset_password_sent_at :datetime</text>
<text text-anchor="start" x="1622" y="-271.4" font-family="Times Roman,serif" font-size="14.00">remember_created_at :datetime</text>
<text text-anchor="start" x="1622" y="-253.4" font-family="Times Roman,serif" font-size="14.00">sign_in_count :integer</text>
<text text-anchor="start" x="1622" y="-235.4" font-family="Times Roman,serif" font-size="14.00">current_sign_in_at :datetime</text>
<text text-anchor="start" x="1622" y="-217.4" font-family="Times Roman,serif" font-size="14.00">last_sign_in_at :datetime</text>
<text text-anchor="start" x="1622" y="-199.4" font-family="Times Roman,serif" font-size="14.00">current_sign_in_ip :string</text>
<text text-anchor="start" x="1622" y="-181.4" font-family="Times Roman,serif" font-size="14.00">last_sign_in_ip :string</text>
<text text-anchor="start" x="1622" y="-163.4" font-family="Times Roman,serif" font-size="14.00">created_at :datetime</text>
<text text-anchor="start" x="1622" y="-145.4" font-family="Times Roman,serif" font-size="14.00">updated_at :datetime</text>
</g>
<!-- MemberJobApplication -->
<g id="node9" class="node"><title>MemberJobApplication</title>
<polyline fill="none" stroke="black" points="1897.5,-199 2042.5,-199 "/>
<path fill="none" stroke="black" d="M2042.5,-199C2048.5,-199 2054.5,-205 2054.5,-211"/>
<polyline fill="none" stroke="black" points="2054.5,-211 2054.5,-329 "/>
<path fill="none" stroke="black" d="M2054.5,-329C2054.5,-335 2048.5,-341 2042.5,-341"/>
<polyline fill="none" stroke="black" points="2042.5,-341 1897.5,-341 "/>
<path fill="none" stroke="black" d="M1897.5,-341C1891.5,-341 1885.5,-335 1885.5,-329"/>
<polyline fill="none" stroke="black" points="1885.5,-329 1885.5,-211 "/>
<path fill="none" stroke="black" d="M1885.5,-211C1885.5,-205 1891.5,-199 1897.5,-199"/>
<text text-anchor="middle" x="1970" y="-324.4" font-family="Times Roman,serif" font-size="14.00">MemberJobApplication</text>
<polyline fill="none" stroke="black" points="1885.5,-315 2054.5,-315 "/>
<text text-anchor="start" x="1893.5" y="-298.4" font-family="Times Roman,serif" font-size="14.00">id :integer</text>
<text text-anchor="start" x="1893.5" y="-280.4" font-family="Times Roman,serif" font-size="14.00">member_id :integer</text>
<text text-anchor="start" x="1893.5" y="-262.4" font-family="Times Roman,serif" font-size="14.00">job_id :integer</text>
<text text-anchor="start" x="1893.5" y="-244.4" font-family="Times Roman,serif" font-size="14.00">status :string</text>
<text text-anchor="start" x="1893.5" y="-226.4" font-family="Times Roman,serif" font-size="14.00">created_at :datetime</text>
<text text-anchor="start" x="1893.5" y="-208.4" font-family="Times Roman,serif" font-size="14.00">updated_at :datetime</text>
</g>
<!-- EmployerProfile -->
<g id="node10" class="node"><title>EmployerProfile</title>
<polyline fill="none" stroke="black" points="2083.5,-208 2224.5,-208 "/>
<path fill="none" stroke="black" d="M2224.5,-208C2230.5,-208 2236.5,-214 2236.5,-220"/>
<polyline fill="none" stroke="black" points="2236.5,-220 2236.5,-320 "/>
<path fill="none" stroke="black" d="M2236.5,-320C2236.5,-326 2230.5,-332 2224.5,-332"/>
<polyline fill="none" stroke="black" points="2224.5,-332 2083.5,-332 "/>
<path fill="none" stroke="black" d="M2083.5,-332C2077.5,-332 2071.5,-326 2071.5,-320"/>
<polyline fill="none" stroke="black" points="2071.5,-320 2071.5,-220 "/>
<path fill="none" stroke="black" d="M2071.5,-220C2071.5,-214 2077.5,-208 2083.5,-208"/>
<text text-anchor="middle" x="2154" y="-315.4" font-family="Times Roman,serif" font-size="14.00">EmployerProfile</text>
<polyline fill="none" stroke="black" points="2071.5,-306 2236.5,-306 "/>
<text text-anchor="start" x="2079.5" y="-289.4" font-family="Times Roman,serif" font-size="14.00">id :integer</text>
<text text-anchor="start" x="2079.5" y="-271.4" font-family="Times Roman,serif" font-size="14.00">name :string</text>
<text text-anchor="start" x="2079.5" y="-253.4" font-family="Times Roman,serif" font-size="14.00">bio :string</text>
<text text-anchor="start" x="2079.5" y="-235.4" font-family="Times Roman,serif" font-size="14.00">created_at :datetime</text>
<text text-anchor="start" x="2079.5" y="-217.4" font-family="Times Roman,serif" font-size="14.00">updated_at :datetime</text>
</g>
<!-- MemberProjectApplication -->
<g id="node11" class="node"><title>MemberProjectApplication</title>
<polyline fill="none" stroke="black" points="2266,-199 2438,-199 "/>
<path fill="none" stroke="black" d="M2438,-199C2444,-199 2450,-205 2450,-211"/>
<polyline fill="none" stroke="black" points="2450,-211 2450,-329 "/>
<path fill="none" stroke="black" d="M2450,-329C2450,-335 2444,-341 2438,-341"/>
<polyline fill="none" stroke="black" points="2438,-341 2266,-341 "/>
<path fill="none" stroke="black" d="M2266,-341C2260,-341 2254,-335 2254,-329"/>
<polyline fill="none" stroke="black" points="2254,-329 2254,-211 "/>
<path fill="none" stroke="black" d="M2254,-211C2254,-205 2260,-199 2266,-199"/>
<text text-anchor="middle" x="2352" y="-324.4" font-family="Times Roman,serif" font-size="14.00">MemberProjectApplication</text>
<polyline fill="none" stroke="black" points="2254,-315 2450,-315 "/>
<text text-anchor="start" x="2262" y="-298.4" font-family="Times Roman,serif" font-size="14.00">id :integer</text>
<text text-anchor="start" x="2262" y="-280.4" font-family="Times Roman,serif" font-size="14.00">member_id :integer</text>
<text text-anchor="start" x="2262" y="-262.4" font-family="Times Roman,serif" font-size="14.00">project_id :string</text>
<text text-anchor="start" x="2262" y="-244.4" font-family="Times Roman,serif" font-size="14.00">status :string</text>
<text text-anchor="start" x="2262" y="-226.4" font-family="Times Roman,serif" font-size="14.00">created_at :datetime</text>
<text text-anchor="start" x="2262" y="-208.4" font-family="Times Roman,serif" font-size="14.00">updated_at :datetime</text>
</g>
<!-- ClientMentor -->
<g id="node12" class="node"><title>ClientMentor</title>
<polyline fill="none" stroke="black" points="2479.5,-208 2620.5,-208 "/>
<path fill="none" stroke="black" d="M2620.5,-208C2626.5,-208 2632.5,-214 2632.5,-220"/>
<polyline fill="none" stroke="black" points="2632.5,-220 2632.5,-320 "/>
<path fill="none" stroke="black" d="M2632.5,-320C2632.5,-326 2626.5,-332 2620.5,-332"/>
<polyline fill="none" stroke="black" points="2620.5,-332 2479.5,-332 "/>
<path fill="none" stroke="black" d="M2479.5,-332C2473.5,-332 2467.5,-326 2467.5,-320"/>
<polyline fill="none" stroke="black" points="2467.5,-320 2467.5,-220 "/>
<path fill="none" stroke="black" d="M2467.5,-220C2467.5,-214 2473.5,-208 2479.5,-208"/>
<text text-anchor="middle" x="2550" y="-315.4" font-family="Times Roman,serif" font-size="14.00">ClientMentor</text>
<polyline fill="none" stroke="black" points="2467.5,-306 2632.5,-306 "/>
<text text-anchor="start" x="2475.5" y="-289.4" font-family="Times Roman,serif" font-size="14.00">id :integer</text>
<text text-anchor="start" x="2475.5" y="-271.4" font-family="Times Roman,serif" font-size="14.00">client_id :integer</text>
<text text-anchor="start" x="2475.5" y="-253.4" font-family="Times Roman,serif" font-size="14.00">mentor_id :integer</text>
<text text-anchor="start" x="2475.5" y="-235.4" font-family="Times Roman,serif" font-size="14.00">created_at :datetime</text>
<text text-anchor="start" x="2475.5" y="-217.4" font-family="Times Roman,serif" font-size="14.00">updated_at :datetime</text>
</g>
<!-- Client -->
<g id="node13" class="node"><title>Client</title>
<polyline fill="none" stroke="black" points="2662,-127 2892,-127 "/>
<path fill="none" stroke="black" d="M2892,-127C2898,-127 2904,-133 2904,-139"/>
<polyline fill="none" stroke="black" points="2904,-139 2904,-401 "/>
<path fill="none" stroke="black" d="M2904,-401C2904,-407 2898,-413 2892,-413"/>
<polyline fill="none" stroke="black" points="2892,-413 2662,-413 "/>
<path fill="none" stroke="black" d="M2662,-413C2656,-413 2650,-407 2650,-401"/>
<polyline fill="none" stroke="black" points="2650,-401 2650,-139 "/>
<path fill="none" stroke="black" d="M2650,-139C2650,-133 2656,-127 2662,-127"/>
<text text-anchor="middle" x="2777" y="-396.4" font-family="Times Roman,serif" font-size="14.00">Client</text>
<polyline fill="none" stroke="black" points="2650,-387 2904,-387 "/>
<text text-anchor="start" x="2658" y="-370.4" font-family="Times Roman,serif" font-size="14.00">id :integer</text>
<text text-anchor="start" x="2658" y="-352.4" font-family="Times Roman,serif" font-size="14.00">email :string</text>
<text text-anchor="start" x="2658" y="-334.4" font-family="Times Roman,serif" font-size="14.00">encrypted_password :string</text>
<text text-anchor="start" x="2658" y="-316.4" font-family="Times Roman,serif" font-size="14.00">reset_password_token :string</text>
<text text-anchor="start" x="2658" y="-298.4" font-family="Times Roman,serif" font-size="14.00">reset_password_sent_at :datetime</text>
<text text-anchor="start" x="2658" y="-280.4" font-family="Times Roman,serif" font-size="14.00">remember_created_at :datetime</text>
<text text-anchor="start" x="2658" y="-262.4" font-family="Times Roman,serif" font-size="14.00">sign_in_count :integer</text>
<text text-anchor="start" x="2658" y="-244.4" font-family="Times Roman,serif" font-size="14.00">current_sign_in_at :datetime</text>
<text text-anchor="start" x="2658" y="-226.4" font-family="Times Roman,serif" font-size="14.00">last_sign_in_at :datetime</text>
<text text-anchor="start" x="2658" y="-208.4" font-family="Times Roman,serif" font-size="14.00">current_sign_in_ip :string</text>
<text text-anchor="start" x="2658" y="-190.4" font-family="Times Roman,serif" font-size="14.00">last_sign_in_ip :string</text>
<text text-anchor="start" x="2658" y="-172.4" font-family="Times Roman,serif" font-size="14.00">created_at :datetime</text>
<text text-anchor="start" x="2658" y="-154.4" font-family="Times Roman,serif" font-size="14.00">updated_at :datetime</text>
<text text-anchor="start" x="2658" y="-136.4" font-family="Times Roman,serif" font-size="14.00">organisation :string</text>
</g>
<!-- Mentor -->
<g id="node14" class="node"><title>Mentor</title>
<polyline fill="none" stroke="black" points="2933.5,-109 3074.5,-109 "/>
<path fill="none" stroke="black" d="M3074.5,-109C3080.5,-109 3086.5,-115 3086.5,-121"/>
<polyline fill="none" stroke="black" points="3086.5,-121 3086.5,-419 "/>
<path fill="none" stroke="black" d="M3086.5,-419C3086.5,-425 3080.5,-431 3074.5,-431"/>
<polyline fill="none" stroke="black" points="3074.5,-431 2933.5,-431 "/>
<path fill="none" stroke="black" d="M2933.5,-431C2927.5,-431 2921.5,-425 2921.5,-419"/>
<polyline fill="none" stroke="black" points="2921.5,-419 2921.5,-121 "/>
<path fill="none" stroke="black" d="M2921.5,-121C2921.5,-115 2927.5,-109 2933.5,-109"/>
<text text-anchor="middle" x="3004" y="-414.4" font-family="Times Roman,serif" font-size="14.00">Mentor</text>
<polyline fill="none" stroke="black" points="2921.5,-405 3086.5,-405 "/>
<text text-anchor="start" x="2929.5" y="-388.4" font-family="Times Roman,serif" font-size="14.00">id :integer</text>
<text text-anchor="start" x="2929.5" y="-370.4" font-family="Times Roman,serif" font-size="14.00">fname :string</text>
<text text-anchor="start" x="2929.5" y="-352.4" font-family="Times Roman,serif" font-size="14.00">lname :string</text>
<text text-anchor="start" x="2929.5" y="-334.4" font-family="Times Roman,serif" font-size="14.00">role_title :string</text>
<text text-anchor="start" x="2929.5" y="-316.4" font-family="Times Roman,serif" font-size="14.00">sector_ids :string</text>
<text text-anchor="start" x="2929.5" y="-298.4" font-family="Times Roman,serif" font-size="14.00">organisation :string</text>
<text text-anchor="start" x="2929.5" y="-280.4" font-family="Times Roman,serif" font-size="14.00">closing_date :date</text>
<text text-anchor="start" x="2929.5" y="-262.4" font-family="Times Roman,serif" font-size="14.00">location :string</text>
<text text-anchor="start" x="2929.5" y="-244.4" font-family="Times Roman,serif" font-size="14.00">description :string</text>
<text text-anchor="start" x="2929.5" y="-226.4" font-family="Times Roman,serif" font-size="14.00">email :string</text>
<text text-anchor="start" x="2929.5" y="-208.4" font-family="Times Roman,serif" font-size="14.00">telephone :string</text>
<text text-anchor="start" x="2929.5" y="-190.4" font-family="Times Roman,serif" font-size="14.00">image :string</text>
<text text-anchor="start" x="2929.5" y="-172.4" font-family="Times Roman,serif" font-size="14.00">draft :boolean</text>
<text text-anchor="start" x="2929.5" y="-154.4" font-family="Times Roman,serif" font-size="14.00">created_at :datetime</text>
<text text-anchor="start" x="2929.5" y="-136.4" font-family="Times Roman,serif" font-size="14.00">updated_at :datetime</text>
<text text-anchor="start" x="2929.5" y="-118.4" font-family="Times Roman,serif" font-size="14.00">internal :boolean</text>
</g>
<!-- Sector -->
<g id="node15" class="node"><title>Sector</title>
<polyline fill="none" stroke="black" points="3115.5,-217 3256.5,-217 "/>
<path fill="none" stroke="black" d="M3256.5,-217C3262.5,-217 3268.5,-223 3268.5,-229"/>
<polyline fill="none" stroke="black" points="3268.5,-229 3268.5,-311 "/>
<path fill="none" stroke="black" d="M3268.5,-311C3268.5,-317 3262.5,-323 3256.5,-323"/>
<polyline fill="none" stroke="black" points="3256.5,-323 3115.5,-323 "/>
<path fill="none" stroke="black" d="M3115.5,-323C3109.5,-323 3103.5,-317 3103.5,-311"/>
<polyline fill="none" stroke="black" points="3103.5,-311 3103.5,-229 "/>
<path fill="none" stroke="black" d="M3103.5,-229C3103.5,-223 3109.5,-217 3115.5,-217"/>
<text text-anchor="middle" x="3186" y="-306.4" font-family="Times Roman,serif" font-size="14.00">Sector</text>
<polyline fill="none" stroke="black" points="3103.5,-297 3268.5,-297 "/>
<text text-anchor="start" x="3111.5" y="-280.4" font-family="Times Roman,serif" font-size="14.00">id :integer</text>
<text text-anchor="start" x="3111.5" y="-262.4" font-family="Times Roman,serif" font-size="14.00">name :string</text>
<text text-anchor="start" x="3111.5" y="-244.4" font-family="Times Roman,serif" font-size="14.00">created_at :datetime</text>
<text text-anchor="start" x="3111.5" y="-226.4" font-family="Times Roman,serif" font-size="14.00">updated_at :datetime</text>
</g>
<!-- OrganisationEmailDomain -->
<g id="node16" class="node"><title>OrganisationEmailDomain</title>
<polyline fill="none" stroke="black" points="3298,-208 3470,-208 "/>
<path fill="none" stroke="black" d="M3470,-208C3476,-208 3482,-214 3482,-220"/>
<polyline fill="none" stroke="black" points="3482,-220 3482,-320 "/>
<path fill="none" stroke="black" d="M3482,-320C3482,-326 3476,-332 3470,-332"/>
<polyline fill="none" stroke="black" points="3470,-332 3298,-332 "/>
<path fill="none" stroke="black" d="M3298,-332C3292,-332 3286,-326 3286,-320"/>
<polyline fill="none" stroke="black" points="3286,-320 3286,-220 "/>
<path fill="none" stroke="black" d="M3286,-220C3286,-214 3292,-208 3298,-208"/>
<text text-anchor="middle" x="3384" y="-315.4" font-family="Times Roman,serif" font-size="14.00">OrganisationEmailDomain</text>
<polyline fill="none" stroke="black" points="3286,-306 3482,-306 "/>
<text text-anchor="start" x="3294" y="-289.4" font-family="Times Roman,serif" font-size="14.00">id :integer</text>
<text text-anchor="start" x="3294" y="-271.4" font-family="Times Roman,serif" font-size="14.00">organisation :string</text>
<text text-anchor="start" x="3294" y="-253.4" font-family="Times Roman,serif" font-size="14.00">domain :string</text>
<text text-anchor="start" x="3294" y="-235.4" font-family="Times Roman,serif" font-size="14.00">created_at :datetime</text>
<text text-anchor="start" x="3294" y="-217.4" font-family="Times Roman,serif" font-size="14.00">updated_at :datetime</text>
</g>
<!-- ClientProject -->
<g id="node17" class="node"><title>ClientProject</title>
<polyline fill="none" stroke="black" points="3511.5,-208 3652.5,-208 "/>
<path fill="none" stroke="black" d="M3652.5,-208C3658.5,-208 3664.5,-214 3664.5,-220"/>
<polyline fill="none" stroke="black" points="3664.5,-220 3664.5,-320 "/>
<path fill="none" stroke="black" d="M3664.5,-320C3664.5,-326 3658.5,-332 3652.5,-332"/>
<polyline fill="none" stroke="black" points="3652.5,-332 3511.5,-332 "/>
<path fill="none" stroke="black" d="M3511.5,-332C3505.5,-332 3499.5,-326 3499.5,-320"/>
<polyline fill="none" stroke="black" points="3499.5,-320 3499.5,-220 "/>
<path fill="none" stroke="black" d="M3499.5,-220C3499.5,-214 3505.5,-208 3511.5,-208"/>
<text text-anchor="middle" x="3582" y="-315.4" font-family="Times Roman,serif" font-size="14.00">ClientProject</text>
<polyline fill="none" stroke="black" points="3499.5,-306 3664.5,-306 "/>
<text text-anchor="start" x="3507.5" y="-289.4" font-family="Times Roman,serif" font-size="14.00">id :integer</text>
<text text-anchor="start" x="3507.5" y="-271.4" font-family="Times Roman,serif" font-size="14.00">client_id :integer</text>
<text text-anchor="start" x="3507.5" y="-253.4" font-family="Times Roman,serif" font-size="14.00">project_id :integer</text>
<text text-anchor="start" x="3507.5" y="-235.4" font-family="Times Roman,serif" font-size="14.00">created_at :datetime</text>
<text text-anchor="start" x="3507.5" y="-217.4" font-family="Times Roman,serif" font-size="14.00">updated_at :datetime</text>
</g>
<!-- Location -->
<g id="node18" class="node"><title>Location</title>
<polyline fill="none" stroke="black" points="3693.5,-217 3834.5,-217 "/>
<path fill="none" stroke="black" d="M3834.5,-217C3840.5,-217 3846.5,-223 3846.5,-229"/>
<polyline fill="none" stroke="black" points="3846.5,-229 3846.5,-311 "/>
<path fill="none" stroke="black" d="M3846.5,-311C3846.5,-317 3840.5,-323 3834.5,-323"/>
<polyline fill="none" stroke="black" points="3834.5,-323 3693.5,-323 "/>
<path fill="none" stroke="black" d="M3693.5,-323C3687.5,-323 3681.5,-317 3681.5,-311"/>
<polyline fill="none" stroke="black" points="3681.5,-311 3681.5,-229 "/>
<path fill="none" stroke="black" d="M3681.5,-229C3681.5,-223 3687.5,-217 3693.5,-217"/>
<text text-anchor="middle" x="3764" y="-306.4" font-family="Times Roman,serif" font-size="14.00">Location</text>
<polyline fill="none" stroke="black" points="3681.5,-297 3846.5,-297 "/>
<text text-anchor="start" x="3689.5" y="-280.4" font-family="Times Roman,serif" font-size="14.00">id :integer</text>
<text text-anchor="start" x="3689.5" y="-262.4" font-family="Times Roman,serif" font-size="14.00">name :string</text>
<text text-anchor="start" x="3689.5" y="-244.4" font-family="Times Roman,serif" font-size="14.00">created_at :datetime</text>
<text text-anchor="start" x="3689.5" y="-226.4" font-family="Times Roman,serif" font-size="14.00">updated_at :datetime</text>
</g>
</g>
</svg>
